SplineFontDB: 3.2
FontName: Anarchaos
FullName: Anarchaos
FamilyName: Anarchaos
Weight: Normal
Copyright: Copyright (c) 2019 by . All rights reserved.
Version: 001.001
ItalicAngle: 0
UnderlinePosition: -100
UnderlineWidth: 50
Ascent: 750
Descent: 250
InvalidEm: 0
sfntRevision: 0x00010000
LayerCount: 2
Layer: 0 0 "Back" 1
Layer: 1 0 "Fore" 0
XUID: [1021 644 2094204682 16314]
StyleMap: 0x0040
FSType: 4
OS2Version: 3
OS2_WeightWidthSlopeOnly: 0
OS2_UseTypoMetrics: 0
CreationTime: 1560063889
ModificationTime: 1720494161
PfmFamily: 81
TTFWeight: 400
TTFWidth: 5
LineGap: 0
VLineGap: 0
Panose: 0 0 0 0 0 0 0 0 0 0
OS2TypoAscent: 750
OS2TypoAOffset: 0
OS2TypoDescent: -250
OS2TypoDOffset: 0
OS2TypoLinegap: 0
OS2WinAscent: 870
OS2WinAOffset: 0
OS2WinDescent: 130
OS2WinDOffset: 0
HheadAscent: 750
HheadAOffset: 0
HheadDescent: -250
HheadDOffset: 0
OS2SubXSize: 650
OS2SubYSize: 600
OS2SubXOff: 0
OS2SubYOff: 75
OS2SupXSize: 650
OS2SupYSize: 600
OS2SupXOff: 0
OS2SupYOff: 350
OS2StrikeYSize: 50
OS2StrikeYPos: 300
OS2CapHeight: 700
OS2XHeight: 500
OS2Vendor: 'PYRS'
OS2CodePages: 00000001.00000000
OS2UnicodeRanges: 00000001.00000000.00000000.00000000
Lookup: 258 0 0 "'kern' Horizontal Kerning in Latin lookup 0" { "'kern' Horizontal Kerning in Latin lookup 0 subtable"  } ['kern' ('latn' <'dflt' > ) ]
DEI: 91125
LangName: 1033 "Copyright (c) 2019 by Krisna Teja. All rights reserved." "" "Regular" "KrisnaTeja: Anarchaos: 2019" "" "Version 1.000" "" "Anarchaos is a trademark of Krisna Teja." "Krisna Teja" "" "Copyright (c) 2019 by . All rights reserved." "" "" "" "" "" "Anarchaos" "" "Anarchaos"
Encoding: UnicodeBmp
UnicodeInterp: none
NameList: AGL For New Fonts
DisplaySize: -48
AntiAlias: 1
FitToEm: 0
WinInfo: 192 16 4
BeginPrivate: 4
BlueValues 23 [-23 0 409 417 595 595]
OtherBlues 9 [-63 -63]
StdVW 4 [25]
StemSnapV 13 [25 28 52 78]
EndPrivate
BeginChars: 65537 104

StartChar: period
Encoding: 46 46 1
Width: 146
Flags: MW
HStem: -1 20 82 16
VStem: -1 16
LayerCount: 2
Fore
SplineSet
64 69 m 2
 70 58 l 2
 73 54 72 48 72 43 c 0
 69 32 68 25 63 24 c 1
 62 25 l 1
 61 24 61 24 61 23 c 0
 63 22 63 20 60 19 c 0
 59 16 57 15 57 14 c 0
 57 13 61 16 58 13 c 2
 55 11 l 2
 52 8 51 6 47 3 c 0
 43 -1 39 -2 35 -1 c 1
 35 -1 37 0 42 1 c 0
 46 2 47 4 45 6 c 0
 38 1 30 -1 23 0 c 2
 21 0 l 2
 20 0 18 1 17 1 c 0
 14 2 14 4 11 5 c 2
 7 13 l 1
 -3 23 -6 38 -1 57 c 0
 0 65 3 74 14 81 c 0
 14 82 15 83 15 84 c 1
 16 84 l 1
 15 83 15 82 15 82 c 1
 16 82 18 83 19 84 c 1
 7 89 l 1
 14 94 28 99 37 98 c 2
 38 98 l 2
 51 95 59 86 64 69 c 2
61 16 m 1
 60 17 61 18 62 19 c 1
 63 18 62 17 61 16 c 1
19 -2 m 1
 20 -1 21 -1 23 -1 c 1
 23 -2 22 -2 19 -2 c 1
EndSplineSet
EndChar

StartChar: comma
Encoding: 44 44 2
Width: 130
Flags: MW
HStem: -14 20<55.5 62.5> -3 21G -2 21G<20 21.5> 0 98<20.5 38 21 38 35 38 37 63> 1 21G<18 18.5 35 35 64 66 64 64>
VStem: -1 17 36 10<-22.5 -16.5> 55 8 59 7 61 10
LayerCount: 2
Fore
SplineSet
72 43 m 2x1640
 70 31 l 2
 71 30 71 29 71 26 c 0
 71 23 68 19 69 15 c 0
 69 11 72 7 61 7 c 1
 62 7 56 9 59 6 c 0
 66 6 59 3 62 2 c 0
 63 1 66 2 66 1 c 1
 64 1 l 2
 63 0 63 0 63 0 c 2
 63 -1 64 -3 64 -4 c 0
 63 -7 61 -8 59 -9 c 0
 58 -8 59 -7 60 -6 c 0
 61 -5 60 -4 56 -3 c 1x4240
 55 -9 53 -14 49 -19 c 0
 49 -20 48 -21 46 -21 c 1
 46 -24 46 -25 45 -26 c 0
 44 -28 40 -30 35 -33 c 0
 32 -36 28 -36 25 -37 c 1
 28 -36 29 -35 29 -35 c 1
 31 -33 l 2
 32 -33 33 -32 33 -31 c 1
 31 -32 30 -33 30 -33 c 1
 32 -31 33 -29 33 -28 c 1
 33 -29 32 -30 32 -29 c 0
 33 -28 34 -27 34 -24 c 0
 35 -21 36 -19 36 -18 c 0
 36 -15 36 -13 35 -11 c 0
 35 -8 35 -6 36 -5 c 1
 33 -8 40 -8 36 -5 c 1
 35 -4 35 -2 35 0 c 2
 35 1 l 1
 33 0 29 0 24 0 c 2
 21 0 l 2
 20 0 19 1 18 1 c 0
 16 2 14 3 12 5 c 2
 8 13 l 1
 -1 22 -4 38 -1 57 c 0
 2 65 5 74 14 81 c 0
 15 82 15 83 15 84 c 1
 16 84 l 1
 16 82 l 1
 17 82 18 83 19 84 c 1x0e
 7 89 l 1
 14 94 28 99 37 98 c 2
 38 98 l 2
 52 95 61 85 64 69 c 0
 67 66 69 63 70 58 c 0
 73 53 73 48 72 43 c 2x1640
20 -2 m 1x22
 21 -1 22 -1 24 -1 c 1
 24 -2 23 -2 20 -2 c 1x22
67 3 m 1
 66 4 65 4 65 5 c 1x8280
 66 4 67 4 67 3 c 1
55 -12 m 1
 56 -13 56 -13 56 -14 c 1x83
 55 -14 55 -13 55 -12 c 1
28 -35 m 1
 29 -34 31 -32 28 -35 c 1
EndSplineSet
EndChar

StartChar: question
Encoding: 63 63 3
Width: 422
Flags: MW
HStem: -1 20 243 8 530 46
VStem: 70 17 117 16 130 22 133 10 184 10 362 8
LayerCount: 2
Fore
SplineSet
141 58 m 0xf380
 144 53 144 48 143 43 c 0
 142 32 141 25 134 24 c 1
 135 24 133 26 133 23 c 0
 134 22 133 20 132 19 c 2
 128 14 l 2
 128 13 131 16 130 13 c 2
 127 11 l 1
 119 3 l 2x82
 114 0 110 -2 106 -1 c 1
 107 0 110 0 113 1 c 0
 117 2 118 4 117 6 c 1x88
 110 1 102 -1 95 0 c 2
 92 0 l 2
 91 0 90 1 89 1 c 0
 87 2 85 3 83 5 c 2
 79 13 l 1
 70 22 67 38 70 57 c 0
 73 65 76 74 85 81 c 0
 86 82 86 83 86 84 c 1
 87 84 l 1
 87 82 l 1
 88 82 89 83 90 84 c 1
 78 89 l 1
 85 94 99 99 108 98 c 2
 109 98 l 2
 123 95 132 85 135 69 c 0
 138 66 140 63 141 58 c 0xf380
133 16 m 1xa880
 133 18 133 19 133 19 c 1
 133 17 133 16 133 16 c 1xa880
91 -2 m 1
 91 -1 92 -1 95 -1 c 1
 94 -2 93 -2 91 -2 c 1
373 458 m 0
 374 459 375 459 375 456 c 0
 375 451 371 450 370 443 c 0
 367 432 365 419 358 404 c 0
 355 401 356 397 353 394 c 2
 346 385 l 2
 341 379 335 374 328 370 c 1
 328 374 337 381 344 390 c 0
 349 395 351 399 352 402 c 0
 352 407 350 410 347 412 c 1
 345 408 l 2
 344 405 343 406 342 403 c 2
 337 395 l 2
 334 388 329 384 325 379 c 0
 316 369 306 360 296 353 c 0
 275 338 254 328 238 319 c 0
 231 314 222 314 215 310 c 2
 203 298 l 1
 192 285 l 2
 173 266 156 246 141 224 c 0
 134 213 127 202 122 187 c 0
 117 173 113 159 111 146 c 1
 108 146 l 1
 109 155 108 161 109 168 c 0
 109 175 111 181 116 186 c 1
 109 190 113 199 116 207 c 0
 119 216 123 223 119 230 c 1
 115 222 114 216 113 211 c 0
 110 206 110 204 103 201 c 1
 105 210 108 219 113 229 c 0
 116 238 120 246 120 251 c 1
 120 247 110 238 113 246 c 0
 118 253 123 260 128 269 c 0
 132 277 136 285 141 292 c 0
 153 307 167 317 182 328 c 0
 198 339 216 352 235 363 c 0
 244 370 253 375 262 380 c 2
 284 393 l 1
 277 389 276 386 279 386 c 0
 282 386 287 387 286 394 c 1
 295 405 305 413 313 425 c 0
 320 437 326 451 327 466 c 0
 327 473 325 480 324 485 c 0
 323 490 322 495 319 500 c 0
 317 505 315 508 312 511 c 0
 309 514 305 516 300 518 c 2
 299 519 l 1
 298 519 l 1
 295 520 l 1
 290 522 l 1
 280 525 l 2
 265 528 252 530 242 530 c 0
 231 530 222 528 214 523 c 1
 213 526 212 527 211 528 c 0
 208 528 206 529 202 526 c 0
 199 525 198 523 199 521 c 1
 196 520 197 519 194 518 c 1
 193 523 190 524 186 521 c 1
 189 516 191 517 194 518 c 1
 195 515 194 513 191 513 c 0
 188 514 186 515 184 515 c 0
 181 518 181 514 182 513 c 1
 177 514 173 509 170 502 c 0
 167 495 165 490 162 489 c 0
 161 489 160 489 159 490 c 2
 156 492 l 1
 153 489 152 485 152 481 c 0
 151 477 152 473 149 470 c 0
 146 466 144 468 141 464 c 0
 138 461 142 454 137 454 c 1
 137 461 136 464 133 471 c 0
 130 476 129 483 130 490 c 0
 131 495 133 502 138 510 c 2
 153 531 l 1
 160 530 156 535 153 531 c 1
 157 542 165 554 177 562 c 0
 189 570 203 575 220 577 c 0x6580
 235 580 251 579 266 576 c 0
 281 573 295 570 310 566 c 1
 313 566 l 1
 315 565 l 1
 317 565 l 1
 325 562 l 1
 339 555 l 2
 347 550 354 544 360 536 c 0
 365 529 367 522 368 515 c 0
 369 509 368 504 365 499 c 1
 365 500 364 501 362 501 c 0
 360 501 360 499 362 494 c 1
 369 495 370 487 370 478 c 0
 370 469 368 460 369 457 c 0
 369 456 370 457 373 458 c 0
374 482 m 1
 377 482 376 477 377 473 c 1
 374 474 374 479 374 482 c 1
290 340 m 1
 287 344 294 346 298 349 c 1
 301 346 294 343 290 340 c 1
102 195 m 0
 105 196 106 194 101 183 c 1
 97 188 99 192 102 195 c 0
170 498 m 1
 173 495 170 495 170 492 c 1
 168 493 168 495 170 498 c 1
184 515 m 1x21
 185 514 185 510 182 513 c 1
 182 513 183 514 184 515 c 1x21
199 521 m 1
 202 524 202 517 199 521 c 1
EndSplineSet
EndChar

StartChar: seven
Encoding: 55 55 5
Width: 266
Flags: MW
HStem: 50 8 449 7 501 9 516 11
VStem: 17 15 30 19<461 461> 46 8<450 455 450 458.5> 126 7 137 24 138 16<516 520.5 506 526> 204 15 263 13<487 504>
LayerCount: 2
Fore
SplineSet
262 487 m 1xe270
 263 487 l 2xe270
 266 490 266 487 269 487 c 0
 270 487 270 487 271 486 c 2
 272 486 l 2
 276 487 277 494 281 490 c 1
 280 489 279 488 278 485 c 1
 280 485 l 1
 280 481 279 479 278 479 c 0
 277 472 279 466 276 461 c 0
 271 453 261 447 254 436 c 1
 249 439 251 433 254 436 c 1
 254 417 245 401 233 385 c 0
 222 368 208 352 197 333 c 0
 185 312 182 291 163 294 c 1
 166 293 159 300 158 293 c 1
 169 284 148 275 152 268 c 0
 153 265 160 269 159 264 c 0
 158 261 154 263 151 259 c 0
 144 246 144 222 125 211 c 1
 122 214 129 218 133 225 c 0
 137 232 140 238 129 243 c 1
 114 210 98 174 87 147 c 0
 84 140 78 137 77 130 c 0
 74 121 77 111 74 102 c 0xa0b0
 69 79 62 60 53 39 c 0
 45 16 37 -5 32 -28 c 1
 28 -28 l 1
 31 -13 26 -6 35 5 c 1
 28 8 29 15 30 23 c 0
 31 30 34 37 27 41 c 1
 22 28 30 20 17 17 c 1
 17 32 25 51 20 58 c 1
 23 55 14 46 14 53 c 0
 23 66 19 80 22 93 c 0
 25 106 31 118 35 131 c 0
 40 146 44 162 49 179 c 0
 54 195 61 211 70 223 c 1
 61 208 79 216 72 225 c 1
 79 248 98 269 110 296 c 2
 117 315 l 2x89
 128 336 143 358 158 377 c 0
 173 397 186 415 191 431 c 1
 196 430 199 427 204 436 c 0
 205 439 208 440 205 443 c 1
 208 447 l 1
 212 443 215 443 218 447 c 1
 215 451 212 451 208 447 c 1
 201 458 216 454 219 454 c 0
 222 451 223 453 220 456 c 1
 223 456 224 456 225 457 c 1
 222 457 223 458 220 457 c 0
 207 456 189 443 174 452 c 1
 182 447 176 468 173 452 c 1
 162 448 149 457 136 453 c 0
 132 452 129 449 126 448 c 0
 102 445 78 459 61 445 c 1
 61 450 61 458 56 455 c 0
 55 455 54 453 54 450 c 1
 51 450 l 1
 52 459 50 460 49 460 c 0
 48 452 48 451 51 450 c 0
 48 435 46 453 46 455 c 0
 46 462 44 458 44 455 c 1
 42 465 33 453 30 461 c 0
 30 462 31 470 30 471 c 0
 27 474 24 468 21 471 c 0
 18 474 20 478 19 481 c 0
 16 484 15 479 15 486 c 1
 19 485 23 502 28 505 c 0
 32 508 37 503 44 504 c 1
 44 497 45 505 44 504 c 1
 60 534 79 517 100 522 c 0
 112 525 120 533 125 512 c 1
 124 515 123 504 126 507 c 0x5520
 126 523 135 510 138 516 c 0
 139 519 135 525 138 526 c 0
 141 527 139 521 142 521 c 0
 149 522 160 534 168 521 c 1x1040
 168 512 154 535 154 506 c 1
 171 510 189 510 204 511 c 0
 207 511 210 506 213 506 c 0
 218 509 222 515 226 516 c 0
 237 520 247 519 258 516 c 0
 269 513 279 510 290 510 c 1
 291 506 l 1
 284 503 283 496 276 504 c 1
 276 485 265 498 262 487 c 1xe270
133 526 m 1x5120
 133 522 131 523 130 522 c 1
 130 526 132 525 133 526 c 1x5120
184 521 m 1
 184 514 183 517 180 516 c 1
 180 523 183 520 184 521 c 1
32 451 m 1
 32 456 34 455 35 456 c 1
 35 451 33 452 32 451 c 1
46 455 m 1
 46 452 44 450 44 455 c 1
 46 455 l 1
54 450 m 1
 55 451 54 443 54 450 c 1
164 280 m 1
 167 277 164 276 164 273 c 1
 162 274 162 277 164 280 c 1
111 190 m 1
 115 187 112 184 111 181 c 1
 107 184 110 187 111 190 c 1
18 3 m 1
 8 10 26 20 18 3 c 1
219 454 m 2
 216 455 217 459 220 456 c 1
 219 454 l 2
205 443 m 1
 202 440 198 446 205 443 c 1
EndSplineSet
EndChar

StartChar: five
Encoding: 53 53 6
Width: 337
Flags: MW
HStem: 0 51 315 11 327 49 332 47 388 8 397 20G 433 12 453 24 493 10 509 12 521 7
VStem: 11 9 14 7 41 8 45 8 49 8 64 54 100 11 115 9 141 7 144 7<323.5 324> 168 12<515 520.5 503 527> 217 63 276 12
LayerCount: 2
Fore
SplineSet
290 163 m 1xc49085
 285 164 287 169 286 172 c 1
 290 172 289 167 290 163 c 1xc49085
210 22 m 1x002004
 207 27 213 30 216 34 c 1
 220 29 213 26 210 22 c 1x002004
43 144 m 0x084084
 40 141 36 144 39 155 c 1
 47 152 46 147 43 144 c 0x084084
120 324 m 1
 120 328 121 327 124 328 c 1
 124 324 121 325 120 324 c 1
144 324 m 1
 143 321 140 320 141 325 c 0
 142 325 143 324 144 324 c 1
156 314 m 1
 159 313 153 307 156 314 c 1
43 386 m 1
 48 385 46 385 47 384 c 1x0802
 45 385 44 385 44 385 c 1
 44 385 44 385 43 386 c 1
57 413 m 1
 52 414 53 416 53 417 c 1
 58 416 56 416 57 413 c 1
100 318 m 1
 104 317 103 316 104 315 c 1x1002
 100 316 101 317 100 318 c 1
101 323 m 1
 101 324 l 1
 104 324 106 323 101 323 c 1
106 328 m 1x400080
 113 328 106 329 106 328 c 1x400080
229 503 m 2
 239 515 l 1
 256 523 274 506 293 503 c 1
 293 497 l 1
 286 497 285 488 280 497 c 1
 278 475 270 493 267 474 c 1
 272 471 274 487 277 468 c 1
 272 461 265 467 262 456 c 1
 263 460 267 453 264 450 c 1
 259 458 254 447 249 444 c 0
 244 441 239 445 234 444 c 0
 223 444 207 425 196 438 c 1
 203 431 199 456 196 438 c 1
 188 433 177 443 166 438 c 0
 163 437 162 433 159 432 c 0
 144 429 127 440 115 433 c 0x452240
 114 432 114 430 114 429 c 0
 113 421 123 408 114 401 c 1
 118 405 101 402 113 400 c 1
 116 393 107 386 110 378 c 2x080080
 110 377 l 1
 114 378 118 378 122 377 c 2
 148 373 l 1x200010
 149 366 153 372 148 373 c 1
 160 377 173 377 188 373 c 0
 203 368 216 359 227 347 c 0
 231 344 233 340 236 336 c 0
 237 335 238 334 238 333 c 2
 240 331 l 1
 243 326 l 1
 254 306 l 2
 261 293 265 280 272 265 c 0
 279 248 285 233 288 220 c 0
 289 205 287 195 276 188 c 1
 279 191 268 193 271 185 c 1
 278 184 281 179 280 168 c 0x208426
 279 160 275 151 278 148 c 0
 281 144 287 155 288 146 c 0
 288 141 281 142 280 135 c 0
 277 124 277 110 272 95 c 0
 267 80 258 66 245 59 c 1x010001
 242 63 251 71 258 80 c 0
 265 89 268 99 255 104 c 1
 246 79 231 57 212 38 c 0
 203 29 192 21 181 14 c 0
 170 7 159 3 147 0 c 0
 142 -3 136 -1 131 0 c 0
 124 0 120 2 116 1 c 0
 108 1 101 0 93 0 c 0
 84 0 76 1 69 4 c 0
 65 5 60 7 56 10 c 0
 51 13 46 16 43 20 c 0
 35 27 29 36 24 44 c 0
 15 63 13 80 10 97 c 0
 9 113 9 129 12 145 c 2
 16 190 l 1
 20 190 l 1
 23 168 l 2
 24 161 24 156 20 148 c 1
 29 145 30 137 31 128 c 0
 31 119 33 110 41 107 c 1
 41 115 38 121 37 126 c 0
 36 131 36 135 44 138 c 1
 47 130 46 120 49 111 c 0
 52 103 54 96 59 93 c 1
 56 94 56 97 58 100 c 0
 60 103 61 103 62 100 c 0
 59 92 63 85 67 80 c 0
 71 75 76 71 80 68 c 0
 85 63 88 60 91 58 c 0
 92 58 92 58 93 57 c 2
 95 56 l 2
 96 56 97 55 98 54 c 0
 102 53 105 52 106 51 c 0
 113 50 120 50 125 52 c 0
 130 53 137 56 145 61 c 0
 157 70 168 81 183 90 c 1
 179 87 177 84 177 83 c 0
 177 82 178 81 179 80 c 0
 182 80 187 82 183 90 c 1
 190 101 197 110 204 122 c 0
 211 133 217 146 217 161 c 0
 217 168 214 175 214 182 c 0
 213 193 213 206 210 219 c 0
 207 232 204 244 200 257 c 0xa21081
 195 269 190 280 183 289 c 0x8008
 182 292 179 294 178 295 c 2
 174 298 l 2
 171 299 168 301 164 302 c 1
 166 304 167 306 167 309 c 0
 168 311 167 313 162 315 c 0x8010
 159 316 157 316 156 314 c 0
 155 314 154 315 151 316 c 1
 156 323 154 324 151 327 c 1
 147 319 148 319 151 316 c 1
 148 311 146 311 145 314 c 0
 144 317 144 323 144 324 c 0
 145 329 142 328 141 325 c 1
 140 330 135 332 128 331 c 0
 121 331 118 330 115 333 c 0
 114 334 115 343 114 343 c 0
 111 344 110 343 107 343 c 1
 107 338 108 335 111 332 c 1
 104 333 101 333 102 331 c 0
 102 330 103 329 106 328 c 2
 106 327 l 1
 98 328 97 327 97 326 c 0
 104 325 105 326 106 327 c 0
 119 324 103 324 101 324 c 0
 96 325 98 324 101 323 c 1
 92 323 103 315 95 315 c 0
 93 315 91 315 90 316 c 0
 89 316 87 316 86 317 c 1
 83 314 88 314 85 311 c 0
 84 310 79 311 76 311 c 0
 73 311 78 308 71 309 c 1
 72 312 58 316 55 319 c 0
 52 323 59 325 56 329 c 1
 63 328 56 330 56 329 c 1
 32 342 47 353 44 366 c 0
 43 373 36 380 56 379 c 1
 53 379 63 376 60 379 c 0
 47 382 55 386 53 388 c 0
 50 389 45 388 44 389 c 0
 43 390 49 390 49 391 c 0
 48 395 38 404 51 407 c 0
 58 405 37 399 63 396 c 1
 60 407 63 419 64 427 c 0
 64 430 69 429 69 432 c 0
 68 435 62 438 61 441 c 0xa0040a
 58 452 64 460 71 469 c 1
 70 469 69 467 69 474 c 1
 72 473 75 493 79 497 c 0
 82 501 87 494 91 497 c 1
 92 489 94 498 91 497 c 1
 102 531 121 516 136 521 c 0
 147 524 152 536 157 509 c 1
 156 512 155 499 158 503 c 0
 158 521 166 510 168 515 c 0
 168 518 165 524 168 527 c 0
 169 528 168 520 171 521 c 0
 177 521 184 538 192 521 c 1
 192 510 180 538 180 503 c 1
 195 508 210 508 221 509 c 0
 224 509 226 502 229 503 c 2
163 527 m 1
 163 520 162 522 161 521 c 1
 161 528 162 524 163 527 c 1
205 521 m 1
 205 514 203 516 202 515 c 1
 202 522 204 520 205 521 c 1
282 474 m 1
 280 457 275 479 282 474 c 1
EndSplineSet
EndChar

StartChar: nine
Encoding: 57 57 7
Width: 356
Flags: MW
HStem: -4 21G -2 20 182 61 464 50
VStem: 10 8 33 40 118 14<12 14> 132 7<14 17> 253 17 270 47
LayerCount: 2
Fore
SplineSet
21 277 m 1x7840
 17 276 16 281 15 285 c 1
 19 286 18 280 21 277 c 1x7840
45 435 m 1
 41 438 46 444 49 448 c 1
 52 445 48 440 45 435 c 1
232 272 m 1
 236 269 234 269 234 266 c 1
 230 269 232 269 232 272 c 1
223 253 m 1
 222 256 221 258 225 255 c 1x14
 223 253 l 1
210 251 m 1
 206 256 207 250 210 251 c 1
317 320 m 0x28
 318 300 318 279 311 262 c 1
 314 270 312 273 309 270 c 0
 306 269 305 264 310 259 c 1
 309 244 305 230 300 215 c 0
 293 199 287 184 282 168 c 0
 279 160 277 152 274 145 c 0
 267 132 260 119 249 107 c 0x3880
 245 100 239 96 234 89 c 0
 229 84 225 78 218 73 c 0
 195 52 174 39 159 24 c 0
 156 25 156 27 153 27 c 2
 149 27 l 1
 149 27 147 26 143 23 c 0x7840
 140 22 136 20 139 17 c 1
 132 14 l 1
 131 21 127 19 123 18 c 1
 124 13 127 11 132 14 c 1
 133 9 131 7 127 8 c 0
 123 9 121 11 118 12 c 0
 115 16 114 14 115 11 c 1
 110 14 104 9 97 6 c 0
 90 3 85 -2 82 1 c 0
 81 1 81 2 80 4 c 0
 79 5 79 7 79 8 c 1
 71 7 67 1 60 -2 c 0
 56 -3 55 2 51 2 c 0
 47 2 44 -5 41 0 c 0
 44 2 46 6 49 13 c 0
 52 20 55 25 59 28 c 0
 68 35 82 36 95 43 c 1
 99 39 98 46 95 43 c 1
 100 52 107 57 115 64 c 0
 122 71 131 75 139 82 c 0
 158 94 176 106 189 123 c 0x8640
 197 134 202 144 207 151 c 0
 212 160 219 164 228 164 c 1
 225 164 231 157 232 164 c 1
 228 167 228 172 232 178 c 0
 235 183 239 189 238 192 c 0
 237 195 231 190 231 194 c 1
 230 193 228 192 227 192 c 0
 226 191 225 190 222 189 c 2
 212 185 l 2
 204 182 197 181 189 180 c 0
 174 178 157 179 140 182 c 0
 132 183 124 184 116 187 c 2
 104 190 l 2
 100 191 96 192 91 195 c 0
 70 203 54 215 43 227 c 0
 32 241 30 253 36 263 c 1
 35 260 45 261 38 269 c 1
 31 266 28 274 25 283 c 0
 22 291 23 301 20 304 c 0
 19 305 18 304 15 301 c 0
 13 298 12 298 11 303 c 0
 10 308 15 309 14 316 c 0
 13 327 9 341 10 357 c 0
 10 372 13 389 24 401 c 1
 27 397 21 387 18 376 c 0
 15 365 15 354 27 354 c 1
 28 381 34 407 49 432 c 0
 64 457 83 474 102 486 c 0
 106 489 111 491 116 492 c 0
 121 493 126 495 129 496 c 0
 136 499 141 503 148 507 c 0
 154 511 161 514 168 516 c 0x66
 187 520 205 519 224 513 c 0
 235 510 244 505 251 500 c 0
 260 493 266 486 273 478 c 0
 280 468 284 459 287 451 c 0
 290 442 292 433 293 425 c 0
 301 410 303 394 307 378 c 0
 310 361 314 341 317 320 c 0x28
258 222 m 1
 258 224 l 1
 258 222 l 1
259 227 m 1
 259 228 l 2
 257 229 256 228 256 227 c 1
 257 227 l 2
 258 227 259 227 259 227 c 1
269 335 m 0
 269 343 274 349 271 356 c 0
 268 367 262 375 259 384 c 0
 251 405 243 425 230 442 c 0
 223 451 215 459 206 464 c 1
 200 464 l 1
 181 464 l 2
 174 464 167 463 161 461 c 0
 146 457 131 445 118 432 c 0
 111 425 107 419 102 412 c 2
 94 403 l 2
 91 399 90 396 87 393 c 1
 90 396 91 399 91 401 c 0
 91 402 90 403 88 403 c 0
 85 403 82 398 87 393 c 1
 83 381 79 368 76 353 c 0x41
 73 338 72 324 76 309 c 2
 85 291 l 2
 90 281 96 272 103 264 c 0x42
 106 261 110 258 115 255 c 0x7840
 118 254 119 252 122 251 c 0
 123 251 125 250 126 250 c 0
 129 249 130 248 131 248 c 0
 144 244 155 242 166 243 c 0
 177 243 186 246 193 251 c 1
 196 246 197 241 206 245 c 0x1040
 209 246 211 248 210 251 c 1
 211 251 213 252 214 253 c 1
 215 248 218 246 222 247 c 1
 219 254 217 253 214 253 c 0
 211 260 213 259 216 258 c 0
 219 257 221 255 223 253 c 0
 227 250 226 252 225 255 c 1
 229 253 232 255 235 262 c 0
 238 267 238 273 242 274 c 2
 246 272 l 2
 247 271 249 271 250 271 c 0
 252 275 253 279 253 282 c 0
 253 287 254 291 255 294 c 0
 258 298 261 296 264 299 c 0
 267 303 263 310 270 310 c 1
 270 307 l 1
 270 318 270 327 269 335 c 0
226 185 m 1
 229 182 227 181 227 178 c 1
 224 181 226 182 226 185 c 1
90 -4 m 1
 89 0 92 -1 95 2 c 1
 96 -1 93 -1 90 -4 c 1
118 12 m 1
 119 9 118 7 115 11 c 1
 118 12 l 1
139 17 m 1
 142 20 143 13 139 17 c 1
EndSplineSet
EndChar

StartChar: four
Encoding: 52 52 8
Width: 366
Flags: MW
HStem: -14 21G<201 201> -12 21G 1 21G 34 7 143 9<53 57 53 59 53 57 53 59> 144 61<196.5 197 196 203> 155 11 168 12 194 10 211 7 471 9 499 11 516 7
VStem: 36 7 42 11 122 9 125 29<204 204> 134 33<502.5 516> 140 14 167 9 181 24 197 65 198 57 207 61 237 78 284 7
LayerCount: 2
Fore
SplineSet
159 374 m 1x00100080
 162 373 161 371 162 370 c 1
 158 371 159 373 159 374 c 1x00100080
135 295 m 0
 131 296 134 299 134 302 c 1
 137 301 137 298 135 295 c 0
132 516 m 1
 130 517 129 518 129 520 c 1
 132 520 131 519 132 516 c 1
131 503 m 1
 131 502 l 1
 128 502 127 504 131 503 c 1
126 491 m 1
 126 488 121 490 126 491 c 1
130 219 m 1
 131 224 132 223 133 224 c 1
 133 219 133 220 130 219 c 1
186 216 m 1x040081
 185 209 184 212 181 211 c 1
 182 218 183 215 186 216 c 1x040081
281 178 m 1
 278 162 273 183 281 178 c 1
42 139 m 1
 41 144 42 142 43 145 c 1
 44 140 43 142 42 139 c 1
50 146 m 1
 51 147 l 1
 52 144 53 141 50 146 c 1
59 143 m 1
 60 144 62 136 59 143 c 1
303 477 m 1
 295 477 302 474 303 477 c 1
 327 442 307 401 304 357 c 0
 303 332 309 311 285 306 c 1
 288 307 276 311 279 304 c 1
 297 301 280 282 285 277 c 0
 288 274 295 281 296 276 c 0
 296 272 290 272 289 268 c 0x80200080
 289 255 295 228 280 213 c 1
 272 218 300 241 270 246 c 1
 267 208 l 1
 275 205 283 204 291 204 c 1
 292 199 l 1
 285 198 284 190 277 197 c 1
 277 190 276 190 273 187 c 1
 276 184 274 182 275 179 c 1x00520880
 270 180 271 183 271 186 c 1
 270 186 l 2
 267 186 265 185 264 183 c 0x008080
 264 180 263 180 263 177 c 1
 269 177 270 187 275 172 c 1
 271 169 266 169 262 168 c 0
 259 157 259 148 258 139 c 0
 257 132 250 128 249 121 c 0
 249 110 255 102 255 91 c 0
 255 44 233 3 222 -46 c 1
 217 -45 l 1x000d
 220 -30 211 -23 222 -12 c 1
 202 -4 226 17 207 25 c 1
 202 12 217 4 198 1 c 1
 195 14 202 34 194 41 c 1
 198 38 189 30 188 37 c 1
 197 49 189 63 190 76 c 0
 190 91 193 102 196 115 c 0
 197 124 197 133 197 144 c 1
 196 144 l 2x00100080
 187 141 179 142 172 146 c 1x00800040
 180 141 174 161 171 147 c 1
 159 143 148 153 133 149 c 0x008001
 130 148 127 145 124 145 c 0
 113 142 102 146 91 147 c 0x00800040
 80 148 71 147 66 139 c 1
 65 144 64 151 60 148 c 0
 59 148 58 146 59 143 c 1
 57 143 l 1
 56 151 54 152 53 152 c 1
 54 144 54 143 57 143 c 1
 57 135 58 135 55 138 c 2
 51 147 l 2
 50 150 50 150 50 146 c 1
 49 149 46 150 43 148 c 0x010004
 40 147 40 145 37 148 c 0
 36 149 36 149 36 150 c 2
 36 153 l 2
 35 154 35 156 35 158 c 0
 31 161 30 154 27 155 c 0x410002
 24 156 24 162 21 163 c 0
 18 166 18 159 15 166 c 0
 16 167 17 170 17 177 c 0
 18 182 17 187 20 190 c 0
 24 194 30 191 37 194 c 1
 40 187 40 195 37 194 c 1
 40 205 46 212 55 215 c 1
 54 216 54 217 54 218 c 1
 55 215 46 212 49 217 c 0
 58 224 56 234 59 242 c 0
 62 250 67 257 71 265 c 0
 75 274 78 285 81 296 c 0
 81 298 82 301 83 305 c 2x340002
 86 312 l 2
 89 319 91 323 94 326 c 1
 86 318 102 318 94 326 c 1
 97 342 105 358 108 377 c 0
 109 381 107 386 108 391 c 2
 119 439 l 2
 123 454 125 469 121 480 c 1
 125 481 130 480 129 487 c 0
 129 489 128 490 126 491 c 2
 126 495 l 1
 133 492 133 494 134 497 c 0
 127 500 127 498 126 495 c 0
 116 498 129 502 131 502 c 0
 135 502 134 503 131 503 c 1
 134 505 135 509 134 514 c 0
 134 518 133 521 136 524 c 1
 136 523 136 523 137 523 c 2
 140 523 l 1
 143 523 l 1x0202
 146 528 141 532 144 536 c 0
 145 539 148 537 151 540 c 0
 154 543 149 546 154 546 c 1
 154 539 166 535 169 528 c 0
 170 521 166 513 167 504 c 1
 162 503 167 501 167 504 c 1
 175 494 178 481 176 464 c 0
 173 449 170 434 169 419 c 0
 166 400 171 387 154 384 c 1
 157 384 149 388 150 383 c 1
 161 380 150 367 153 364 c 0
 154 361 159 366 160 362 c 0
 160 359 155 360 155 357 c 0
 154 352 154 345 154 338 c 0
 153 329 149 323 144 318 c 1x020410
 141 321 144 325 147 330 c 0
 150 335 151 339 140 342 c 1
 137 330 134 316 130 303 c 2
 127 294 l 1
 123 285 l 2
 120 278 120 274 117 269 c 0
 114 265 109 262 108 258 c 0
 105 251 108 244 105 237 c 2
 97 220 l 1
 110 223 121 232 124 209 c 1
 124 212 122 201 125 204 c 0
 125 221 136 209 138 214 c 0
 141 217 136 221 139 224 c 0
 142 224 140 218 143 218 c 0
 150 219 162 230 170 217 c 1
 167 207 157 232 154 203 c 1x000820
 173 206 190 205 203 205 c 1x000840
 206 211 l 1
 205 209 205 207 205 205 c 1
 206 205 207 204 208 203 c 0
 211 204 215 208 207 213 c 1x000810
 206 237 219 263 220 291 c 0
 220 298 217 304 218 311 c 0
 221 359 245 412 234 445 c 1
 241 446 247 444 246 455 c 0
 246 458 247 460 242 461 c 1
 243 467 l 1
 252 464 253 467 254 471 c 1
 246 474 244 470 243 467 c 1
 228 472 247 477 250 477 c 0
 257 477 253 479 250 480 c 1
 262 483 253 507 261 510 c 0
 262 510 271 507 271 508 c 0
 275 515 270 522 274 527 c 0
 277 531 282 528 285 531 c 0
 288 534 284 540 292 539 c 1
 289 531 305 521 308 510 c 0x004020
 309 501 302 490 303 477 c 1
298 287 m 1
 293 288 294 290 293 293 c 1
 298 292 297 290 298 287 c 1
201 -14 m 1
 185 -6 210 3 201 -14 c 1
254 499 m 1
 249 500 250 503 249 506 c 1
 254 505 253 502 254 499 c 1
250 480 m 1
 250 477 l 1
 247 478 245 480 250 480 c 1
242 461 m 1
 242 458 234 461 242 461 c 1
EndSplineSet
EndChar

StartChar: two
Encoding: 50 50 9
Width: 328
Flags: MW
HStem: 2 10 23 13 36 19 71 14 73 8 80 7 420 7 423 12<82 95> 468 74
VStem: 17 35<378.5 393> 32 16 67 8 82 13<423 435 423 435> 115 7 127 28<73.5 83> 239 17 244 7
LayerCount: 2
Fore
SplineSet
263 453 m 1x92aa80
 267 454 267 448 270 444 c 1
 265 443 266 449 263 453 c 1x92aa80
225 279 m 1
 220 283 224 288 227 292 c 1
 232 289 228 284 225 279 c 1
76 394 m 1
 71 395 73 398 73 401 c 1
 77 398 75 397 76 394 c 1
81 420 m 1
 82 423 l 2
 85 422 86 417 81 420 c 1
95 435 m 1
 98 438 102 431 95 435 c 1
210 82 m 0
 231 90 252 78 275 75 c 1
 275 71 l 1
 268 71 266 63 259 71 c 1x0404
 259 53 248 67 245 52 c 1
 250 49 253 64 256 48 c 1x0108
 251 43 242 46 239 38 c 1
 240 41 245 36 242 33 c 1
 235 40 230 31 225 28 c 0
 218 25 215 28 208 27 c 0
 196 24 181 12 166 19 c 1
 173 17 168 33 165 19 c 1
 154 14 142 21 130 16 c 0
 127 15 125 12 122 11 c 0x92aa80
 111 8 99 10 88 11 c 0
 77 11 68 11 61 4 c 1
 60 9 60 16 56 13 c 0x1001
 55 12 53 12 54 8 c 1
 51 8 l 1
 51 16 50 17 49 17 c 1
 49 9 50 9 51 8 c 0
 51 -6 47 10 47 12 c 0
 46 19 45 15 46 12 c 1x2001
 45 15 42 16 39 15 c 0
 36 14 36 12 33 16 c 2
 32 25 l 2
 29 28 27 22 24 23 c 0
 23 24 23 29 20 32 c 0
 19 35 17 29 16 36 c 1
 19 36 19 52 24 56 c 0
 28 59 33 55 40 58 c 1
 41 51 41 58 40 58 c 1
 43 66 48 70 52 73 c 1
 49 82 63 85 58 76 c 1
 61 76 63 76 64 77 c 2
 72 77 l 1
 73 89 88 104 79 115 c 1
 68 102 78 86 59 89 c 1
 63 106 79 128 75 139 c 1
 76 134 64 127 67 135 c 1
 82 148 82 167 89 183 c 0
 96 199 107 212 116 228 c 0
 121 236 125 244 130 255 c 2
 136 270 l 2
 139 274 141 279 143 286 c 0
 154 305 163 322 175 337 c 1
 168 330 172 328 175 328 c 0
 178 328 183 332 176 339 c 1
 181 354 187 366 192 379 c 0
 197 394 200 407 196 420 c 0
 195 427 190 431 187 436 c 0x4829
 184 445 179 453 173 459 c 0
 170 462 167 464 164 465 c 0
 160 467 156 468 152 468 c 0
 143 469 134 466 125 461 c 0
 122 460 122 460 119 457 c 2
 116 455 l 2
 116 454 115 453 114 453 c 2x0810
 109 443 l 2
 106 444 105 446 102 447 c 0
 99 447 96 445 95 442 c 0
 93 439 93 436 95 435 c 0
 94 432 93 433 92 430 c 1
 85 437 83 434 80 431 c 1
 87 424 89 427 92 430 c 1
 97 425 98 423 93 423 c 2
 82 423 l 2
 77 426 78 423 81 420 c 1
 74 420 72 413 71 406 c 0
 68 399 69 392 64 391 c 0
 63 390 55 393 54 393 c 0
 53 390 52 386 52 381 c 0
 52 376 51 373 50 370 c 0
 49 366 43 367 40 364 c 0
 37 360 42 354 35 353 c 1
 35 360 30 363 26 370 c 0
 22 377 17 382 17 390 c 0
 17 396 19 403 22 411 c 2
 31 436 l 1
 39 435 34 441 31 436 c 1
 29 449 31 463 37 476 c 0
 44 491 54 504 69 515 c 0x0288
 72 516 74 518 75 519 c 0
 76 519 77 520 78 521 c 0
 79 521 80 522 81 522 c 2
 84 524 l 1
 86 525 l 1
 92 528 l 2
 101 532 110 535 119 538 c 0
 140 543 160 544 181 539 c 0
 194 537 205 533 215 527 c 0
 224 522 232 515 239 507 c 0
 252 492 254 479 247 467 c 1
 248 470 236 469 244 461 c 1
 251 464 255 456 258 447 c 0
 261 436 260 427 263 423 c 0
 264 422 265 423 268 426 c 0
 271 429 272 428 273 424 c 0
 274 417 268 416 268 409 c 0
 269 397 271 381 268 365 c 0
 265 348 260 333 248 322 c 1x02c0
 244 327 252 335 257 346 c 0
 262 357 263 368 248 371 c 1
 244 344 233 318 221 295 c 0
 209 272 198 253 187 236 c 0
 183 228 173 224 169 217 c 0
 164 205 164 191 159 180 c 0
 146 153 131 128 112 103 c 0
 105 95 102 87 95 79 c 1
 104 83 110 89 115 70 c 1
 115 73 114 63 117 66 c 0
 117 82 127 71 127 76 c 0
 128 79 123 82 126 85 c 0
 129 86 129 80 130 81 c 0
 137 82 146 94 155 83 c 1
 155 74 140 94 143 68 c 1
 158 73 176 75 189 76 c 0
 193 76 196 71 199 72 c 0
 203 75 206 81 210 82 c 0
119 80 m 1
 119 84 121 82 122 85 c 1
 122 80 120 81 119 80 c 1
167 79 m 1
 166 84 169 83 170 84 c 1
 170 77 168 80 167 79 c 1
262 52 m 1
 259 39 255 57 262 52 c 1
37 7 m 1
 36 11 37 11 38 12 c 1
 39 7 37 8 37 7 c 1
46 12 m 1
 47 12 l 1
 47 9 46 7 46 12 c 1
54 8 m 1
 55 9 55 1 54 8 c 1
EndSplineSet
EndChar

StartChar: one
Encoding: 49 49 10
Width: 267
Flags: MW
HStem: 55 8<93.5 96 96 99> 95 7 452 10 512 9 522 12 532 11
VStem: 29 13<11 19 11 19> 32 12<6.5 7 7 7.5> 100 12<56 58 50 63> 108 7 109 15 115 13<443 443> 126 55 128 42 143 25 185 8 196 11<44.5 55> 202 8
LayerCount: 2
Fore
SplineSet
210 517 m 0x040040
 211 506 205 498 202 486 c 1
 195 486 202 483 202 486 c 1
 213 469 210 452 207 436 c 2
 205 424 l 1
 203 417 l 2
 203 414 202 413 202 410 c 0
 200 402 199 393 199 384 c 0x040040
 199 373 201 363 201 355 c 0
 200 351 198 348 197 345 c 0
 195 342 191 339 186 337 c 1
 189 338 178 342 181 335 c 1
 197 332 182 314 188 311 c 0
 191 308 196 315 197 310 c 0
 198 306 192 306 191 302 c 0
 191 295 193 288 193 277 c 0
 192 266 190 258 182 250 c 1
 178 253 182 259 185 266 c 0x2001
 188 273 187 278 174 281 c 1
 173 264 170 246 167 229 c 2
 164 217 l 1
 162 211 l 2
 162 210 161 208 160 205 c 2
 157 194 l 1
 154 185 l 2
 153 178 146 176 145 169 c 0
 144 161 148 152 147 143 c 0x4004
 146 124 141 105 134 86 c 0
 130 75 127 64 124 53 c 1
 132 54 139 55 146 55 c 0
 149 55 150 51 153 52 c 0
 156 53 158 58 161 59 c 0x8021
 176 64 191 56 207 55 c 1
 207 52 l 1
 202 51 201 46 196 51 c 1
 196 38 186 48 186 37 c 1
 191 36 192 45 195 34 c 1
 191 31 185 34 182 27 c 1
 183 30 187 24 184 23 c 0
 179 27 176 22 172 19 c 0
 167 18 163 19 159 19 c 0
 148 18 138 7 127 14 c 1
 133 8 127 26 127 14 c 1
 119 11 110 16 101 13 c 0
 98 12 98 10 95 9 c 0
 80 6 61 15 52 4 c 1
 51 7 51 13 48 10 c 0
 47 10 46 9 46 7 c 1
 44 7 l 1
 44 14 43 13 42 13 c 1
 42 9 43 7 44 7 c 1
 44 -4 41 7 41 10 c 0
 40 13 40 13 40 10 c 1
 37 17 32 8 29 13 c 2
 29 19 l 2
 26 22 26 16 23 19 c 0
 22 20 22 23 21 26 c 0
 20 27 18 24 18 29 c 1
 21 29 22 40 25 43 c 0
 28 46 32 42 36 43 c 1
 37 38 37 44 36 43 c 1
 44 65 60 54 74 59 c 0
 82 62 88 68 91 53 c 1
 91 54 89 46 92 49 c 0
 92 53 93 55 94 55 c 1
 93 57 94 59 95 60 c 0
 95 63 96 62 96 63 c 1
 96 61 l 1
 99 61 100 59 99 55 c 1
 100 56 l 2
 101 59 97 62 100 63 c 0
 101 64 102 60 103 60 c 0
 106 60 106 62 109 63 c 2
 109 71 l 2
 109 78 110 84 102 87 c 1
 97 76 112 68 95 65 c 1
 92 77 98 95 91 102 c 1
 94 99 86 91 85 98 c 1
 93 110 87 123 88 135 c 0
 89 147 94 158 97 170 c 0
 100 183 101 199 104 214 c 2
 106 225 l 1
 106 227 l 1
 107 230 l 2
 107 233 108 232 108 235 c 0
 111 242 112 246 116 253 c 1
 111 241 128 247 117 255 c 1xc281
 117 266 120 275 123 286 c 0
 126 297 129 309 128 321 c 0
 128 326 126 331 126 338 c 2
 126 345 l 1
 126 353 l 1
 128 370 l 2
 129 381 130 393 133 404 c 2x4008
 136 421 l 1
 137 429 l 2
 138 430 138 433 138 436 c 2
 139 443 l 1
 139 451 l 1
 139 456 l 1
 133 454 l 2x2010
 129 451 125 450 128 442 c 1
 125 447 121 452 121 449 c 2
 121 448 l 2
 121 447 122 446 123 445 c 2
 123 444 l 1
 118 451 117 451 116 451 c 1
 120 446 122 444 123 444 c 0
 125 441 126 439 126 439 c 1
 126 439 120 445 118 447 c 0
 115 451 115 449 118 446 c 1
 111 454 115 442 110 447 c 0
 110 448 104 454 104 455 c 0
 101 456 105 451 102 452 c 0
 99 453 97 458 94 459 c 0
 91 462 95 455 90 462 c 1
 93 462 82 476 81 480 c 0
 81 483 86 481 86 484 c 1
 91 479 87 485 86 484 c 1
 79 497 81 503 84 506 c 0
 87 509 91 510 94 514 c 0x3020
 97 519 96 528 109 512 c 1
 106 515 113 505 112 508 c 0
 103 522 113 515 111 519 c 0
 110 522 105 525 105 528 c 0
 106 529 109 524 110 524 c 1
 110 527 109 540 119 530 c 0
 122 522 106 538 122 515 c 1x0840
 126 522 133 526 137 530 c 0
 138 530 142 526 143 527 c 0
 144 530 142 535 143 538 c 0
 148 549 161 540 172 543 c 1
 174 538 l 1
 171 537 173 528 168 535 c 1
 176 520 166 530 171 517 c 0
 172 517 172 517 173 516 c 1
 173 519 172 523 177 516 c 1
 177 517 l 2
 176 518 175 520 178 519 c 1x0402
 179 523 176 528 179 532 c 0
 182 535 186 532 189 535 c 0
 192 538 187 542 194 542 c 1x0401
 194 538 198 535 201 530 c 0
 205 526 209 522 210 517 c 0x040040
114 51 m 0x0820
 115 52 116 53 117 56 c 1
 115 56 113 57 112 58 c 1
 112 57 111 54 112 50 c 1
 112 50 113 50 114 51 c 0x0820
144 464 m 1
 147 465 149 467 149 469 c 1
 146 469 145 468 145 465 c 1
 144 465 144 465 144 464 c 1
198 320 m 1
 194 321 195 323 194 326 c 1
 199 325 197 323 198 320 c 1
172 228 m 1
 177 225 175 222 175 219 c 1
 168 222 172 225 172 228 c 1
104 526 m 1
 107 522 105 523 105 522 c 1
 102 526 104 525 104 526 c 1
126 529 m 1
 123 534 125 533 125 534 c 1
 128 529 126 530 126 529 c 1
117 440 m 1
 116 442 115 443 115 443 c 1
 115 443 115 443 115 444 c 1
 118 441 117 441 117 440 c 1
118 446 m 2
 118 447 l 1
 121 444 121 442 118 446 c 2
130 58 m 1
 130 62 131 61 132 61 c 1
 132 57 131 58 130 58 c 1
199 38 m 1
 199 27 193 41 199 38 c 1
33 10 m 1
 33 6 32 7 32 6 c 1
 32 9 33 9 33 10 c 1
40 10 m 1
 41 10 l 1
 41 7 40 6 40 10 c 1
46 7 m 1
 47 7 47 2 46 7 c 1
EndSplineSet
EndChar

StartChar: three
Encoding: 51 51 11
Width: 369
Flags: MW
HStem: 2 67<114.5 143.5> 111 9<53 53> 140 9<319 319> 161 8 293 8 308 48<173.5 199> 494 9 499 14 502 14 527 9 538 9
VStem: 21 10 52 8 117 11<488 489.5> 121 10 186 8<291 291 291 292> 192 12<539 541.5> 220 9 239 71<149 160> 281 13 296 26
LayerCount: 2
Fore
SplineSet
186 543 m 1x200020
 186 546 187 545 188 546 c 1
 188 544 187 543 186 543 c 1x200020
227 541 m 1
 227 537 225 538 224 538 c 1
 224 542 226 541 227 541 c 1
298 516 m 1
 298 504 291 518 298 516 c 1
122 486 m 1
 122 483 121 483 121 482 c 1
 120 486 121 485 122 486 c 1
127 488 m 1
 128 488 l 2
 129 485 128 484 127 488 c 1
134 485 m 1
 135 486 135 480 134 485 c 1
236 394 m 1
 240 391 238 390 238 389 c 1
 235 392 236 391 236 394 c 1
123 297 m 1
 110 305 133 303 123 297 c 1
321 148 m 2
 321 147 l 1
 322 147 322 147 322 146 c 0
 322 145 321 143 320 142 c 0
 320 141 320 140 319 140 c 2
 318 139 l 2
 315 136 314 136 313 133 c 0
 310 122 310 110 305 95 c 0
 300 82 292 69 277 64 c 1
 274 69 283 75 290 83 c 0
 297 90 300 100 285 107 c 1
 277 84 262 65 245 48 c 0
 227 32 208 21 187 14 c 0
 185 13 182 13 179 13 c 0
 176 13 174 13 172 14 c 0
 168 14 164 15 160 14 c 0
 155 13 150 10 143 7 c 0
 136 4 130 2 123 2 c 0x590b10
 106 2 88 5 72 16 c 0
 55 27 43 40 36 57 c 0
 28 72 25 89 22 104 c 0x002010
 21 120 21 135 21 150 c 1x200020
 27 150 l 1
 27 141 29 136 32 129 c 0
 33 122 34 118 31 110 c 1
 42 109 44 102 48 94 c 0
 51 86 54 78 65 81 c 1
 62 88 58 91 55 95 c 0
 52 98 53 102 60 107 c 1
 72 88 l 2
 77 81 81 78 86 79 c 1
 83 79 83 81 84 84 c 0
 84 87 85 89 88 86 c 0
 88 80 91 76 98 75 c 0
 103 72 108 74 112 73 c 0
 117 73 121 71 126 70 c 0
 131 69 136 68 141 69 c 0
 146 69 152 71 160 74 c 0
 161 74 162 75 163 75 c 2
 164 76 l 1
 165 76 l 2
 166 77 168 78 169 78 c 2
 176 84 l 2
 187 91 196 99 208 106 c 1
 205 104 204 102 204 101 c 0
 204 100 205 99 207 98 c 0
 210 97 214 98 210 106 c 1
 215 115 221 123 228 132 c 0xa01008
 231 137 234 141 236 146 c 0
 238 151 239 155 239 160 c 0
 238 167 235 172 234 177 c 2
 231 209 l 2
 230 222 228 233 225 242 c 0
 222 253 218 262 213 270 c 2
 208 276 l 2
 208 277 207 278 206 278 c 1
 206 279 206 279 205 279 c 0
 202 280 200 281 197 281 c 1
 199 283 201 285 202 288 c 0
 203 291 203 292 200 293 c 0
 198 295 196 294 194 291 c 1
 191 293 l 1
 196 301 196 303 193 304 c 0
 188 296 188 294 191 293 c 1
 186 286 185 287 186 290 c 0
 186 294 187 298 187 301 c 0
 190 308 188 305 185 302 c 1
 186 307 183 309 176 308 c 0
 171 308 169 308 168 309 c 1
 160 301 l 2
 153 295 147 287 140 276 c 1
 136 278 l 1
 139 285 131 289 142 292 c 1
 134 297 134 300 135 303 c 0
 136 306 138 309 131 314 c 1
 127 310 136 300 121 305 c 1
 120 313 128 320 121 327 c 1
 124 324 115 323 116 326 c 0
 119 327 121 330 122 335 c 0
 122 340 122 344 123 347 c 0
 126 354 131 357 134 362 c 0
 135 365 136 364 137 367 c 0
 137 368 138 369 138 370 c 0
 138 371 139 371 139 372 c 2
 139 375 l 1
 140 377 l 2
 141 380 142 382 142 383 c 0
 145 392 150 398 156 401 c 1
 151 396 167 391 157 401 c 1
 161 412 175 418 180 431 c 2
 182 441 l 1
 189 452 198 459 207 467 c 0x840b20
 215 474 220 481 223 488 c 1
 221 488 219 489 218 490 c 1
 223 485 221 501 218 490 c 1
 209 487 201 494 190 491 c 0
 187 490 186 488 183 488 c 0
 175 485 166 488 158 489 c 0
 149 489 143 487 140 482 c 1
 139 486 138 492 135 489 c 0
 134 489 134 488 134 485 c 1
 132 485 l 1
 132 492 130 491 129 492 c 1
 130 487 131 485 132 485 c 0
 133 474 129 485 128 488 c 0
 127 491 127 491 127 488 c 1
 126 490 125 490 122 489 c 0
 120 488 118 488 117 489 c 0
 117 490 116 496 115 496 c 0
 112 499 112 493 109 494 c 0
 108 495 108 498 105 501 c 0
 104 502 104 498 101 503 c 1x0a02
 104 504 102 517 106 520 c 0
 109 523 114 520 118 523 c 1
 121 518 119 524 118 523 c 1
 121 535 129 538 137 541 c 0
 145 542 154 540 162 543 c 0
 171 546 179 552 182 535 c 1
 181 538 180 529 183 532 c 0
 183 544 189 535 192 539 c 0
 193 542 189 545 192 546 c 0
 195 547 194 542 195 542 c 0
 200 543 208 553 215 542 c 1
 215 534 204 552 204 531 c 1
 217 534 231 533 242 534 c 0
 245 534 245 529 248 530 c 0
 252 531 255 536 258 537 c 0
 265 540 273 539 280 538 c 0
 288 535 296 533 304 536 c 1
 305 532 l 1
 300 531 299 523 294 530 c 1
 294 523 293 522 290 521 c 0
 287 520 285 520 285 513 c 1
 290 512 290 523 294 511 c 1
 290 507 282 509 281 502 c 1
 281 505 286 501 283 498 c 1
 282 499 280 500 278 499 c 1
 279 499 280 498 281 497 c 0
 284 496 283 501 287 496 c 1
 283 493 291 478 288 473 c 0
 287 469 280 471 277 464 c 1
 272 469 276 463 277 464 c 1x022480
 281 449 278 442 273 435 c 0
 266 428 259 424 254 415 c 0
 249 404 251 393 232 404 c 1
 235 403 227 410 227 406 c 0
 238 395 225 396 228 391 c 0
 229 388 236 388 235 385 c 0x004090
 235 382 230 388 229 385 c 0
 226 378 229 364 214 365 c 1
 209 373 233 369 211 385 c 1
 207 374 202 366 195 357 c 1
 197 357 198 357 199 356 c 1
 199 348 204 356 199 356 c 1x010010
 203 358 l 1
 203 359 l 1
 204 359 204 359 204 358 c 1
 214 361 225 360 238 356 c 0
 252 351 264 341 274 327 c 0
 275 326 276 325 277 322 c 0
 280 319 279 320 280 317 c 0
 283 314 282 312 285 309 c 2
 293 290 l 2
 300 277 303 264 308 252 c 0
 315 237 320 223 321 212 c 0
 323 199 318 189 307 184 c 1
 310 185 298 188 302 180 c 1
 309 180 312 175 311 166 c 0
 311 162 310 159 310 155 c 2
 310 151 l 1
 310 149 l 1
 310 149 310 148 311 147 c 0
 311 146 312 146 313 146 c 0
 314 147 314 147 315 147 c 2
 316 148 l 1
 317 148 l 2
 318 149 319 149 320 149 c 2
 320 149 320 149 321 148 c 2
318 169 m 1
 325 169 322 165 323 161 c 1
 318 162 319 166 318 169 c 1
244 31 m 1
 240 38 246 40 249 43 c 1
 253 38 247 35 244 31 c 1
58 112 m 0
 57 111 55 110 53 111 c 0
 52 112 51 115 52 120 c 1
 59 118 61 115 58 112 c 0
170 300 m 1
 171 305 171 304 174 305 c 1
 173 300 171 301 170 300 c 1
185 302 m 1
 187 301 l 2
 186 298 182 295 185 302 c 1
194 291 m 1
 197 290 190 284 194 291 c 1
EndSplineSet
EndChar

StartChar: six
Encoding: 54 54 12
Width: 354
Flags: MW
HStem: 15 47 246 7 276 60 494 9
VStem: 12 45 102 9<266 266> 190 17<497 500> 248 43 301 8
LayerCount: 2
Fore
SplineSet
307 218 m 0
 310 213 304 212 305 205 c 0
 306 194 309 181 309 166 c 0
 308 151 305 135 294 123 c 1
 291 127 298 136 301 147 c 0
 304 158 304 168 291 169 c 1
 291 143 284 118 271 93 c 0
 256 69 237 52 220 40 c 0
 211 35 201 35 193 31 c 0
 186 28 182 24 175 20 c 0
 168 17 163 13 155 12 c 0
 138 8 120 9 101 15 c 0
 93 17 84 21 75 28 c 0
 67 34 60 41 54 49 c 0
 47 57 44 66 41 74 c 0
 38 83 36 91 35 100 c 0
 27 115 25 130 22 145 c 0
 18 162 15 181 12 202 c 0
 10 221 12 239 17 257 c 1
 15 250 16 247 19 249 c 0
 22 252 23 256 18 260 c 1
 19 275 23 288 28 303 c 2
 46 348 l 2
 49 356 50 364 53 371 c 0
 60 383 68 396 77 408 c 2
 92 424 l 2
 97 431 102 435 107 440 c 0
 130 460 151 473 164 488 c 0
 167 487 167 485 170 484 c 0xba80
 171 484 173 484 174 485 c 0xc9
 175 485 177 486 180 488 c 0
 183 491 185 491 184 494 c 2
 190 497 l 1
 193 490 196 492 199 493 c 0
 198 498 195 500 190 497 c 1
 189 502 191 504 196 503 c 2
 204 499 l 2
 207 496 208 499 207 500 c 1
 211 497 217 502 224 505 c 0x21
 231 508 236 513 239 510 c 0
 240 510 241 503 242 503 c 0
 249 504 253 511 260 512 c 0
 264 513 265 509 269 509 c 0
 272 509 275 515 278 511 c 1
 274 508 273 503 270 498 c 0
 267 493 266 487 261 484 c 0
 253 477 239 476 227 469 c 1
 223 473 223 466 227 469 c 1
 222 462 215 455 207 448 c 0
 200 443 192 438 183 431 c 0
 166 420 148 408 135 391 c 0
 128 382 123 371 118 364 c 0
 112 356 105 352 98 352 c 1
 101 352 96 359 93 352 c 1
 97 349 97 345 94 339 c 0
 91 332 87 328 88 325 c 0
 89 322 95 327 95 323 c 1
 96 324 97 325 98 325 c 0
 101 326 102 327 103 328 c 0
 107 329 110 331 113 332 c 0
 120 335 128 335 135 336 c 0
 152 338 168 338 183 335 c 0
 191 334 198 333 206 330 c 2
 218 327 l 2
 221 326 225 325 230 322 c 0
 251 315 266 304 276 291 c 0
 287 278 289 267 284 256 c 1
 285 259 274 258 281 251 c 1
 288 254 291 246 294 238 c 0
 297 229 296 220 299 217 c 0
 300 216 301 217 303 219 c 0
 305 221 306 221 307 218 c 0
68 295 m 1
 69 296 l 1
 68 295 68 295 68 295 c 1
67 291 m 2
 67 290 l 2
 70 289 71 290 71 291 c 0
 70 292 69 292 67 291 c 2
245 169 m 0
 248 184 249 197 245 212 c 0x56
 242 219 239 224 236 229 c 0
 231 240 226 248 219 255 c 0
 215 259 211 262 207 264 c 0
 205 265 203 267 200 268 c 0xba80
 199 268 199 269 196 269 c 2
 192 271 l 2
 179 275 168 277 158 276 c 0
 147 276 138 273 131 268 c 1x2080
 128 272 128 278 119 274 c 0
 116 273 114 271 115 268 c 2
 115 268 114 267 111 266 c 1
 110 271 107 273 103 272 c 1x83
 107 265 108 266 111 266 c 0
 114 259 112 260 109 261 c 0
 106 264 103 265 102 266 c 0
 99 269 98 266 101 265 c 1
 97 266 94 263 91 257 c 0
 88 250 86 247 85 246 c 0
 84 246 77 249 77 248 c 0
 75 246 74 243 74 238 c 2
 72 227 l 2
 69 223 66 224 63 221 c 0
 60 218 64 211 57 211 c 1
 57 214 l 1
 57 203 57 195 58 187 c 0
 58 179 53 173 56 166 c 0
 59 157 65 148 68 140 c 0
 76 119 83 100 96 84 c 0
 103 76 108 68 119 63 c 1
 119 62 l 1
 124 62 l 1
 143 62 l 2
 149 62 156 63 163 65 c 0
 178 69 192 80 204 93 c 0
 211 100 215 105 220 112 c 2
 227 121 l 2
 230 125 231 128 234 131 c 1
 231 128 230 125 230 123 c 0
 231 122 232 121 233 121 c 0
 236 122 239 126 234 131 c 1
 238 143 242 154 245 169 c 0
297 243 m 1
 301 244 301 239 304 235 c 1
 300 235 300 240 297 243 c 1
271 77 m 1
 268 81 272 86 275 90 c 1
 279 87 274 82 271 77 c 1
94 248 m 1
 90 249 92 252 92 253 c 1
 96 252 94 251 94 248 c 1
101 265 m 1
 102 265 102 265 102 266 c 1
 105 263 104 261 101 265 c 1
115 268 m 1
 118 269 119 263 115 268 c 1
99 339 m 1
 102 336 100 335 100 332 c 1
 96 335 99 336 99 339 c 1
227 509 m 1
 224 512 228 513 231 514 c 1
 232 511 228 510 227 509 c 1
207 500 m 1
 204 499 l 1
 203 502 204 504 207 500 c 1
184 494 m 1
 181 491 180 498 184 494 c 1
EndSplineSet
EndChar

StartChar: eight
Encoding: 56 56 13
Width: 340
Flags: MW
HStem: -14 21G<150 150.5> -9 21G -5 21G<172 185> 0 21G 0 52<132 132> 198 14<219 219> 355 21<82 98 82 93 82 93> 387 8 401 12 416 20<228 230> 484 41
VStem: 60 41<430 432 432 433 433 435 427.5 437 427.5 439> 141 26 175 11 223 9 227 57<100 157.5 410 412> 227 64<122.5 157.5>
LayerCount: 2
Fore
SplineSet
283 214 m 0x0132
 290 202 294 188 295 172 c 0
 298 156 295 140 291 124 c 0
 291 121 290 121 290 118 c 2
 288 112 l 2
 287 107 285 103 284 100 c 2
 274 77 l 2
 266 60 257 46 246 35 c 0
 235 25 224 22 214 27 c 1
 217 26 215 36 208 28 c 1
 211 23 208 18 199 13 c 0
 192 9 184 7 181 4 c 0
 179 0 192 -3 185 -5 c 0
 181 -8 177 -2 172 -5 c 0x200080
 167 -8 162 -9 155 -12 c 0
 152 -13 151 -14 150 -14 c 0
 147 -15 145 -16 144 -16 c 2
 132 -19 l 2
 124 -20 115 -22 107 -19 c 0x8008
 99 -18 91 -15 83 -9 c 1
 84 -8 88 -8 94 -10 c 0
 99 -11 104 -13 111 -14 c 0
 118 -15 123 -15 127 -13 c 0x4010
 132 -11 133 -7 132 0 c 1
 118 -2 104 -2 91 1 c 0
 76 4 63 9 51 18 c 0
 39 26 29 36 22 49 c 0
 15 61 12 74 9 85 c 0
 8 92 9 96 10 101 c 0
 11 106 13 110 13 115 c 0
 13 122 12 128 12 135 c 0
 11 143 11 150 13 156 c 0
 17 173 23 188 31 202 c 2
 45 222 l 2
 48 225 49 229 52 232 c 2
 55 236 l 1
 61 244 l 1
 66 249 l 1
 68 250 l 1
 69 251 l 1
 71 252 l 1
 74 255 l 2
 78 260 84 265 89 269 c 0
 96 276 104 286 113 294 c 0
 121 302 131 308 142 311 c 1
 129 308 145 299 142 311 c 1
 143 311 l 1
 129 325 l 2
 118 334 110 342 99 346 c 0
 100 349 103 351 98 355 c 0
 97 355 96 358 93 355 c 1
 91 358 l 1
 93 359 94 360 94 362 c 2
 92 364 l 1
 89 361 89 359 91 358 c 1
 83 353 88 362 88 365 c 0
 91 368 88 367 87 366 c 1
 88 369 87 369 87 370 c 2
 84 374 l 1
 82 376 l 2
 79 379 77 381 78 384 c 0
 77 387 75 388 74 391 c 0
 69 398 66 406 64 414 c 0
 62 419 61 424 61 429 c 2
 60 430 l 1
 60 433 l 1
 60 437 l 2
 60 441 60 444 61 445 c 0x0a10
 62 456 65 465 70 473 c 0
 71 476 74 480 78 485 c 2
 84 490 l 2
 85 493 87 493 88 494 c 1
 85 491 l 2
 82 488 83 488 82 487 c 0
 82 486 83 485 84 485 c 0
 85 485 87 486 88 488 c 0
 89 489 90 492 90 495 c 0
 99 506 113 512 126 515 c 0
 139 518 153 521 169 522 c 0
 176 523 182 525 189 525 c 0
 202 524 214 521 227 514 c 0
 242 507 253 499 261 489 c 0
 266 483 270 477 273 471 c 0
 277 466 278 461 281 454 c 2
 291 424 l 1
 287 421 283 423 284 412 c 0
 284 408 285 406 287 406 c 1
 287 403 286 403 286 400 c 1
 281 401 279 400 279 395 c 0
 282 394 285 395 286 400 c 1
 290 398 291 396 288 393 c 0
 285 390 282 390 281 389 c 0
 277 389 278 387 281 387 c 1
 277 384 276 379 275 372 c 0
 274 365 273 360 270 359 c 0
 269 360 269 360 268 360 c 0
 267 360 266 360 266 361 c 1
 264 358 l 1
 263 355 l 2
 262 352 261 351 261 350 c 2
 259 344 l 2
 258 344 258 343 257 343 c 2
 254 337 l 2
 245 318 236 304 221 312 c 1
 222 311 220 318 217 313 c 1
 220 310 219 307 214 304 c 1
 217 300 l 1
 218 301 218 301 218 302 c 1
 219 300 219 299 218 299 c 1
 221 295 222 291 222 288 c 1
 217 288 216 303 208 300 c 0
 207 299 206 298 206 298 c 2
 206 295 213 295 210 292 c 2
 209 292 l 1
 219 281 l 2
 225 280 229 278 232 276 c 0
 237 272 240 267 244 260 c 0
 248 253 251 247 256 240 c 1
 251 233 259 236 256 240 c 1
 267 234 276 225 283 214 c 0x0132
115 401 m 0
 126 389 138 376 153 361 c 2
 156 357 l 2
 159 356 160 354 163 353 c 2
 179 342 l 2
 182 338 183 335 183 334 c 1
 185 336 l 1
 192 344 l 2
 203 353 210 359 217 370 c 2
 221 378 l 2
 222 382 223 385 223 386 c 0x0092
 224 392 224 397 223 401 c 0
 226 402 231 401 230 406 c 0
 230 409 229 410 227 410 c 1
 227 413 l 1
 232 412 234 413 234 416 c 0
 231 417 228 416 227 413 c 0
 217 415 229 419 231 419 c 0
 235 419 234 421 231 421 c 1
 238 424 231 434 234 439 c 1
 231 448 l 2
 228 453 223 457 218 460 c 0
 211 464 206 464 199 467 c 0
 193 469 189 473 188 480 c 1
 188 477 193 485 186 484 c 1
 185 477 181 478 177 478 c 0
 172 479 168 479 167 478 c 0
 166 475 171 472 167 471 c 0
 164 470 164 475 161 474 c 0
 156 473 151 471 145 467 c 0
 138 464 132 462 127 463 c 0
 126 465 129 467 136 468 c 0
 140 469 144 470 141 481 c 1
 134 478 129 475 124 471 c 0
 121 468 119 468 116 465 c 2
 111 459 l 1x0079
 103 442 l 1
 101 435 l 1
 101 432 l 1
 101 429 l 2
 101 426 101 423 100 422 c 0
 100 419 99 417 100 416 c 0
 103 412 105 409 107 408 c 0
 111 405 114 403 115 401 c 0
87 202 m 1x0c0480
 87 203 l 1
 87 202 l 1x0c0480
227 153 m 0
 227 162 224 170 219 177 c 1
 223 178 225 180 226 181 c 0
 229 182 229 185 226 189 c 0
 225 192 223 194 220 193 c 1
 220 194 219 195 219 198 c 0
 224 199 226 201 226 205 c 2
 225 206 l 1
 220 205 218 202 219 198 c 1
 212 197 210 198 213 201 c 0
 214 204 218 207 219 210 c 0
 223 213 221 213 218 212 c 1
 220 217 218 222 212 228 c 0
 209 232 205 236 204 239 c 0
 200 246 196 252 193 259 c 1
 196 248 202 262 193 259 c 1
 188 263 185 268 181 275 c 0
 180 275 180 274 179 274 c 2
 177 274 l 2
 174 273 174 274 171 274 c 1
 171 275 172 276 174 277 c 0
 175 277 176 278 177 278 c 2
 178 278 l 1
 177 280 176 282 173 285 c 1
 173 284 l 1
 169 282 l 1
 154 272 l 2
 143 265 135 260 129 255 c 0
 126 252 121 254 118 251 c 0
 118 248 117 247 115 247 c 0
 112 243 113 238 110 235 c 0
 103 224 96 217 89 206 c 1
 92 209 98 210 95 205 c 0
 80 194 81 176 77 163 c 0
 72 148 65 137 62 124 c 0
 61 117 61 109 62 102 c 0
 63 95 66 89 69 84 c 0
 72 77 76 74 80 70 c 2
 93 57 l 1
 90 60 88 61 87 61 c 0
 86 60 85 59 85 58 c 0
 84 55 88 52 93 57 c 1
 102 54 112 52 124 52 c 2
 132 52 l 2
 135 52 138 53 141 53 c 0
 148 55 155 58 160 61 c 0
 167 65 170 71 175 74 c 0
 184 81 193 88 201 96 c 0
 210 105 217 114 220 123 c 0
 225 134 227 144 227 153 c 0
205 10 m 1
 208 6 203 5 200 2 c 1
 197 6 202 7 205 10 c 1
48 13 m 1x4242
 44 9 38 15 33 19 c 1
 38 22 43 16 48 13 c 1x4242
207 230 m 1
 204 227 203 231 200 232 c 1
 204 235 204 231 207 230 c 1
218 212 m 1
 219 210 l 1
 216 207 213 209 218 212 c 1
220 193 m 1
 213 189 223 190 220 193 c 1
175 471 m 1
 175 473 176 474 179 474 c 1x2010
 179 471 176 472 175 471 c 1
115 450 m 1x200080
 111 453 114 453 114 456 c 1
 117 453 115 453 115 450 c 1x200080
278 362 m 1
 275 363 277 365 276 368 c 1
 280 367 278 365 278 362 c 1
281 387 m 2
 281 389 l 1
 284 389 284 386 281 387 c 2
287 406 m 1
 287 409 292 407 287 406 c 1
156 269 m 1
 159 265 156 266 153 263 c 1
 150 267 153 266 156 269 c 1
228 436 m 1
 232 436 231 434 232 433 c 1
 229 433 229 435 228 436 c 1
231 419 m 1
 231 421 l 1
 228 421 228 419 231 419 c 1
227 410 m 1
 222 410 227 407 227 410 c 1
75 378 m 1
 76 379 77 378 79 376 c 1
 78 375 77 376 75 378 c 1
87 366 m 1
 88 365 l 1
 87 364 84 363 87 366 c 1
93 355 m 1
 96 354 90 351 93 355 c 1
EndSplineSet
EndChar

StartChar: zero
Encoding: 48 48 14
Width: 421
Flags: MW
HStem: -20 7 -20 21G<151 154.5> -20 81 441 14 508 7
VStem: 16 62 78 7 219 7
LayerCount: 2
Fore
SplineSet
369 309 m 0x5d
 372 280 372 255 369 234 c 0
 366 212 358 198 345 191 c 1
 348 194 338 200 338 187 c 1
 347 184 345 172 340 160 c 0
 336 148 329 137 329 130 c 0
 329 124 342 138 339 126 c 0
 336 118 330 119 326 110 c 0
 319 95 311 75 298 55 c 0
 291 44 284 35 273 26 c 0
 262 18 252 11 240 7 c 1
 240 11 244 14 251 19 c 0
 259 24 266 29 272 35 c 0
 279 42 284 46 287 53 c 0
 289 60 287 65 282 70 c 1
 270 53 257 37 238 22 c 0
 219 9 198 -3 174 -7 c 0
 161 -9 149 -9 137 -7 c 0
 125 -5 114 -1 103 4 c 0
 92 11 83 17 75 24 c 0
 68 32 62 40 57 47 c 0
 52 54 49 62 47 71 c 0
 44 78 44 85 41 92 c 0
 37 103 33 111 28 122 c 0
 24 133 21 142 18 153 c 0
 14 178 13 204 16 229 c 0
 17 241 19 254 22 267 c 0
 23 274 25 278 26 285 c 0
 29 292 29 298 32 305 c 0
 40 332 53 356 70 378 c 0
 87 401 109 419 133 435 c 1
 136 430 l 1
 121 419 114 411 107 402 c 0
 100 394 93 386 81 378 c 1
 88 367 79 356 72 341 c 0
 65 326 61 312 69 304 c 1
 74 317 74 327 77 335 c 0
 80 343 83 348 94 348 c 1
 89 336 83 322 79 307 c 0x14
 75 292 74 281 78 274 c 1
 75 277 78 282 81 285 c 0
 84 288 86 290 85 283 c 0
 84 281 82 278 81 274 c 0
 80 269 79 265 79 264 c 0
 78 257 78 251 78 244 c 0
 78 232 80 219 81 207 c 0
 81 194 81 182 82 170 c 0
 82 156 83 144 86 133 c 0
 88 120 93 108 100 95 c 0
 107 84 115 75 124 68 c 0
 133 61 141 60 152 59 c 0
 159 58 170 59 183 61 c 1
 178 60 174 59 172 57 c 0
 170 56 170 55 172 53 c 0
 174 51 176 51 178 52 c 0
 181 53 183 56 183 61 c 1
 190 65 198 70 206 77 c 0
 214 84 223 90 230 99 c 0x22
 246 116 260 138 268 163 c 0
 272 174 272 187 275 199 c 0
 282 220 285 242 288 265 c 0
 291 288 292 309 289 332 c 0
 286 353 282 374 274 390 c 0
 267 407 258 419 247 424 c 0
 248 427 251 430 251 433 c 0
 251 436 248 440 243 443 c 0
 240 446 237 446 234 443 c 1
 233 444 232 445 229 446 c 1
 234 454 231 456 226 459 c 1
 225 455 224 452 225 450 c 0
 226 448 227 447 229 446 c 1
 224 439 224 441 221 444 c 0
 221 447 220 447 220 450 c 2
 220 452 l 1
 219 453 l 1
 218 454 l 1
 218 451 217 450 216 455 c 1
 219 455 l 1
 218 454 218 454 218 454 c 1
 219 454 l 1
 219 455 l 2
 219 462 217 458 216 455 c 1
 215 458 213 459 208 459 c 0
 203 459 199 458 194 456 c 0
 183 452 175 446 168 449 c 0
 167 449 165 459 164 459 c 0
 157 457 152 454 147 450 c 0
 142 447 138 444 131 441 c 0
 124 438 123 445 116 444 c 0
 114 443 111 441 108 438 c 0
 105 436 102 436 100 437 c 1
 107 444 110 451 115 460 c 0
 119 469 124 478 133 485 c 0
 141 492 152 495 164 499 c 0
 175 502 188 505 205 508 c 1
 208 504 210 505 210 506 c 0
 211 507 209 509 205 508 c 1
 210 511 213 511 220 514 c 0
 223 514 226 515 229 515 c 2
 230 515 l 1
 231 515 l 1
 232 515 l 1
 233 515 l 1
 238 515 l 2
 250 515 262 512 274 506 c 0
 285 501 295 493 305 484 c 0
 316 475 322 464 329 453 c 0
 344 430 350 407 357 383 c 0
 364 358 366 333 369 309 c 0x5d
348 164 m 1
 353 161 350 155 349 150 c 1
 344 153 348 159 348 164 c 1
151 -20 m 1x81
 151 -18 154 -16 160 -15 c 0
 163 -15 168 -14 175 -13 c 1
 174 -16 171 -18 166 -19 c 0x5d
 163 -20 158 -20 151 -20 c 1x81
95 361 m 0
 96 364 100 369 106 374 c 1
 109 365 102 359 98 358 c 0
 95 357 94 358 95 361 c 0
189 451 m 1
 190 446 185 446 182 443 c 1
 179 447 186 448 189 451 c 1
235 439 m 0
 234 439 233 440 234 443 c 1
 236 442 236 440 235 439 c 0
EndSplineSet
EndChar

StartChar: s
Encoding: 115 115 15
Width: 270
Flags: MW
HStem: -12 21G -8 43<86 101.5> 105 8 258 7 280 10<244 251 244 251> 358 50 389 20G<189.5 193>
VStem: 56 10 87 35 158 46<60 84.5> 183 16 211 27 224 44<348 349.5 346 354 346 354.5> 244 7<280 280>
LayerCount: 2
Fore
SplineSet
265 369 m 0x0288
 268 360 268 353 268 346 c 2
 265 329 l 2x0208
 262 318 261 309 260 302 c 0
 257 302 253 303 250 295 c 0
 250 292 250 290 251 290 c 1
 251 287 250 287 250 286 c 1
 245 289 244 288 243 285 c 0
 247 282 247 283 250 286 c 0
 253 284 253 282 251 281 c 0
 249 280 247 280 244 280 c 0
 241 281 241 278 244 278 c 1
 240 277 239 272 239 268 c 0
 239 262 238 259 237 258 c 0
 236 258 231 259 231 258 c 0x1010
 228 253 233 248 232 244 c 0
 231 241 229 241 226 238 c 0
 225 235 229 232 225 231 c 1
 224 235 221 237 218 240 c 0
 214 243 211 247 210 251 c 0x1008
 209 255 209 260 210 265 c 2
 213 282 l 1
 218 282 214 285 213 282 c 1x1010
 211 290 211 298 213 307 c 0
 213 308 213 309 214 310 c 2
 214 313 l 1
 216 318 l 1
 219 329 l 2
 222 336 224 342 224 348 c 0
 225 351 224 353 224 354 c 0
 224 355 224 355 223 355 c 2
 222 356 l 1
 222 356 220 357 216 358 c 0
 213 358 211 359 208 359 c 0
 203 362 199 363 196 370 c 1
 197 367 199 376 195 373 c 0
 194 369 192 367 187 367 c 0
 184 367 179 368 178 365 c 0
 177 364 183 361 180 360 c 0
 177 359 177 362 174 361 c 0
 170 360 166 355 162 352 c 0
 158 348 154 345 147 342 c 0
 144 345 150 346 154 349 c 0
 158 352 161 355 156 362 c 1x1408
 145 353 137 343 132 331 c 0
 125 320 123 309 122 298 c 0
 123 295 125 295 126 292 c 0
 127 287 128 282 128 278 c 0
 129 273 129 267 132 262 c 1
 128 259 135 259 132 262 c 1
 139 257 145 252 150 245 c 0
 157 238 160 231 165 222 c 0
 170 213 175 204 179 193 c 2
 183 186 l 1
 184 182 l 1
 186 178 l 2
 189 173 190 168 193 163 c 0
 200 151 204 141 207 130 c 0x24a0
 209 119 207 110 201 105 c 1
 202 106 195 108 198 101 c 1
 203 101 205 97 204 88 c 0
 204 81 202 74 203 71 c 0
 203 70 204 71 207 72 c 0
 209 74 210 73 210 70 c 0
 210 65 205 65 204 60 c 2
 202 53 l 2
 202 51 201 49 200 48 c 0
 200 45 199 46 199 43 c 0
 196 36 193 32 189 25 c 0
 180 13 170 6 157 4 c 1
 157 8 166 11 174 16 c 0
 181 23 187 29 179 36 c 1
 172 28 164 21 155 14 c 0
 148 7 138 2 127 -1 c 0
 116 -5 107 -8 96 -8 c 0
 86 -9 76 -7 65 -3 c 0
 62 -2 58 1 53 6 c 2
 45 16 l 1
 39 23 l 2
 36 26 34 29 33 31 c 0
 29 36 26 42 24 47 c 0
 20 62 21 75 22 87 c 0
 25 100 28 112 32 123 c 2
 44 155 l 2
 48 166 52 176 53 187 c 1
 56 186 l 1
 56 170 l 2
 56 165 54 160 51 156 c 1
 62 148 45 129 56 121 c 1
 61 134 53 141 66 144 c 1
 66 131 58 112 63 105 c 1
 60 108 68 117 68 110 c 0
 60 98 64 85 65 74 c 0
 65 67 65 62 66 59 c 0
 66 54 67 49 69 45 c 0
 69 44 70 43 70 42 c 2
 70 42 71 41 72 40 c 0
 73 39 74 38 77 37 c 0
 79 36 83 35 89 35 c 2
 105 38 l 2
 112 39 115 41 122 42 c 1
 115 41 115 38 118 37 c 0
 121 36 124 35 124 42 c 1x6120
 131 47 140 52 147 59 c 0
 151 63 154 66 155 69 c 0
 156 70 156 70 156 71 c 0
 156 72 157 72 157 75 c 0
 158 76 158 79 158 82 c 0
 158 87 156 92 155 96 c 0
 154 105 153 114 150 125 c 0
 147 136 144 145 140 156 c 2
 137 164 l 2
 136 167 134 169 133 171 c 2
 126 185 l 2
 121 193 117 200 110 207 c 1
 113 210 116 210 113 217 c 2
 106 224 l 1
 105 226 l 1
 102 230 l 2
 98 229 97 231 98 235 c 0
 97 238 96 239 96 240 c 0
 95 243 94 244 94 245 c 2
 93 247 l 2
 92 248 92 249 92 249 c 2x40c0
 89 256 89 261 88 268 c 0
 85 283 84 298 87 315 c 0
 90 331 95 347 106 358 c 1
 101 353 103 351 104 351 c 0
 107 353 108 356 107 360 c 0
 114 371 123 380 134 387 c 0
 145 395 159 400 172 404 c 0
 179 407 186 409 193 409 c 0
 205 410 218 408 231 403 c 0
 238 399 245 395 250 391 c 0
 253 390 252 389 255 386 c 0
 256 386 257 385 257 383 c 1
 258 383 l 1
 258 382 l 1
 259 382 l 1
 259 381 l 1
 260 380 l 1
 261 378 l 1
 263 375 l 2
 264 372 265 370 265 369 c 0x0288
186 361 m 1x1004
 186 364 188 363 189 364 c 1
 189 362 188 361 186 361 c 1x1004
135 323 m 1
 132 326 134 327 135 330 c 1
 138 327 135 326 135 323 c 1
241 265 m 1
 242 265 243 264 243 261 c 1
 242 262 241 263 241 265 c 1
244 280 m 1
 247 279 247 277 244 278 c 2
 244 280 l 1
251 290 m 1x89
 252 293 256 289 251 290 c 1x89
208 92 m 1
 212 91 211 87 212 84 c 1
 208 85 209 89 208 92 c 1
120 -12 m 1
 119 -8 125 -7 129 -6 c 1
 129 -10 124 -9 120 -12 c 1
66 158 m 1
 75 149 58 142 66 158 c 1
106 224 m 1
 107 221 102 220 106 224 c 1
EndSplineSet
EndChar

StartChar: q
Encoding: 113 113 16
Width: 367
Flags: MW
HStem: -1 43<140 154.5> 1 21G<127 134 134 135.5 166 166> 46 9 57 21 84 8 190 9 218 8<323.5 331 325 331> 232 8 235 8<83 90> 374 39<174.5 190 174.5 196 174.5 201>
VStem: 80 10 112 26 142 7 269 22 286 35<198.5 219> 287 7
LayerCount: 2
Fore
SplineSet
331 226 m 2x0252
 325 221 l 2
 321 220 322 218 325 218 c 1x0202
 321 215 321 210 321 203 c 0
 321 194 320 190 318 189 c 0
 317 189 315 190 312 190 c 2
 309 180 l 2
 309 179 308 176 307 172 c 0
 306 172 306 172 306 171 c 0
 305 164 302 159 299 152 c 2
 289 128 l 2
 288 124 288 119 285 115 c 0
 282 108 278 100 273 93 c 0
 274 92 274 92 273 91 c 2
 267 86 l 2
 266 83 265 82 264 81 c 0
 263 78 262 77 261 76 c 0
 257 69 255 64 251 59 c 0
 250 58 248 58 247 55 c 0
 254 52 263 50 260 39 c 1
 252 34 261 57 241 40 c 1
 254 31 265 18 273 9 c 0
 276 6 272 2 275 -1 c 0
 278 -4 286 -1 289 -4 c 0
 306 -16 308 -39 319 -58 c 1
 315 -60 l 1
 311 -55 304 -57 307 -49 c 1x2402
 292 -56 298 -40 284 -48 c 1
 286 -53 297 -49 287 -59 c 1x2001
 280 -56 278 -48 271 -51 c 1
 274 -50 272 -58 269 -55 c 0
 269 -47 260 -48 255 -45 c 0
 250 -42 249 -37 245 -32 c 0x2004
 237 -24 217 -19 216 -3 c 1
 216 -13 228 3 216 -3 c 1
 212 -2 209 2 206 9 c 2
 200 17 l 1
 193 13 188 9 180 6 c 0
 179 5 178 5 177 5 c 0
 174 4 173 3 173 3 c 1
 166 1 l 2
 161 0 157 -1 152 -1 c 0x8004
 144 -2 136 -1 127 1 c 1
 130 0 133 0 134 1 c 0
 137 1 137 2 135 4 c 0
 132 5 129 7 125 2 c 0
 121 2 118 3 114 3 c 2
 108 5 l 1
 102 8 l 1
 96 11 l 1
 94 12 l 1
 93 13 l 1
 91 15 l 2
 89 16 86 19 82 23 c 0
 77 28 73 34 68 42 c 0
 64 49 60 56 57 64 c 0
 53 71 50 78 49 85 c 0
 46 98 48 111 49 124 c 0
 51 137 54 148 58 159 c 0
 65 182 71 201 72 217 c 0
 76 217 79 215 82 224 c 0
 83 227 83 229 81 230 c 2
 83 235 l 1
 88 232 89 234 92 237 c 1
 87 240 86 238 83 235 c 1
 75 241 87 243 90 243 c 0
 94 242 94 245 91 245 c 1x40a0
 99 248 101 267 106 270 c 0
 107 270 112 266 112 267 c 0
 117 272 116 278 119 283 c 0
 122 286 125 282 128 285 c 0
 131 286 129 293 134 290 c 1
 131 283 139 273 138 264 c 0
 135 255 128 247 125 236 c 1
 120 237 124 233 125 236 c 1
 129 220 126 204 119 187 c 0
 112 170 107 154 104 135 c 0
 103 124 104 117 103 110 c 0
 103 103 100 97 93 94 c 1
 96 95 87 97 90 92 c 1
 97 92 97 88 98 84 c 0
 98 79 99 76 101 75 c 0
 102 75 103 76 104 77 c 0
 105 78 106 79 107 78 c 0
 108 75 105 75 106 72 c 0
 109 68 113 65 117 62 c 2
 124 56 l 2
 125 55 124 54 125 51 c 0
 125 50 125 50 124 50 c 2
 123 50 l 2
 122 51 122 51 122 52 c 2
 121 53 l 1
 120 54 l 2x1090
 117 57 114 60 106 53 c 1
 109 50 111 48 114 47 c 2
 117 45 l 2
 118 45 118 45 118 44 c 1
 119 44 120 44 121 43 c 0
 126 42 133 41 140 42 c 0
 147 42 153 43 160 44 c 0
 161 45 163 45 164 45 c 2
 169 47 l 2
 170 48 170 48 171 48 c 1
 168 54 l 2x8010
 163 63 158 69 149 72 c 1
 152 75 157 77 153 80 c 0
 153 82 152 82 149 79 c 1
 147 81 l 1
 152 84 154 87 153 88 c 0
 146 84 147 82 147 81 c 0
 136 74 147 84 148 87 c 0
 151 89 151 89 148 88 c 1
 150 90 149 92 146 94 c 0
 143 97 141 96 144 99 c 2
 145 100 l 1
 145 100 146 101 147 102 c 2
 150 105 l 2
 150 109 145 107 145 110 c 0
 145 113 149 115 150 118 c 0
 150 121 146 119 150 124 c 1
 153 121 165 131 170 128 c 0
 175 127 175 120 180 116 c 1
 176 112 183 116 180 116 c 1
 195 119 203 114 208 107 c 0
 213 100 216 94 220 89 c 1
 226 94 l 1
 241 110 l 2x8008
 244 118 247 125 254 126 c 0
 255 129 257 130 258 131 c 0
 258 135 263 139 262 142 c 0
 262 145 257 141 258 144 c 0
 258 147 261 145 262 148 c 0
 265 152 263 156 266 163 c 0
 267 170 270 175 274 178 c 1
 275 175 272 172 271 169 c 0
 268 164 269 160 274 159 c 1
 274 160 275 161 276 164 c 0
 279 173 281 182 282 191 c 0
 285 202 286 211 286 219 c 0
 287 220 287 221 287 222 c 0
 280 233 280 245 277 258 c 0
 274 274 271 290 262 305 c 0
 255 313 250 318 246 325 c 0
 243 332 241 336 245 343 c 1
 244 342 251 344 246 347 c 0
 242 345 238 346 235 349 c 0
 232 352 230 356 227 356 c 0
 224 355 227 349 223 350 c 0
 220 351 224 355 221 356 c 0
 217 359 210 359 205 360 c 0
 202 360 199 360 197 361 c 0
 196 362 196 362 195 362 c 0
 194 362 194 362 193 363 c 0
 190 364 188 365 188 366 c 0
 188 367 189 367 192 367 c 2
 194 367 l 2
 195 366 196 366 196 366 c 2
 197 366 198 365 199 365 c 0
 203 364 207 362 210 373 c 1
 207 373 204 374 201 374 c 2
 196 374 l 1
 190 374 l 2
 183 374 175 373 168 372 c 0
 154 369 142 364 133 358 c 0
 129 355 122 356 119 353 c 0
 112 346 112 340 108 333 c 2
 106 330 l 1
 104 327 l 1
 100 322 l 1
 91 310 l 2
 84 303 80 295 73 287 c 0
 61 272 49 256 38 237 c 1
 35 238 l 1
 42 250 38 257 49 264 c 1
 44 269 46 273 49 280 c 0
 52 287 56 291 52 296 c 1
 44 288 51 276 37 279 c 1
 40 290 53 305 50 312 c 1
 51 309 42 305 45 310 c 0
 56 318 55 330 62 341 c 0
 65 346 69 351 73 356 c 2
 87 370 l 2
 92 375 97 381 104 386 c 0
 111 393 119 398 126 401 c 0
 141 410 160 416 177 413 c 1
 172 413 169 413 168 412 c 0
 167 411 167 410 168 409 c 0
 169 408 174 406 177 413 c 1
 182 414 188 414 195 414 c 2
 206 412 l 2
 208 412 212 411 217 410 c 0
 232 405 245 396 257 388 c 0
 262 384 269 381 274 376 c 0
 283 368 289 358 296 347 c 0
 300 340 302 337 305 330 c 0
 306 327 306 325 309 322 c 0
 310 318 311 315 312 314 c 0
 321 291 324 270 331 254 c 1
 327 251 322 252 325 243 c 0
 325 240 326 237 329 237 c 1
 329 232 l 1
 324 233 322 231 322 226 c 0
 325 225 328 227 329 232 c 1
 333 231 334 229 331 226 c 2x0252
229 345 m 1x0402
 232 348 231 346 234 345 c 1
 231 342 230 345 229 345 c 1x0402
169 368 m 1x0204
 169 364 167 364 164 363 c 1
 163 367 166 367 169 368 c 1x0204
34 266 m 1x0922
 28 277 44 276 34 266 c 1x0922
323 199 m 1
 324 198 325 196 325 193 c 1
 324 194 323 196 323 199 c 1
325 221 m 1
 328 221 329 218 325 218 c 1
 325 221 l 1
329 237 m 1
 328 241 333 240 329 237 c 1
101 87 m 1
 105 87 104 85 105 84 c 1x1021
 102 83 102 86 101 87 c 1
146 49 m 1
 146 45 143 46 140 46 c 1
 141 50 143 49 146 49 c 1
98 268 m 1
 101 265 99 265 99 262 c 1
 96 263 98 265 98 268 c 1
90 243 m 1
 89 244 88 246 91 245 c 1
 90 243 l 1
81 230 m 1
 80 227 76 230 81 230 c 1
255 139 m 1
 256 138 256 137 256 135 c 1
 255 135 255 136 255 139 c 1
278 196 m 1
 279 196 280 194 280 191 c 1
 279 192 278 193 278 196 c 1
263 28 m 1
 267 31 266 28 269 28 c 1
 265 25 264 27 263 28 c 1
294 -61 m 1
 281 -66 294 -52 294 -61 c 1
139 92 m 1
 142 95 142 93 143 93 c 1
 140 90 140 92 139 92 c 1
148 87 m 2
 145 84 144 85 148 88 c 1
 148 87 l 2
149 79 m 1
 150 79 144 75 149 79 c 1
EndSplineSet
EndChar

StartChar: r
Encoding: 114 114 17
Width: 299
Flags: MW
HStem: -23 21G -18 21G -12 21G<22 22> -3 20 120 15 179 10<30.5 33 28 34> 187 24 209 8 323 10<66 74 66 74> 335 19<72 80 72 80> 369 37 370 8 386 8
VStem: 12 41 19 14 28 11<376.5 383 376.5 386 376.5 386> 58 8 63 9 68 44 239 27<311 313> 265 10
LayerCount: 2
Fore
SplineSet
73 134 m 1x1c8830
 69 137 71 138 71 141 c 1
 75 138 73 137 73 134 c 1x1c8830
13 10 m 1
 5 18 20 20 13 10 c 1
73 352 m 1
 74 351 75 350 75 348 c 1
 74 349 73 350 73 352 c 1
72 333 m 1
 69 334 68 336 72 335 c 1
 72 333 l 1
66 323 m 1x020010
 66 320 61 323 66 323 c 1x020010
243 368 m 1
 242 367 239 368 236 370 c 0
 237 373 240 369 243 368 c 1
242 247 m 1
 239 250 244 252 247 255 c 1
 250 252 245 250 242 247 c 1
33 375 m 1
 34 378 36 377 39 378 c 1
 39 375 36 376 33 375 c 1
60 376 m 1
 60 375 58 373 58 376 c 1
 60 376 l 1
76 372 m 1
 80 372 79 368 76 372 c 1
271 12 m 2
 292 -30 l 1
 289 -32 l 1
 284 -23 277 -24 277 -13 c 1x814020
 270 -16 269 -12 266 -9 c 0
 262 -4 258 -2 255 -3 c 1
 258 -11 268 -9 261 -18 c 1
 254 -13 249 -1 242 -2 c 1
 245 -2 244 -10 241 -7 c 0
 238 4 231 4 224 11 c 0
 217 16 214 22 209 29 c 0
 197 44 175 53 166 72 c 1
 171 62 176 75 166 72 c 1
 154 80 147 95 132 106 c 0
 128 109 124 109 121 112 c 0
 109 121 99 131 88 142 c 0
 82 148 76 153 70 157 c 1
 59 109 l 2
 58 104 53 101 53 97 c 0
 52 90 56 84 55 77 c 0x012030
 52 46 36 19 25 -13 c 1
 22 -12 l 1
 25 -1 20 3 27 10 c 1
 14 15 31 29 20 35 c 1
 16 27 24 21 12 20 c 1
 11 29 17 42 12 47 c 1
 15 44 8 40 8 44 c 0
 15 52 10 62 11 70 c 0
 12 79 16 87 17 96 c 0
 21 115 18 141 30 160 c 1
 22 150 39 154 30 160 c 1
 30 167 31 172 34 179 c 1x814020
 27 179 22 179 19 180 c 2x400010
 19 182 l 1
 26 182 31 183 36 184 c 0
 36 187 37 186 37 189 c 0
 32 192 29 194 29 196 c 1
 30 196 30 196 30 197 c 0
 30 198 30 198 31 199 c 2
 33 201 l 1x100010
 30 205 26 205 23 209 c 0
 22 212 25 213 24 216 c 0
 24 219 19 218 22 222 c 1
 26 218 35 224 42 223 c 1
 42 225 l 1
 47 257 65 289 60 313 c 1
 64 313 68 312 68 319 c 0
 68 321 67 322 66 323 c 2
 67 327 l 1
 70 326 73 326 74 329 c 1
 71 330 68 330 67 327 c 0
 56 330 71 333 72 333 c 0
 76 333 75 335 72 335 c 1
 80 338 75 354 80 354 c 0
 81 355 87 352 87 353 c 0
 90 357 87 362 90 366 c 0x2004
 91 369 94 365 97 368 c 0
 98 368 98 368 98 369 c 1
 97 368 95 368 92 368 c 0
 91 371 91 374 82 374 c 0
 79 374 77 373 76 372 c 2
 71 373 l 1
 72 376 70 378 66 378 c 0
 65 375 67 373 71 373 c 1
 68 365 63 375 60 376 c 0
 60 379 58 379 58 376 c 1
 51 383 32 377 28 381 c 1
 28 383 l 1
 28 386 l 1
 21 389 16 385 9 386 c 0
 6 387 7 389 4 392 c 0
 1 393 -4 391 -4 394 c 1
 4 394 10 403 21 404 c 0
 30 405 41 402 54 402 c 1
 57 398 57 402 54 402 c 1
 69 408 87 409 108 406 c 0
 129 403 149 399 172 395 c 0
 185 392 196 390 205 387 c 0
 215 384 221 379 223 372 c 1
 222 373 217 371 224 368 c 1
 227 372 232 369 237 366 c 0
 242 362 247 357 250 356 c 0x044220
 253 355 247 364 254 360 c 0
 257 357 256 354 259 350 c 0
 263 347 266 342 269 337 c 0
 274 330 276 324 277 317 c 0
 278 310 277 303 275 295 c 0
 272 288 269 283 265 278 c 1
 264 281 270 288 273 299 c 0
 274 303 274 307 273 312 c 0
 272 316 269 318 266 317 c 0
 267 311 267 305 266 300 c 0
 265 293 264 289 261 284 c 2x002080
 254 270 l 2
 253 269 251 267 250 264 c 2
 245 258 l 2
 238 250 230 245 223 238 c 2
 202 225 l 2
 195 222 188 221 183 218 c 0
 174 214 167 207 158 203 c 0x0009
 143 196 127 190 108 187 c 1
 115 182 119 177 126 172 c 0
 139 163 152 160 147 145 c 1
 147 146 141 144 146 141 c 1
 153 149 158 135 162 135 c 0
 165 135 163 141 166 140 c 0
 169 139 165 135 168 134 c 0
 175 127 191 123 194 108 c 1
 188 105 186 129 173 116 c 1
 192 101 209 82 222 69 c 0
 225 65 225 60 228 57 c 0
 232 53 240 52 244 47 c 0
 255 36 263 25 271 12 c 2
91 207 m 2
 91 209 l 1
 88 209 86 210 90 211 c 0
 105 211 114 219 125 223 c 0
 137 228 149 231 160 236 c 0
 172 241 186 250 198 259 c 0
 205 264 210 268 215 273 c 0
 222 277 224 281 229 286 c 1
 226 283 225 282 225 281 c 0
 225 280 225 279 226 279 c 0
 229 279 232 282 229 286 c 1
 234 295 238 304 239 311 c 0x840080
 239 315 238 319 236 323 c 0
 234 326 231 330 227 333 c 0
 222 336 217 337 212 340 c 0
 193 349 172 357 150 362 c 0
 133 366 117 369 102 369 c 1
 105 364 111 358 111 353 c 0
 112 346 107 339 106 331 c 1x0111
 101 331 106 328 106 331 c 1
 122 306 104 281 101 251 c 0
 98 234 102 221 86 218 c 1
 89 218 81 222 82 217 c 1
 89 214 88 209 85 205 c 1x200040
 86 205 88 206 91 207 c 2
95 210 m 1
 95 209 94 209 92 209 c 1
 93 208 93 208 93 208 c 2
 94 208 95 209 95 210 c 1
161 145 m 1
 158 142 159 144 156 145 c 1
 159 148 160 145 161 145 c 1
209 93 m 1
 207 91 205 92 203 95 c 0
 206 98 206 94 209 93 c 1
269 -23 m 1
 258 -26 266 -12 269 -23 c 1
33 189 m 1
 30 186 31 189 28 189 c 1
 29 190 31 190 33 189 c 1
EndSplineSet
EndChar

StartChar: x
Encoding: 120 120 18
Width: 375
Flags: MW
HStem: -40 7 -8 21G -3 21G 41 7
VStem: 61 10 67 13<43 51> 76 9 316 30
LayerCount: 2
Fore
SplineSet
317 64 m 0x33
 345 31 360 -11 384 -52 c 1
 381 -54 l 1
 373 -41 364 -40 363 -27 c 1
 349 -32 347 -5 333 -8 c 1x41
 340 -20 351 -19 343 -30 c 1
 332 -22 325 -4 316 -3 c 1
 320 -4 320 -14 316 -10 c 0
 313 5 300 10 292 19 c 0
 284 30 279 40 272 51 c 0
 257 74 229 97 218 125 c 1
 223 113 230 127 218 127 c 1
 207 139 200 156 189 173 c 1
 181 162 l 2
 177 158 175 152 171 147 c 0
 145 116 103 85 93 59 c 1
 89 62 86 64 81 57 c 0
 80 56 77 54 80 51 c 1
 77 48 l 1
 73 53 71 52 68 49 c 1
 72 44 74 45 77 48 c 1
 82 39 70 43 67 43 c 0
 64 46 63 44 66 41 c 1
 57 41 52 24 44 24 c 1
 44 25 40 30 39 29 c 0
 34 26 32 20 27 17 c 0
 24 16 22 19 19 18 c 0
 16 18 15 12 11 16 c 1
 18 21 12 33 17 41 c 0
 21 48 30 53 37 62 c 1
 42 59 40 65 37 62 c 1
 40 93 75 117 98 146 c 0
 113 163 118 179 135 175 c 1
 132 175 136 167 139 174 c 1
 131 182 149 190 149 195 c 0
 149 198 141 195 144 200 c 0
 145 203 149 200 152 203 c 2
 158 212 l 1
 134 247 113 291 90 309 c 1x35
 93 312 98 315 91 322 c 0
 88 323 88 327 85 324 c 1
 82 329 l 1
 89 332 86 334 85 337 c 0
 80 336 79 333 82 329 c 1
 70 325 78 337 79 340 c 0
 82 343 79 343 78 342 c 1x12
 81 351 62 362 65 369 c 1
 68 371 l 2
 70 373 71 374 71 373 c 1
 68 380 62 382 61 389 c 0
 60 392 64 394 64 397 c 0
 64 400 59 403 63 406 c 1
 67 399 82 401 89 394 c 0
 96 387 98 378 106 367 c 1
 103 363 109 364 106 367 c 1x18
 140 357 156 313 180 281 c 0
 188 270 197 263 201 256 c 1
 204 260 l 1
 207 257 204 256 203 253 c 0
 203 252 204 251 204 248 c 1
 234 283 l 2
 238 287 245 289 248 293 c 0
 253 300 254 309 259 316 c 0
 282 349 314 372 342 404 c 1
 345 402 l 1
 337 391 338 384 327 379 c 1
 335 368 312 359 318 348 c 1
 327 356 323 366 335 363 c 1
 331 352 317 339 318 332 c 1
 318 335 327 338 324 333 c 0
 313 326 312 314 305 305 c 0
 298 294 289 288 282 279 c 0
 266 260 252 230 229 214 c 1
 237 221 228 224 227 217 c 2
 227 215 l 1
 227 213 l 2
 227 212 227 212 226 212 c 1
 227 211 227 210 227 210 c 2
 235 199 255 186 256 165 c 1
 249 165 249 196 231 183 c 1
 252 156 274 123 289 100 c 0
 293 95 293 87 296 83 c 0
 303 76 312 71 317 64 c 0x33
266 143 m 1x94
 270 146 271 141 274 138 c 1
 270 135 269 140 266 143 c 1x94
353 -40 m 1
 341 -40 348 -24 353 -40 c 1
67 358 m 1
 64 355 64 359 61 360 c 1
 64 363 64 359 67 358 c 1
79 340 m 1
 76 339 74 339 78 342 c 1
 79 340 l 1
85 324 m 1
 88 321 81 320 85 324 c 1
137 192 m 1
 140 189 137 188 137 187 c 1
 134 190 137 191 137 192 c 1
340 374 m 1
 346 362 326 366 340 374 c 1
53 23 m 1
 50 26 53 26 54 29 c 1
 57 26 53 26 53 23 c 1
67 43 m 2
 70 42 69 38 66 41 c 1
 67 43 l 2
80 51 m 1
 83 54 85 48 80 51 c 1
EndSplineSet
EndChar

StartChar: y
Encoding: 121 121 19
Width: 241
Flags: MW
HStem: -18 21G 1 21G 97 14 116 8
VStem: 16 10 31 9 109 14 120 17<-41 -25> 123 53 162 8
LayerCount: 2
Fore
SplineSet
22 358 m 1x6480
 19 355 19 359 16 360 c 1
 19 363 21 359 22 358 c 1x6480
40 324 m 1
 43 321 36 320 40 324 c 1
214 316 m 0
 237 349 269 372 297 404 c 1x4040
 300 402 l 1
 292 391 293 384 282 379 c 1
 290 368 266 359 274 348 c 1
 282 356 278 366 290 363 c 1x6480
 286 352 271 339 274 332 c 1
 273 335 282 338 279 333 c 0
 268 326 267 314 260 305 c 0
 253 294 244 288 237 279 c 0
 221 260 207 230 184 214 c 0
 183 214 183 213 182 213 c 1
 182 212 182 212 181 212 c 0
 180 209 176 205 171 200 c 1
 182 185 172 168 173 149 c 0
 173 137 179 128 162 125 c 1
 165 125 156 127 159 124 c 0
 170 121 161 114 164 111 c 0
 167 110 171 113 171 110 c 0
 172 109 167 110 167 107 c 0
 167 100 175 88 164 81 c 1
 157 83 177 94 155 97 c 1x1080
 156 78 153 61 152 46 c 0
 152 43 147 41 147 38 c 0
 147 33 152 28 153 24 c 0
 156 1 141 -18 137 -41 c 1x2040
 133 -40 l 1
 134 -33 128 -30 135 -25 c 1
 122 -22 132 -12 123 -7 c 1
 120 -14 130 -17 118 -18 c 1xa080
 115 -11 120 -2 113 1 c 1
 116 0 109 -4 109 -1 c 0
 114 6 108 11 108 18 c 0x81
 107 25 110 29 110 36 c 0
 111 49 102 69 113 82 c 1x8080
 108 74 122 77 113 82 c 1
 110 93 120 106 117 119 c 0
 117 122 115 125 115 129 c 0
 115 150 129 176 120 192 c 1
 125 192 127 193 128 194 c 1
 123 198 l 1x42
 122 199 l 2
 121 200 121 202 118 203 c 0
 115 206 116 209 113 212 c 0
 89 247 68 291 45 309 c 1
 48 312 53 315 46 322 c 0
 43 323 43 327 40 324 c 1
 37 329 l 1
 26 325 33 337 34 340 c 1
 31 339 29 339 33 342 c 0
 36 351 17 362 20 369 c 1
 23 371 l 2
 25 373 26 374 26 373 c 1
 23 380 19 382 16 389 c 0
 15 392 19 394 19 397 c 0x2480
 19 400 14 403 18 406 c 1
 22 399 37 401 44 394 c 0
 51 387 53 378 62 367 c 1
 97 356 109 313 136 281 c 0
 143 270 152 264 156 256 c 1
 159 260 l 1
 162 257 159 256 158 253 c 0
 158 252 159 251 159 248 c 1x2880
 189 283 l 2
 193 287 200 289 203 293 c 0
 208 300 209 309 214 316 c 0
295 374 m 1
 301 362 281 366 295 374 c 1
172 116 m 1
 169 116 170 118 169 119 c 1
 172 118 171 117 172 116 c 1
159 69 m 1
 163 69 161 68 162 65 c 1
 158 66 159 68 159 69 c 1
120 -25 m 1
 110 -23 125 -17 120 -25 c 1
EndSplineSet
EndChar

StartChar: o
Encoding: 111 111 20
Width: 322
Flags: MW
HStem: -1 43 1 21G<108 115 115 116.5 147 147> 57 18 84 8 190 9 218 8 232 8 374 39<155.5 171 155.5 177 155.5 182>
VStem: 30 40 61 11 94 25 268 34<198.5 222 198.5 222>
LayerCount: 2
Fore
SplineSet
313 226 m 4x8590
 310 223 307 222 306 221 c 4
 302 220 303 218 306 218 c 5x0410
 302 215 302 210 302 203 c 4
 302 194 301 190 299 189 c 4
 298 189 296 190 293 190 c 6
 290 180 l 6
 290 177 289 174 288 172 c 6
 287 171 l 5
 286 164 284 159 281 152 c 4
 277 144 273 136 270 128 c 6
 267 115 l 6
 263 108 259 100 254 93 c 5
 255 93 255 92 254 91 c 6
 248 86 l 6
 247 83 246 82 245 81 c 4
 244 78 243 77 242 76 c 4
 239 69 236 64 232 59 c 6
 225 52 l 5
 221 49 l 5
 218 46 l 5
 215 43 l 5
 214 43 l 5
 203 34 l 5
 202 34 l 5
 203 32 202 31 199 31 c 6
 185 20 l 6
 177 14 169 9 161 6 c 4
 160 5 159 5 158 5 c 6
 154 3 l 5
 147 1 l 6
 142 0 138 -1 133 -1 c 4x8810
 125 -2 117 -1 108 1 c 5
 112 0 114 0 115 1 c 4
 118 1 118 2 116 4 c 4
 115 5 110 7 106 2 c 4
 102 2 99 3 95 3 c 6
 89 5 l 5
 83 8 l 5
 77 11 l 5
 75 12 l 5
 74 13 l 5
 72 15 l 6
 69 17 66 20 64 23 c 4
 59 28 54 34 49 42 c 6
 38 64 l 5
 30 85 l 6
 27 98 28 111 31 124 c 4
 32 135 34 147 39 159 c 4x4080
 46 182 52 201 53 217 c 4
 57 217 60 215 63 224 c 4
 64 227 64 229 62 230 c 6
 64 235 l 5
 69 232 70 234 73 237 c 5
 68 240 67 238 64 235 c 5
 56 242 69 242 72 243 c 4
 75 242 74 245 73 245 c 5x0840
 80 247 82 267 87 270 c 4
 88 270 93 266 94 267 c 4
 98 272 97 278 101 283 c 4
 104 286 106 282 109 285 c 4
 112 286 110 293 115 290 c 5
 112 283 120 273 119 264 c 4
 116 255 110 247 106 236 c 5
 101 237 105 233 106 236 c 5
 110 220 107 204 100 187 c 4
 95 170 88 154 85 135 c 4x0220
 84 124 85 117 84 110 c 4
 84 103 81 97 75 94 c 5
 76 95 68 97 71 92 c 5
 78 92 78 88 79 84 c 4
 79 79 80 76 82 75 c 4
 83 75 84 76 85 77 c 4
 86 78 87 79 88 78 c 4
 91 75 86 75 87 72 c 4
 90 68 94 65 98 62 c 6
 105 56 l 6
 106 55 104 54 107 51 c 5
 106 50 106 50 105 50 c 6
 104 50 l 5
 104 51 103 51 103 52 c 6
 102 53 l 5
 101 54 l 6x2080
 98 57 95 60 88 53 c 4
 90 50 93 48 96 47 c 6
 98 45 l 6
 99 45 99 45 99 44 c 5
 100 44 101 44 102 43 c 4
 107 42 115 41 122 42 c 4
 128 42 134 43 141 44 c 4
 142 45 144 45 146 45 c 6
 146 45 147 46 150 47 c 6
 157 50 l 6
 162 53 169 52 173 55 c 4
 180 60 182 68 187 75 c 6
 207 94 l 5
 222 110 l 6
 225 118 228 125 235 126 c 5
 239 131 l 6
 239 135 244 139 243 142 c 4
 243 145 239 141 239 144 c 4
 240 147 242 145 243 148 c 4
 246 152 244 156 247 163 c 4
 248 170 251 175 255 178 c 5
 256 176 255 173 252 169 c 4
 249 164 250 160 255 159 c 5
 257 164 l 6
 260 173 262 182 263 191 c 4
 266 202 267 211 268 219 c 6
 268 222 l 5
 261 233 261 245 258 258 c 4
 255 274 252 290 243 305 c 4
 236 313 231 318 228 325 c 4
 223 332 223 338 226 343 c 5
 225 342 232 344 227 347 c 5
 224 344 220 345 216 349 c 4
 213 352 211 356 208 356 c 4
 205 355 208 349 204 350 c 4
 201 351 205 355 202 356 c 4
 198 359 193 359 186 360 c 4
 183 360 180 360 179 361 c 4
 178 362 177 362 177 362 c 6
 176 362 175 362 174 363 c 4
 171 364 170 365 169 366 c 5
 170 367 171 367 174 367 c 6
 175 367 l 6
 176 366 177 366 177 366 c 6
 178 366 179 365 180 365 c 4
 184 364 188 362 191 373 c 5
 188 373 185 374 182 374 c 6
 177 374 l 5
 171 374 l 6
 164 374 157 373 150 372 c 4
 135 369 123 364 114 358 c 4
 110 355 103 356 100 353 c 4
 93 346 93 340 89 333 c 6
 87 330 l 5
 85 327 l 5
 81 322 l 5
 72 310 l 6
 65 303 61 295 54 287 c 4
 42 272 30 256 19 237 c 5
 16 238 l 5
 23 250 19 257 30 264 c 5
 25 269 28 273 31 280 c 4
 34 287 37 291 33 296 c 5
 25 287 31 276 19 279 c 5
 22 290 34 305 31 312 c 5
 32 309 23 305 26 310 c 4
 37 318 37 330 44 341 c 4
 47 348 51 351 55 356 c 6
 68 370 l 6
 73 375 78 381 85 386 c 4
 92 393 100 398 107 401 c 4
 124 411 141 415 158 413 c 5
 153 413 150 413 149 412 c 4
 148 411 148 410 149 409 c 4
 150 408 155 406 158 413 c 5
 165 414 169 414 176 414 c 6
 187 412 l 6
 191 412 194 411 198 410 c 4
 213 405 226 396 238 388 c 4
 245 384 250 381 255 376 c 4
 264 368 271 358 278 347 c 6
 286 330 l 6
 287 327 287 325 290 322 c 4
 291 318 292 315 293 314 c 4
 302 291 305 270 312 254 c 4
 309 251 303 252 306 243 c 4
 307 240 307 237 310 237 c 5
 310 232 l 5
 305 233 303 231 303 226 c 5
 310 225 309 228 310 232 c 5
 314 230 315 228 313 226 c 4x8590
210 345 m 5x0810
 213 348 212 346 215 345 c 5
 212 342 213 345 210 345 c 5x0810
150 368 m 5x0410
 150 364 148 364 145 363 c 5
 144 367 147 367 150 368 c 5x0410
15 266 m 5x1250
 10 276 26 277 15 266 c 5x1250
304 199 m 5
 305 198 306 196 306 193 c 5
 305 194 304 196 304 199 c 5
306 221 m 5
 309 221 310 218 306 218 c 5
 306 221 l 5
310 237 m 5
 309 241 315 240 310 237 c 5
82 87 m 5
 86 87 85 85 86 84 c 5
 83 83 83 86 82 87 c 5
122 46 m 5
 122 50 124 49 127 49 c 5
 127 45 125 46 122 46 c 5
79 268 m 5
 82 265 80 265 80 262 c 5
 77 263 79 265 79 268 c 5
72 243 m 6
 69 244 69 246 73 245 c 5
 72 243 l 6
62 230 m 5
 61 227 57 230 62 230 c 5
236 139 m 5
 237 138 237 137 237 135 c 5
 236 135 236 136 236 139 c 5
259 196 m 5
 260 196 261 194 261 191 c 5
 260 192 259 193 259 196 c 5
EndSplineSet
EndChar

StartChar: u
Encoding: 117 117 21
Width: 340
Flags: MW
HStem: 9 48<108 122> 101 48 177 21 329 7<62 62>
VStem: 21 53<143.5 155> 49 12 53 50 245 9 275 33<299.5 318>
LayerCount: 2
Fore
SplineSet
78 149 m 5xb280
 82 149 81 147 82 144 c 5
 78 144 79 146 78 149 c 5xb280
103 65 m 5
 104 66 105 67 107 67 c 6
 108 66 l 5
 105 62 106 64 103 65 c 5
69 359 m 5
 66 360 68 363 68 366 c 5
 71 363 69 362 69 359 c 5
62 339 m 5
 61 336 l 6
 58 337 57 340 62 339 c 5
51 320 m 5
 50 316 44 320 51 320 c 5
306 347 m 4
 303 336 307 329 308 318 c 4
 308 307 306 299 305 290 c 4
 302 279 305 267 302 255 c 4
 301 243 299 231 294 220 c 5
 300 231 288 226 294 220 c 5
 293 203 284 185 280 165 c 4
 279 160 280 155 277 150 c 6
 268 125 l 6
 267 122 265 119 264 118 c 6
 264 118 263 117 262 114 c 6x14
 261 113 l 5
 260 111 l 5
 253 100 l 6x48
 250 97 250 95 247 92 c 5xb280
 248 92 248 91 247 89 c 4
 244 88 245 86 242 85 c 4
 235 76 229 68 225 61 c 5
 224 61 l 5
 222 58 l 5
 219 54 l 6
 216 51 214 51 211 48 c 4
 211 47 210 46 209 46 c 4
 201 39 192 35 181 28 c 6
 169 22 l 6
 166 21 165 19 162 18 c 4
 158 17 155 16 154 16 c 4
 145 13 135 10 122 9 c 4
 115 9 111 9 104 10 c 4
 102 10 99 11 95 12 c 4
 90 13 86 15 84 16 c 4
 82 17 79 18 75 21 c 4
 72 24 72 23 71 24 c 6
 68 27 l 6
 64 31 61 35 59 39 c 5
 65 32 l 6
 67 31 68 31 68 34 c 4
 68 39 65 41 58 41 c 5
 52 46 47 52 43 61 c 6
 35 84 l 6
 30 100 29 116 26 132 c 4
 23 139 21 147 21 155 c 4
 20 182 24 211 31 236 c 4
 38 263 43 284 42 303 c 5
 47 304 50 302 53 313 c 4
 53 316 54 319 51 320 c 5
 53 326 l 5
 58 323 61 324 62 329 c 5
 55 332 56 329 53 326 c 4
 42 331 58 336 61 336 c 4
 65 335 65 338 62 339 c 5
 65 340 67 345 70 354 c 4
 73 361 74 368 77 369 c 4
 78 369 84 365 84 366 c 4
 89 373 88 380 92 385 c 4
 95 388 99 385 102 388 c 4
 105 391 104 397 109 394 c 5x8880
 105 386 115 375 112 364 c 4
 111 353 103 346 99 331 c 5
 94 332 99 328 99 331 c 5
 106 312 102 295 97 275 c 4
 92 255 86 233 83 212 c 4
 82 199 83 188 83 180 c 4
 82 170 78 163 71 160 c 5
 72 161 64 164 67 157 c 5
 72 157 74 153 74 146 c 4
 74 141 72 136 75 133 c 4
 78 130 80 139 83 134 c 4
 84 131 79 130 80 126 c 4
 81 119 85 112 88 104 c 4
 92 97 95 90 94 81 c 4
 90 81 89 86 88 93 c 4
 85 100 84 104 73 101 c 5
 76 92 80 85 84 79 c 4
 90 71 95 65 100 62 c 6
 100 62 101 61 102 60 c 4
 103 60 103 60 103 59 c 5x52
 104 59 106 58 107 58 c 6
 107 58 107 58 108 57 c 6
 110 57 l 6
 113 57 114 56 115 56 c 4
 122 55 128 56 135 57 c 4
 139 57 142 57 144 56 c 6
 148 56 l 6
 150 56 151 56 152 57 c 6
 161 65 l 5
 170 75 l 5
 182 85 l 5xc8
 195 96 l 5
 218 118 l 6
 221 121 223 123 224 125 c 4
 225 126 226 127 226 128 c 6
 228 131 l 6
 228 132 228 133 229 134 c 4
 229 135 230 137 230 138 c 6
 233 147 l 6
 235 153 239 156 245 157 c 5
 244 157 246 156 247 156 c 5
 247 157 247 157 248 158 c 5
 240 161 251 173 248 177 c 4
 247 178 243 174 243 178 c 4
 244 181 247 180 248 183 c 4
 251 192 247 209 258 220 c 5
 261 217 245 201 260 198 c 5
 264 223 270 251 273 271 c 4
 274 275 278 279 278 284 c 4
 278 291 275 296 275 303 c 4
 275 319 276 334 279 350 c 4
 280 358 280 365 280 373 c 4
 280 381 279 389 277 396 c 5
 279 397 l 5
 282 392 283 389 284 386 c 4
 285 382 285 379 284 376 c 5
 287 375 290 372 291 365 c 4
 291 358 293 354 296 353 c 5
 297 364 289 366 298 371 c 5
 301 362 299 347 304 343 c 5
 301 346 306 352 306 347 c 4
242 166 m 5
 241 166 241 168 241 171 c 5
 244 170 242 169 242 166 c 5
264 237 m 5
 261 238 263 240 263 243 c 5
 266 242 264 240 264 237 c 5
296 375 m 4
 294 373 293 375 294 381 c 5
 299 378 299 376 296 375 c 4
EndSplineSet
EndChar

StartChar: f
Encoding: 102 102 22
Width: 269
Flags: MW
HStem: 215 24<103 116.5 103 116.5 115 116.5 115 124 108 116.5> 221 17<171 182> 240 172<185 350> 336 9<87 94 87 94> 341 22<96 96> 372 7 388 20G 390 20G<225 225.5> 394 19 403 8
VStem: 26 8 65 21<363 363.5> 81 51 85 9 98 11 129 11<235 240> 217 10<237 237>
LayerCount: 2
Fore
SplineSet
88 153 m 1x40a880
 85 156 87 156 87 159 c 1
 89 158 89 156 88 153 c 1x40a880
27 35 m 1
 19 43 34 45 27 35 c 1
95 363 m 1x008080
 96 363 97 362 97 359 c 1
 96 360 95 361 95 363 c 1x008080
94 345 m 1
 91 346 90 348 94 347 c 1
 94 345 l 1
87 336 m 1
 87 333 83 336 87 336 c 1
350 412 m 1x0090
 350 409 l 1
 342 408 339 404 332 408 c 1x8808
 332 398 317 405 315 396 c 1
 323 395 325 403 329 394 c 1
 322 391 312 392 309 387 c 1
 310 390 315 386 312 385 c 0
 304 388 298 382 291 381 c 0
 284 378 278 380 271 380 c 0
 256 377 236 370 219 374 c 1
 230 371 222 382 219 374 c 1
 207 371 193 375 178 372 c 2x4005
 168 368 l 2x40a880
 156 367 143 367 131 367 c 1
 132 364 133 363 133 362 c 0
 133 355 128 350 127 342 c 1
 122 342 127 339 127 342 c 1
 141 317 123 292 120 265 c 0
 117 254 119 246 115 239 c 1
 118 239 120 238 121 235 c 1
 121 236 119 233 122 234 c 0
 122 239 128 234 129 237 c 0
 130 238 128 240 129 240 c 0
 130 241 131 239 132 239 c 0
 136 239 142 244 149 240 c 0
 148 237 139 244 140 235 c 1x0088
 171 238 l 2
 174 238 174 236 177 236 c 2
 185 240 l 1
 200 243 212 239 227 239 c 1
 227 237 l 1
 223 237 221 234 217 237 c 1
 216 230 209 237 208 230 c 1
 212 230 212 234 215 229 c 1
 212 226 205 228 204 225 c 1
 204 226 208 224 205 224 c 0
 201 227 198 223 194 222 c 0
 190 221 186 222 182 221 c 0
 174 221 162 215 153 218 c 1
 158 217 156 223 153 218 c 1x408180
 146 217 138 220 130 217 c 0
 129 217 127 216 124 215 c 2
 108 215 l 1
 109 215 109 214 109 213 c 0
 109 210 105 212 104 209 c 0
 101 200 106 183 94 174 c 1
 89 177 109 190 90 196 c 1
 87 173 79 148 75 129 c 0
 74 124 69 121 68 118 c 0
 67 111 70 105 69 98 c 0
 66 69 48 44 37 13 c 1
 34 14 l 1
 37 25 33 28 40 35 c 1
 29 40 43 53 34 60 c 1
 30 52 38 45 26 45 c 1
 25 54 31 66 27 71 c 1
 30 68 22 64 23 69 c 0
 30 76 26 86 27 94 c 0
 28 102 31 110 34 118 c 0
 38 137 36 161 48 180 c 1
 41 170 56 172 48 180 c 1
 49 192 55 203 59 218 c 1
 58 218 l 2
 56 220 55 221 56 221 c 1x402280
 55 222 53 220 53 223 c 1
 56 223 57 228 60 229 c 2
 61 229 l 1
 62 233 61 238 61 242 c 0
 66 271 86 305 81 326 c 1
 85 326 89 324 90 331 c 0
 90 334 89 335 87 336 c 2
 88 339 l 1
 95 336 95 338 96 341 c 1
 92 342 89 342 88 339 c 1
 79 343 91 344 94 345 c 0
 97 344 97 346 94 347 c 1
 101 348 97 358 100 362 c 1
 99 362 98 362 98 361 c 1
 97 366 94 367 91 366 c 0x4028
 90 366 89 365 89 364 c 2
 86 363 l 1
 86 368 85 368 82 369 c 1
 82 364 83 364 86 363 c 0
 85 355 81 363 80 366 c 0
 79 369 78 367 78 366 c 1
 75 371 65 363 62 367 c 2
 62 373 l 1
 58 374 55 371 51 372 c 0
 48 373 51 376 48 377 c 0
 45 380 44 376 43 380 c 1
 48 380 51 388 56 391 c 0
 61 394 67 391 74 392 c 1
 75 389 75 393 74 392 c 1
 89 409 112 403 135 407 c 0
 148 410 156 415 163 403 c 1
 162 404 161 398 165 401 c 1x1010
 164 409 175 404 178 407 c 0
 179 408 174 411 177 412 c 0
 180 413 179 409 182 410 c 0
 189 411 200 419 211 412 c 1
 211 407 193 418 196 402 c 1
 215 406 236 407 251 408 c 0x0410
 255 409 259 406 262 406 c 0
 267 407 271 412 276 413 c 0x0210
 300 418 323 411 350 412 c 1x0090
106 215 m 1
 103 215 l 1
 103 215 104 215 106 215 c 1
110 365 m 1
 108 365 106 365 105 364 c 1x200080
 106 364 107 363 108 363 c 2
 109 363 l 2
 110 364 110 365 110 365 c 1
171 412 m 1
 171 409 170 410 169 409 c 1x009080
 168 412 170 411 171 412 c 1
229 413 m 1
 229 409 226 410 225 410 c 1
 225 413 226 412 229 413 c 1
336 397 m 1
 333 389 325 400 336 397 c 1
65 362 m 1
 65 365 67 364 68 365 c 1
 68 362 66 363 65 362 c 1
80 366 m 1
 80 363 79 363 78 366 c 1
 80 366 l 1
89 364 m 1
 90 364 90 360 89 364 c 1
126 240 m 1
 126 240 125 239 124 238 c 1
 124 239 125 240 126 240 c 1
159 240 m 1
 159 237 157 239 156 238 c 1
 156 239 157 240 159 240 c 1
219 231 m 1
 218 226 214 232 219 231 c 1
EndSplineSet
EndChar

StartChar: z
Encoding: 122 122 23
Width: 398
Flags: MW
HStem: -7 20 -1 21G<67 68 67 68 67 68> 1 21G<120.5 128> 6 36<278 297> 47 8 368 26<279.5 305.5 279.5 321> 371 9 377 15 394 8
VStem: 47 8<-2.5 0.5> 67 9<-3 -1> 114 15<364.5 373 364.5 373> 117 18<363 363.5> 171 9<41 54> 188 21<47 50 41 54> 208 7<392 402> 214 22 220 16<397 399.5> 347 7
LayerCount: 2
Fore
SplineSet
212 399 m 1x1002
 212 402 214 401 215 402 c 1
 215 399 213 400 212 399 c 1x1002
266 399 m 1
 266 398 265 397 262 397 c 1
 263 398 264 399 266 399 c 1
117 363 m 1
 117 364 118 365 119 366 c 1
 119 363 118 364 117 363 c 1
130 366 m 1x1104a0
 130 363 129 363 129 366 c 1
 130 366 l 1x1104a0
138 363 m 1
 141 363 139 360 138 363 c 1
248 213 m 1
 251 210 248 210 247 207 c 1
 244 210 247 210 248 213 c 1
182 149 m 1
 185 146 182 144 179 141 c 1
 176 144 179 146 182 149 c 1
39 33 m 1
 36 44 53 42 39 33 c 1
319 354 m 1
 318 355 318 359 321 356 c 1
 319 354 l 1
307 346 m 1
 304 343 302 349 307 346 c 1
398 29 m 1
 398 26 l 1
 387 27 384 21 376 28 c 1
 371 15 357 29 354 18 c 1
 362 15 366 24 369 13 c 1
 361 10 348 14 344 9 c 1
 347 12 351 6 347 5 c 0
 339 10 330 5 322 4 c 0
 314 3 306 5 297 6 c 0
 278 6 255 -2 236 5 c 1
 247 -1 239 17 236 5 c 1
 221 2 205 8 186 5 c 0
 182 5 178 2 174 2 c 0
 159 -1 143 2 128 1 c 0
 113 1 99 0 90 -5 c 1
 89 -2 89 2 82 1 c 0
 81 0 79 0 79 -3 c 1
 76 -3 l 1
 76 1 75 3 72 3 c 0x895420
 71 -4 73 -3 76 -3 c 1
 75 -14 69 -2 68 -1 c 0
 68 3 66 2 67 -1 c 1
 62 6 50 -4 47 0 c 0
 47 1 47 6 46 6 c 0
 42 9 39 4 35 5 c 2x0409
 34 4 l 1x1002
 34 5 l 2x100020
 33 6 33 6 33 6 c 1
 32 7 l 1x400020
 30 11 l 2
 27 12 25 8 24 13 c 1
 29 14 31 25 38 28 c 0
 41 29 45 30 51 30 c 1
 49 40 68 47 63 58 c 1
 54 50 57 40 45 44 c 1
 52 55 65 66 64 74 c 1
 64 70 55 68 58 72 c 0
 70 79 73 90 80 99 c 0
 87 108 95 115 103 124 c 0x100020
 119 143 135 171 158 186 c 1
 148 178 161 177 159 187 c 1
 171 204 192 217 207 236 c 0
 210 241 212 247 216 251 c 0
 242 283 281 311 294 337 c 1
 298 336 301 333 306 340 c 0
 307 343 310 343 307 346 c 1
 310 349 l 1
 313 346 315 345 318 348 c 1
 316 352 313 352 310 349 c 1x2020
 304 358 317 354 319 354 c 0
 322 352 322 353 321 356 c 1
 328 355 333 366 338 371 c 1
 334 371 l 1
 334 370 333 369 333 368 c 1
 331 369 331 370 332 371 c 1
 328 371 324 369 321 368 c 0
 314 367 309 368 302 368 c 0
 289 368 271 361 256 366 c 1
 264 363 259 373 256 366 c 1
 245 363 232 369 219 366 c 0
 216 365 213 363 209 363 c 0
 186 360 161 368 146 361 c 1
 145 364 145 367 141 366 c 0
 140 365 138 366 138 363 c 1
 135 363 l 1
 136 366 135 368 133 368 c 0
 132 365 133 363 135 363 c 1
 134 356 131 363 130 366 c 0
 130 369 129 367 129 366 c 1
 126 370 117 364 114 368 c 2
 114 373 l 2
 111 374 108 372 105 373 c 0
 102 373 105 375 102 378 c 0
 101 379 98 376 98 380 c 1
 102 380 106 387 110 390 c 0
 115 391 119 389 126 390 c 1
 127 386 129 390 126 390 c 1
 141 405 161 396 182 399 c 0
 193 400 202 405 207 394 c 1
 206 395 205 389 208 392 c 0
 208 400 217 394 220 397 c 0
 221 398 217 401 220 402 c 0
 223 402 221 399 224 399 c 0
 231 400 240 406 251 399 c 1
 249 394 236 407 236 392 c 1
 253 395 273 394 286 394 c 0
 290 394 293 392 296 392 c 0
 300 392 304 396 309 397 c 0
 330 400 352 393 375 392 c 1
 375 390 l 1
 368 389 366 386 359 390 c 1
 356 379 346 388 343 380 c 1
 350 379 352 385 355 378 c 1
 356 379 357 380 358 380 c 0
 361 383 363 379 366 379 c 0
 369 380 370 386 374 382 c 1x8450
 367 377 373 365 368 357 c 0
 364 350 355 345 348 336 c 1
 343 339 345 333 348 336 c 1
 343 304 311 284 287 254 c 0
 272 237 266 220 250 225 c 1
 253 224 249 232 246 225 c 1x0210
 254 217 236 211 236 205 c 0
 236 202 244 205 241 200 c 0
 238 197 236 201 233 198 c 0
 225 187 217 169 200 162 c 1
 198 169 224 176 211 189 c 1x0411
 191 164 168 139 149 120 c 0
 145 115 139 114 135 110 c 0
 130 103 128 95 123 88 c 0
 111 71 96 57 79 44 c 1x008040
 86 45 90 46 93 46 c 0
 108 49 120 46 135 49 c 0
 151 52 162 59 169 44 c 1
 169 45 167 38 171 41 c 1
 171 50 185 44 188 47 c 0
 189 50 184 53 188 54 c 0
 191 55 190 50 193 51 c 0x040060
 202 51 217 61 229 50 c 1x020020
 227 45 209 59 209 41 c 1
 233 44 259 43 278 42 c 0
 283 42 286 38 290 38 c 0
 297 39 302 43 309 44 c 0
 338 47 367 34 398 29 c 1
340 372 m 1x2020
 340 373 341 373 342 373 c 2
 346 368 l 1
 350 371 352 374 355 377 c 1
 348 374 340 377 337 373 c 1
 337 374 338 374 340 372 c 1x2020
177 51 m 1
 177 54 179 53 180 54 c 1
 180 52 179 51 177 51 c 1
246 47 m 1
 246 51 248 49 251 50 c 1
 251 46 249 47 246 47 c 1
379 15 m 1
 373 6 369 20 379 15 c 1
51 -6 m 1
 51 -5 52 -3 55 -2 c 1
 55 -3 54 -5 51 -6 c 1
68 -1 m 2
 69 -4 67 -5 67 -1 c 1
 68 -1 l 2
79 -3 m 1
 82 -2 82 -8 79 -3 c 1
EndSplineSet
EndChar

StartChar: v
Encoding: 118 118 24
Width: 320
Flags: MW
HStem: 18 19 70 7<141 141> 336 8<-8.5 -1 -3 -1> 336 10<-8.5 -2 -3 -2> 344 24<-2.5 1 -1.5 1> 389 20G<278 278>
VStem: -7 10 65 7 78 12 109 9 141 7 142 10 149 9 150 16
LayerCount: 2
Fore
SplineSet
73 244 m 1xd744
 76 244 76 242 77 241 c 1
 76 240 74 241 73 244 c 1xd744
91 169 m 1
 87 169 88 171 87 174 c 1
 91 175 90 172 91 169 c 1
97 32 m 1
 86 34 97 46 97 32 c 1
-5 359 m 1
 -8 358 -8 361 -9 362 c 1
 -6 363 -6 360 -5 359 c 1
-2 346 m 2
 -1 344 l 1
 -4 344 -5 345 -2 346 c 2
-2 333 m 1
 -1 330 -6 330 -2 333 c 1
279 372 m 1
 276 363 268 353 271 346 c 1
 270 349 279 351 276 347 c 0
 267 340 268 330 265 322 c 0
 262 313 256 307 251 299 c 0
 242 280 238 253 222 238 c 1
 231 247 214 246 222 238 c 1
 217 222 204 208 197 189 c 0x6010
 196 185 197 180 194 176 c 0
 181 144 158 114 158 90 c 1
 154 91 151 93 148 86 c 0
 148 83 149 82 150 81 c 2
 149 77 l 1
 142 80 143 80 140 77 c 1
 147 74 146 74 149 77 c 1
 158 70 145 72 142 72 c 0xd744
 139 73 139 72 141 70 c 1
 133 69 135 52 130 52 c 0
 129 52 124 55 123 54 c 0
 119 51 121 45 118 42 c 0
 117 41 116 41 114 41 c 1
 115 34 115 26 118 18 c 1
 114 18 l 1
 111 29 105 30 109 39 c 1x0408
 108 38 108 36 104 37 c 1
 105 38 105 39 105 40 c 0
 97 43 101 57 90 58 c 1
 91 49 100 46 91 41 c 1
 86 48 85 61 78 64 c 1
 81 63 79 56 76 60 c 0
 79 71 69 77 66 84 c 0
 63 93 63 101 60 110 c 0
 55 129 38 151 41 172 c 1
 41 159 52 172 41 172 c 1xc020
 34 187 36 206 29 223 c 0
 26 227 23 231 22 235 c 0
 11 266 12 302 -3 321 c 1
 1 324 5 323 2 330 c 0
 2 332 1 333 -2 333 c 2
 -3 336 l 1
 4 337 3 339 3 342 c 1xc040
 -4 341 -3 339 -3 336 c 1
 -14 336 -2 344 -1 344 c 0
 2 347 1 347 -2 346 c 1
 5 353 -8 363 -3 367 c 0
 -2 368 -1 368 0 368 c 0
 2 368 3 368 3 369 c 0
 4 374 0 377 0 381 c 0
 1 384 5 384 6 387 c 0
 7 390 3 392 8 393 c 1
 9 386 22 387 25 380 c 0
 29 373 27 366 31 358 c 1
 26 355 32 355 31 358 c 1
 55 345 52 312 63 285 c 0
 70 270 78 260 65 249 c 1
 66 250 58 250 62 247 c 1
 72 250 68 234 72 232 c 0
 75 231 76 237 79 234 c 0
 80 231 76 230 77 227 c 0xa280
 80 218 93 206 86 191 c 1
 78 191 91 215 71 209 c 1
 80 186 86 160 91 141 c 0
 92 136 90 131 91 127 c 0
 94 120 99 116 102 111 c 0
 103 108 104 106 104 104 c 1
 108 123 121 142 128 162 c 0
 133 179 133 194 150 193 c 1
 149 193 155 188 154 193 c 0
 143 199 158 208 156 212 c 0x0b
 155 215 149 211 149 215 c 0
 150 218 154 216 155 219 c 0
 159 228 158 247 173 254 c 1
 178 249 154 238 173 230 c 1
 182 254 196 279 205 298 c 0
 208 302 214 304 215 308 c 0
 218 315 216 322 219 329 c 0
 231 360 257 381 278 409 c 1
 281 407 l 1
 274 398 277 391 268 387 c 1
 278 377 258 369 267 360 c 1
 272 367 267 376 279 372 c 1
147 203 m 1
 144 206 146 205 146 208 c 1
 149 207 147 206 147 203 c 1
185 268 m 1
 181 271 184 272 185 275 c 1
 188 272 186 271 185 268 c 1
282 383 m 1
 290 373 271 375 282 383 c 1
136 57 m 1
 137 56 138 55 138 52 c 1
 135 55 136 56 136 57 c 1
141 70 m 1
 142 72 l 2
 145 71 145 69 141 70 c 1
150 81 m 1
 151 84 155 80 150 81 c 1
EndSplineSet
EndChar

StartChar: g
Encoding: 103 103 25
Width: 289
Flags: MW
HStem: -58 16 4 53<125.5 129 129 130 130 131 115 133.5> 70 7 132 12<204 211.5> 144 12 157 19<201.5 210.5 209 214> 360 44<207 210 207 207 210 213 213 217 206 223 206 243>
VStem: 17 47<164 184.5> 98 12<155 156 155 159 155 159> 99 8<152 154> 165 11 188 9 205 30 266 7<310 325.5> 277 16
LayerCount: 2
Fore
SplineSet
289 364 m 1xc78c
 292 356 l 2
 294 346 294 336 293 325 c 0
 292 314 291 307 288 298 c 0x0302
 284 281 279 264 272 248 c 1
 268 249 l 1
 272 260 273 267 274 274 c 0
 275 281 277 288 281 295 c 1
 274 299 277 309 277 320 c 0
 278 325 278 330 277 335 c 0
 276 340 273 342 270 343 c 1
 271 334 273 329 273 322 c 0
 273 316 271 312 266 310 c 1
 266 318 266 330 265 339 c 2
 261 350 l 2
 259 353 257 354 255 354 c 1
 256 354 257 352 257 349 c 0
 256 348 256 347 256 347 c 2
 255 347 255 347 254 348 c 0
 254 351 253 354 251 356 c 0
 250 357 247 359 243 360 c 0
 236 361 230 360 223 360 c 2
 210 360 l 1
 207 360 l 1
 205 359 l 1
 199 359 l 2
 192 358 185 357 178 354 c 0
 169 351 162 346 155 339 c 0
 148 334 140 327 133 318 c 0
 120 303 108 286 96 271 c 1
 103 278 101 281 98 280 c 0
 95 280 92 276 95 269 c 1
 88 256 82 241 75 226 c 0
 68 210 64 194 64 175 c 0
 63 167 65 159 66 151 c 0
 66 137 68 123 72 109 c 0
 75 95 81 83 89 74 c 0
 96 65 105 59 115 57 c 0
 120 57 124 56 129 57 c 2
 130 57 l 1
 131 57 l 1
 133 58 l 2
 135 58 136 58 137 59 c 0
 138 59 141 60 145 61 c 0
 146 58 145 56 148 55 c 0
 150 53 153 53 157 55 c 0
 160 56 162 58 161 60 c 1
 162 60 164 60 165 61 c 1
 166 54 169 56 172 57 c 1
 170 61 168 62 165 61 c 1
 164 64 164 66 166 66 c 0
 169 65 172 63 173 63 c 0
 176 60 177 63 174 64 c 1
 178 63 181 67 184 76 c 0
 187 83 187 88 191 91 c 2
 192 91 l 2
 193 90 193 90 194 90 c 0
 195 89 196 89 197 89 c 0x4324
 201 98 198 107 201 114 c 0
 202 115 203 117 205 118 c 0
 205 125 205 129 204 132 c 1
 207 132 209 133 209 135 c 0
 209 137 208 138 207 138 c 1
 207 140 l 1
 210 139 211 140 212 142 c 1
 208 143 208 141 207 140 c 0
 200 143 209 144 210 144 c 0
 213 144 211 145 210 145 c 1x5008
 215 148 211 154 214 157 c 2
 218 156 l 2
 219 157 219 158 219 159 c 1
 218 159 l 2
 215 159 211 158 204 157 c 0
 199 157 194 155 189 158 c 1
 194 155 192 162 189 158 c 1
 182 155 174 160 165 157 c 0
 162 157 162 155 159 155 c 0x0408
 144 152 128 156 119 151 c 1
 118 154 116 155 115 154 c 0
 114 154 113 154 113 153 c 1
 112 153 l 1
 112 155 111 156 110 156 c 1
 110 154 111 153 112 153 c 1
 111 148 109 153 108 154 c 0
 108 157 107 155 107 154 c 1
 104 157 99 152 98 155 c 2
 98 159 l 2
 95 160 95 158 92 159 c 1
 93 159 92 160 90 162 c 0
 88 162 87 162 87 163 c 1
 90 163 92 169 95 170 c 0
 98 171 101 169 105 170 c 1
 106 167 106 170 105 170 c 1
 114 179 127 175 140 178 c 0
 148 179 154 182 157 175 c 1
 156 176 155 173 158 174 c 0
 158 179 164 176 165 177 c 0
 166 178 164 180 165 180 c 0
 166 181 165 179 168 179 c 0
 172 180 178 184 185 180 c 0
 184 177 175 184 176 175 c 1
 187 176 200 177 209 176 c 0
 212 176 212 175 215 175 c 0
 218 175 220 177 223 178 c 0
 230 179 236 178 243 178 c 0
 250 177 257 177 263 179 c 1
 264 177 l 1
 259 176 258 172 254 175 c 1
 254 172 253 171 250 171 c 0
 247 170 246 168 245 167 c 1
 249 167 250 172 253 167 c 1
 249 164 244 165 241 162 c 1
 242 163 246 161 243 161 c 0
 239 162 235 160 232 159 c 2
 232 157 l 2x04a0
 233 154 230 149 230 144 c 1
 227 144 230 143 230 144 c 1
 241 131 232 114 231 97 c 0
 230 88 234 81 223 78 c 1
 224 78 220 80 221 77 c 0
 228 76 221 70 224 67 c 0
 224 66 227 69 227 66 c 0
 228 65 225 66 225 63 c 0
 224 56 228 48 221 41 c 1
 218 44 229 51 217 54 c 1
 217 39 215 24 212 13 c 0
 212 10 209 9 209 6 c 0x2808
 208 2 211 -2 211 -6 c 0xa010
 210 -23 202 -39 197 -58 c 1
 195 -58 l 1
 196 -51 194 -49 198 -45 c 1
 190 -42 199 -34 192 -31 c 1
 189 -36 195 -39 188 -40 c 1
 187 -35 190 -28 187 -25 c 1
 188 -26 185 -29 185 -26 c 0
 188 -21 185 -16 185 -11 c 0
 185 -6 187 -1 188 4 c 0
 189 9 188 13 189 20 c 1
 184 16 180 14 177 13 c 0
 169 9 161 8 153 5 c 0
 145 4 137 4 130 4 c 0
 121 4 112 5 102 7 c 0xc090
 93 10 84 14 75 19 c 0
 58 30 46 44 35 60 c 0
 23 79 16 94 13 109 c 0
 10 124 12 135 20 143 c 1
 17 140 26 136 23 147 c 1
 16 147 16 155 17 164 c 0
 17 172 21 182 18 185 c 0
 17 189 11 178 11 186 c 0
 11 191 16 191 17 198 c 0
 18 209 19 223 23 238 c 0
 26 253 32 268 43 279 c 1
 46 275 38 266 33 255 c 0
 28 244 25 235 36 232 c 1
 43 259 54 284 69 307 c 0
 84 330 100 349 119 364 c 0
 127 371 138 373 145 378 c 2
 164 390 l 2
 171 395 178 398 184 400 c 0
 189 402 194 403 199 403 c 0
 202 403 203 404 206 404 c 2
 210 404 l 1
 213 404 l 2
 221 404 229 405 240 402 c 0
 245 401 249 400 256 397 c 0
 259 396 261 396 264 393 c 0
 267 392 269 390 272 388 c 0
 276 385 280 380 285 373 c 2
 289 364 l 1xc78c
9 169 m 1
 13 168 12 163 13 160 c 1
 9 160 10 165 9 169 c 1
70 322 m 1xa864
 73 319 68 314 65 310 c 1
 62 313 67 318 70 322 c 1xa864
266 303 m 0
 269 306 271 302 266 291 c 1
 262 296 263 300 266 303 c 0
182 87 m 1
 185 86 184 83 183 80 c 1
 180 81 182 84 182 87 c 1
173 63 m 1
 172 64 171 67 174 64 c 1
 173 63 l 1
161 60 m 1
 158 57 158 64 161 60 c 1
162 180 m 1
 162 179 161 179 160 179 c 1
 160 180 161 180 162 180 c 1
196 180 m 1
 195 179 194 178 193 178 c 1
 193 181 195 179 196 180 c 1
257 169 m 1
 256 164 250 170 257 169 c 1
99 152 m 1
 99 153 99 154 100 154 c 2
 101 154 l 1
 101 151 100 153 99 152 c 1
108 154 m 1
 108 153 107 151 107 154 c 1
 108 154 l 1
113 153 m 1
 114 153 114 150 113 153 c 1
228 70 m 1
 227 70 227 71 227 73 c 1
 228 72 228 71 228 70 c 1
217 32 m 1
 218 32 219 31 219 29 c 1
 216 29 218 31 217 32 c 1
189 -46 m 1
 184 -43 193 -39 189 -46 c 1
211 153 m 1
 210 153 210 154 210 155 c 1
 211 155 211 154 211 153 c 1
210 144 m 1
 209 144 207 145 210 145 c 1
 210 144 l 1
207 138 m 1x0408
 207 137 204 138 207 138 c 1x0408
EndSplineSet
EndChar

StartChar: c
Encoding: 99 99 26
Width: 287
Flags: MW
HStem: 4 53<113 116 116 117 117 118 102 121.5> 360 44<195 197 197 198 195 195 198 200 200 204.5 193 210 193 231>
VStem: 4 48 253 7 265 16
LayerCount: 2
Fore
SplineSet
279 356 m 0
 282 345 282 334 281 325 c 0
 280 314 279 307 276 298 c 0x48
 271 281 266 264 259 248 c 1
 256 249 l 1
 259 260 260 267 261 274 c 0
 264 281 264 287 269 295 c 1x50
 262 299 264 309 265 320 c 0x48
 265 327 265 332 264 335 c 0
 263 340 261 342 258 343 c 1
 258 334 260 329 260 322 c 0
 261 317 259 313 253 310 c 1
 253 318 255 330 252 339 c 0
 251 344 249 348 248 350 c 0
 246 353 244 354 242 354 c 1
 245 354 245 352 244 349 c 0
 244 348 244 347 243 347 c 0
 242 347 242 347 241 348 c 0
 241 351 240 354 238 356 c 0
 235 359 234 359 231 360 c 0
 224 361 218 360 210 360 c 2
 198 360 l 1
 195 360 l 1
 192 359 l 1
 187 359 l 2
 180 358 172 357 165 354 c 0x50
 158 351 150 346 142 339 c 0
 135 332 127 326 120 318 c 0
 107 303 96 286 84 271 c 1
 89 278 89 281 86 280 c 0
 83 280 79 276 82 269 c 1
 75 256 70 241 63 226 c 0
 56 210 52 194 51 175 c 0
 51 167 53 159 53 151 c 0
 54 137 56 123 59 109 c 0
 63 96 68 83 76 74 c 0
 84 65 93 59 102 57 c 0
 107 57 112 56 116 57 c 2
 117 57 l 1
 118 57 l 1
 121 58 l 2
 122 58 124 58 125 59 c 0
 127 59 129 60 132 61 c 2
 135 55 l 2
 138 54 141 54 144 55 c 0
 147 56 149 58 148 60 c 1
 150 60 151 60 152 61 c 1
 155 54 156 56 159 57 c 1
 157 61 155 62 152 61 c 1
 151 64 151 66 154 66 c 0
 157 65 159 63 160 63 c 0
 163 60 163 63 162 64 c 1
 166 63 169 69 172 76 c 0
 175 83 175 88 178 91 c 2
 179 91 l 2
 180 91 181 90 182 90 c 0
 183 89 184 89 185 89 c 0
 189 98 186 107 189 114 c 0
 190 119 193 118 196 121 c 0
 199 125 195 133 200 133 c 1
 200 126 203 121 206 116 c 0
 209 109 212 103 212 96 c 0
 212 91 210 83 207 73 c 2
 194 48 l 1
 187 48 191 43 194 48 c 1
 193 41 190 34 185 28 c 0
 179 21 172 16 165 13 c 0
 157 9 148 8 140 5 c 0
 132 4 125 4 118 4 c 0
 108 4 99 5 90 7 c 0
 80 10 71 14 63 19 c 0
 46 30 33 44 22 60 c 0
 11 77 4 94 1 109 c 0
 -2 124 0 136 7 143 c 1
 6 140 14 136 11 147 c 1
 4 147 4 155 4 164 c 0
 5 172 7 182 6 185 c 0
 3 189 -1 178 -1 186 c 0
 -1 191 3 191 4 198 c 0
 7 209 6 223 10 238 c 0
 14 253 20 268 31 279 c 1
 32 275 25 266 20 255 c 0
 16 244 12 235 23 232 c 1
 30 259 41 284 56 307 c 0
 71 330 89 349 106 364 c 0
 114 371 125 373 133 378 c 2
 151 390 l 2
 158 395 165 399 172 400 c 0
 176 402 181 403 186 403 c 0
 189 403 190 404 193 404 c 2
 197 404 l 1
 200 404 l 2
 209 404 217 405 228 402 c 0
 231 401 236 400 243 397 c 0
 247 396 250 394 252 393 c 2
 260 388 l 2
 265 384 269 379 272 373 c 0
 273 371 275 368 276 364 c 0
 279 361 278 359 279 356 c 0
-3 169 m 1
 0 168 -1 163 0 160 c 1
 -4 160 -3 165 -3 169 c 1
57 322 m 1x90
 60 319 56 314 53 310 c 1
 50 313 54 318 57 322 c 1x90
253 303 m 0
 256 306 258 302 253 291 c 1
 249 296 250 300 253 303 c 0
171 80 m 1
 168 81 170 84 169 87 c 1
 173 86 171 83 171 80 c 1
160 63 m 0
 159 64 159 67 162 64 c 1
 161 64 161 63 160 63 c 0
148 60 m 1
 145 57 145 64 148 60 c 1
EndSplineSet
EndChar

StartChar: k
Encoding: 107 107 27
Width: 242
Flags: MW
HStem: -22 21G -12 21G<19 19> 98 16 137 7 158 7 165 10 184 29<46 55> 358 7<92 98.5> 389 20G 390 20G
VStem: 15 8 57 41 89 41 163 11 198 20<249.5 253> 267 12<373 387 378 387 378 387>
LayerCount: 2
Fore
SplineSet
103 226 m 1x656b
 102 227 101 228 101 231 c 1
 102 230 103 229 103 226 c 1x656b
14 11 m 1
 6 19 23 23 14 11 c 1
101 381 m 1
 100 381 100 383 100 386 c 1
 101 385 101 384 101 381 c 1
98 367 m 1
 97 365 l 2
 94 366 94 368 98 367 c 1
91 354 m 1
 91 351 87 354 91 354 c 1
324 410 m 1
 321 405 329 393 326 386 c 0
 323 379 315 375 310 366 c 1
 305 369 309 363 310 366 c 1
 313 351 305 338 296 326 c 2
 264 291 l 2
 252 276 247 260 230 268 c 1x2805
 233 267 229 274 226 269 c 1
 234 261 218 255 218 251 c 0
 218 248 226 249 223 245 c 0
 220 242 218 247 215 244 c 0
 212 240 208 233 203 228 c 0
 197 221 190 217 183 216 c 1x656b
 182 220 188 222 193 225 c 0
 200 228 200 233 194 240 c 1
 175 220 151 201 132 189 c 0
 128 186 121 187 118 184 c 0
 115 182 113 180 112 177 c 0
 119 169 127 160 135 153 c 0
 147 142 161 139 154 124 c 1
 154 127 148 122 152 121 c 0
 160 129 164 114 168 114 c 0
 171 114 170 121 173 118 c 0
 174 117 171 115 174 112 c 0
 181 105 195 101 198 86 c 1
 193 83 191 107 178 94 c 1
 195 79 213 60 225 47 c 0
 228 44 228 39 231 36 c 0
 235 32 243 31 247 27 c 0
 270 8 281 -19 300 -44 c 1
 298 -46 l 1
 291 -38 285 -39 284 -30 c 1
 272 -36 271 -17 261 -22 c 1x2043
 265 -29 273 -27 268 -36 c 1
 261 -32 255 -21 248 -22 c 1
 251 -21 251 -29 247 -26 c 0
 244 -17 236 -15 229 -10 c 0
 222 -5 220 1 213 8 c 0
 201 21 178 32 169 51 c 1
 174 41 179 54 169 51 c 1
 158 60 151 75 136 86 c 0
 133 89 129 90 126 93 c 0
 106 112 91 137 72 148 c 1
 69 137 67 128 64 120 c 0
 63 115 58 111 57 107 c 0
 56 100 58 92 57 85 c 0
 52 52 35 22 22 -13 c 1
 19 -12 l 1
 23 -1 19 4 27 12 c 1
 17 17 30 32 23 39 c 1
 19 30 26 23 15 22 c 1
 15 33 21 46 18 51 c 1xa004
 19 48 13 43 14 48 c 0
 21 57 16 66 19 77 c 2
 27 105 l 2
 30 116 30 128 33 140 c 1
 22 137 11 136 0 135 c 1
 -1 138 l 1
 11 141 13 148 24 145 c 1
 23 152 28 153 33 156 c 0
 36 157 37 158 37 158 c 2
 38 162 39 165 40 166 c 1
 33 163 31 154 24 165 c 1
 31 169 39 172 44 176 c 0
 44 177 45 179 45 180 c 1
 43 180 42 180 42 181 c 1
 41 181 l 1
 41 181 41 181 42 182 c 1
 41 182 41 182 42 183 c 2
 46 183 l 1x5020
 46 184 l 2
 44 185 43 186 43 188 c 0
 44 189 48 192 48 193 c 0
 45 197 41 198 40 202 c 0
 39 205 42 206 42 209 c 0x0820
 42 212 37 211 40 215 c 1
 43 212 50 213 55 213 c 1
 58 220 59 224 60 231 c 0
 61 236 60 241 61 246 c 0
 69 279 88 320 85 343 c 1
 88 343 92 342 93 349 c 0
 93 352 92 353 91 354 c 2
 92 358 l 1
 95 357 98 358 99 361 c 1
 96 362 93 361 92 358 c 1
 84 362 94 365 97 365 c 0
 100 365 99 367 98 367 c 1
 103 370 101 386 106 389 c 1
 106 388 106 388 107 388 c 2
 109 388 l 2
 110 387 111 387 112 387 c 0x0230
 115 392 113 397 116 401 c 0
 117 404 119 401 122 404 c 0
 125 405 123 410 127 409 c 1
 124 402 133 395 133 388 c 0
 133 381 129 373 126 364 c 1
 122 364 126 361 126 364 c 1
 137 337 121 308 114 277 c 0
 111 258 113 243 98 240 c 1
 99 240 94 244 95 239 c 1
 105 236 92 222 95 219 c 0
 96 218 99 220 100 219 c 2
 115 233 l 2
 124 242 133 249 142 252 c 1
 133 246 147 243 144 253 c 1
 155 265 174 273 186 288 c 0
 189 292 191 297 194 300 c 0
 205 313 219 324 231 336 c 0
 243 348 253 360 256 372 c 1
 260 369 264 366 267 373 c 0x0188
 268 374 268 376 267 378 c 2
 269 381 l 1
 273 378 276 378 278 380 c 1
 274 383 271 383 269 381 c 1
 262 390 274 385 277 385 c 0
 280 384 280 384 279 387 c 1
 287 384 289 404 295 401 c 0
 295 400 295 400 296 400 c 0
 297 400 297 399 298 399 c 2x0112
 301 397 l 1
 306 400 305 405 309 408 c 0
 312 409 315 406 318 407 c 0
 321 407 320 413 324 410 c 1
229 251 m 1
 226 254 229 254 229 257 c 1
 232 254 229 254 229 251 c 1
165 208 m 1
 168 204 164 204 163 201 c 1
 160 205 164 205 165 208 c 1
21 162 m 0
 24 161 23 158 16 158 c 1
 16 165 20 165 21 162 c 0
287 398 m 1
 284 401 286 400 287 403 c 1
 289 402 289 400 287 398 c 1
279 387 m 1
 277 385 l 1
 276 386 275 390 279 387 c 1
267 378 m 1
 266 375 262 381 267 378 c 1
168 123 m 1
 167 122 166 123 163 124 c 1
 166 127 165 124 168 123 c 1
212 71 m 1
 211 70 209 70 206 73 c 1
 209 76 209 72 212 71 c 1
276 -41 m 1
 266 -43 271 -31 276 -41 c 1
EndSplineSet
EndChar

StartChar: l
Encoding: 108 108 28
Width: 273
Flags: MW
HStem: -5 21G 0 21G<16 26> 4 17<7 26> 9 26<171.5 195.5> 22 7 32 7 362 7 389 20G
VStem: 22 9 35 21<-14 -14> 90 10 102 42 105 12 114 16<35 38.5 32 40> 224 7
LayerCount: 2
Fore
SplineSet
117 229 m 1x1004
 121 228 119 225 120 224 c 1
 116 225 117 226 117 229 c 1x1004
94 146 m 1
 90 149 92 151 92 154 c 1
 96 151 94 149 94 146 c 1
104 383 m 1
 103 384 102 385 102 388 c 1
 103 387 104 386 104 383 c 1
100 367 m 1
 97 368 96 370 100 369 c 1
 100 367 l 1
93 356 m 1
 92 353 86 356 93 356 c 1
263 25 m 1
 263 23 l 1
 255 24 252 20 247 25 c 1
 244 17 234 26 231 18 c 1
 238 15 241 22 242 14 c 1
 235 13 227 15 224 12 c 1
 227 13 230 9 227 9 c 0
 220 13 216 9 209 8 c 0
 202 8 199 9 192 9 c 0
 180 9 164 3 149 7 c 1
 157 4 152 14 149 7 c 1x0aa0
 138 4 127 8 115 5 c 0
 112 5 109 3 106 3 c 0
 86 0 60 4 47 -5 c 1x0110
 46 -2 46 1 41 0 c 0x1004
 41 -1 41 -1 40 -1 c 1x1002
 40 -2 40 -2 39 -3 c 1
 42 -3 40 -6 39 -3 c 1x4002
 35 -14 l 1
 31 -13 l 1
 32 -8 33 -4 33 -3 c 2
 31 -1 l 2
 31 2 30 0 30 -1 c 1
 27 3 19 -4 16 0 c 2
 16 4 l 2
 13 5 10 3 7 4 c 0x1002
 4 4 5 7 4 8 c 0
 3 9 0 7 0 10 c 1
 4 10 7 17 11 20 c 0
 15 23 19 20 26 21 c 1
 27 18 27 22 26 21 c 1
 26 22 27 22 27 23 c 1
 26 23 25 22 22 22 c 0
 21 33 28 45 23 52 c 1
 26 49 18 45 18 49 c 0
 26 58 22 69 23 78 c 0
 24 89 28 97 31 106 c 0x4080
 36 126 33 156 46 176 c 1
 41 167 54 170 47 177 c 1
 50 194 60 212 63 233 c 0
 63 238 62 243 63 248 c 0
 68 282 91 321 86 345 c 1
 90 345 95 344 95 351 c 0x2080
 95 354 94 355 93 356 c 2
 94 360 l 1
 101 357 101 359 102 362 c 0
 95 365 95 363 94 360 c 1
 83 365 97 366 100 367 c 0
 104 366 103 369 100 369 c 1
 108 372 106 390 110 390 c 1
 110 389 110 389 111 389 c 2
 114 389 l 2
 115 388 116 388 117 388 c 0
 121 392 118 398 121 402 c 0
 124 405 127 403 130 404 c 0
 133 407 130 410 135 409 c 1
 132 402 144 395 145 387 c 0
 145 380 139 374 138 363 c 1
 133 363 138 360 138 363 c 1
 154 337 135 305 130 275 c 0
 127 256 131 242 112 239 c 1
 115 239 105 243 108 238 c 0
 119 232 106 222 110 218 c 0
 111 215 117 220 117 216 c 0
 117 213 113 214 112 211 c 0
 109 200 116 182 101 171 c 1
 96 174 117 191 96 196 c 1x0ba0
 92 169 83 139 78 119 c 0
 77 112 71 110 70 106 c 0
 69 99 73 91 72 83 c 0
 69 66 63 50 56 33 c 1
 63 33 70 34 77 35 c 0
 88 38 97 43 102 32 c 1
 101 33 100 27 103 30 c 0
 103 38 111 32 114 35 c 0
 115 38 111 39 114 40 c 0x0110
 115 41 115 38 118 38 c 0
 125 39 134 46 143 39 c 0
 143 35 130 45 130 32 c 1
 146 35 165 35 178 35 c 0
 181 35 184 32 187 32 c 0
 191 33 195 36 200 36 c 0
 221 39 240 30 263 25 c 1
31 39 m 1x1004
 28 32 31 28 30 25 c 1
 31 26 32 28 35 29 c 0
 36 34 35 37 31 39 c 1x1004
109 40 m 1
 109 37 107 38 106 37 c 1
 106 40 108 39 109 40 c 1
159 39 m 1
 158 38 157 37 155 37 c 1
 155 38 156 39 159 39 c 1
249 16 m 1
 245 9 241 19 249 16 c 1
19 -5 m 1
 19 -2 20 -3 21 -2 c 1
 21 -3 20 -4 19 -5 c 1
31 -1 m 2
 32 -4 31 -4 30 -1 c 1
 31 -1 l 2
EndSplineSet
EndChar

StartChar: i
Encoding: 105 105 29
Width: 219
Flags: MW
HStem: -12 21G 0 25 5 19<82 110.5 91 110.5> 15 10 358 7<145 151.5> 387 23 389 20 392 20G<169.5 170 172.5 173> 402 8
VStem: 1 12<3 4 3 6 3 6> 3 7<0 2.5> 67 7<24 29.5 27 29.5> 75 7<5 5> 78 12 107 12<388 389 388 391 388 391> 109 7<385 387.5> 142 41 143 9 155 10<23 23> 173 10<409 410.5 406 412>
LayerCount: 2
Fore
SplineSet
156 226 m 1x445080
 153 227 155 228 154 231 c 1
 155 230 156 229 156 226 c 1x445080
131 148 m 1
 128 151 130 152 130 155 c 1
 132 154 132 152 131 148 c 1
154 381 m 1x040010
 153 381 153 383 153 386 c 1
 154 385 154 384 154 381 c 1x040010
150 365 m 2
 147 366 147 368 151 367 c 1
 150 365 l 2
144 354 m 1
 144 351 140 354 144 354 c 1
271 410 m 1
 271 408 l 1
 266 408 265 405 261 408 c 1x100120
 260 401 254 408 251 401 c 1
 255 401 256 405 259 400 c 1
 255 397 250 399 247 396 c 1
 248 399 252 396 249 395 c 0
 245 398 241 394 237 393 c 0
 233 392 230 393 226 393 c 0
 217 392 206 387 197 390 c 1
 202 387 198 395 197 390 c 1
 193 389 189 389 186 390 c 1x089080
 186 388 l 2
 186 381 182 373 179 364 c 1
 175 364 179 361 179 364 c 1
 190 337 174 308 167 277 c 0x445080
 164 258 166 243 151 240 c 1
 154 240 147 244 148 239 c 1
 158 236 145 222 148 219 c 0
 149 216 154 222 154 218 c 0
 154 215 150 216 149 213 c 0x040080
 146 202 149 184 138 172 c 1
 132 175 153 191 136 197 c 1x010080
 131 170 124 141 117 120 c 0
 116 115 111 111 111 107 c 0
 108 100 111 92 110 85 c 0
 107 64 98 44 90 23 c 1
 97 24 104 24 109 24 c 0
 112 24 112 23 115 23 c 0
 118 23 120 26 123 26 c 0x020080
 138 29 150 25 165 25 c 1
 165 23 l 1
 161 23 159 20 155 23 c 1
 154 16 148 23 145 16 c 1
 149 16 150 20 153 15 c 1
 149 14 144 15 141 12 c 1
 142 13 146 11 143 10 c 0
 139 13 135 9 131 8 c 0
 128 7 124 8 120 8 c 0
 111 7 100 2 91 5 c 1x040440
 96 4 92 10 91 5 c 1
 82 5 l 1
 75 -13 l 1
 72 -12 l 1x400420
 75 -5 74 0 75 5 c 1
 72 5 69 5 67 4 c 0
 64 4 64 3 61 3 c 0
 46 0 32 4 21 0 c 1
 21 2 20 3 18 2 c 0
 17 2 16 2 16 1 c 1
 15 1 l 1
 15 3 14 4 13 4 c 1
 13 2 14 1 15 1 c 1x100020
 14 -4 12 1 11 2 c 0
 11 5 10 3 10 2 c 1
 9 5 4 0 1 3 c 2x2008
 1 6 l 2
 -2 7 -2 6 -5 6 c 0x8008
 -7 8 -8 9 -7 9 c 1
 -7 10 -9 8 -9 11 c 1
 -6 11 -5 16 -2 17 c 0x4008
 1 18 4 17 8 17 c 1
 9 14 9 18 8 17 c 1
 17 28 30 22 43 25 c 0
 50 26 56 29 59 22 c 1
 59 23 57 20 60 21 c 0
 60 26 66 23 67 24 c 0
 68 25 66 27 67 27 c 2
 68 27 l 1
 71 36 74 47 71 51 c 1
 72 48 66 43 67 48 c 0
 74 57 71 66 72 77 c 2
 80 105 l 2
 85 125 85 155 97 175 c 1
 90 163 104 168 97 175 c 1
 100 194 110 211 113 231 c 0
 114 236 113 241 114 246 c 0
 122 279 141 320 138 343 c 1
 141 343 145 342 146 349 c 0
 146 352 145 353 144 354 c 2
 145 358 l 1
 148 357 151 358 152 361 c 1
 149 362 146 361 145 358 c 1
 137 362 147 365 150 365 c 0
 153 365 152 367 151 367 c 1
 156 370 155 382 158 387 c 1
 146 387 134 388 127 384 c 1
 127 387 126 388 124 387 c 0
 123 387 122 387 122 386 c 1
 121 386 l 1
 121 388 120 389 119 389 c 1
 119 387 120 386 121 386 c 1
 120 381 118 386 117 387 c 0
 117 390 116 388 116 387 c 1
 115 390 110 385 107 388 c 2
 107 391 l 2
 104 392 104 390 101 391 c 2
 99 394 l 2
 99 395 97 393 97 396 c 1x485080
 100 396 101 401 104 402 c 0x040080
 107 403 110 402 114 402 c 1
 115 399 115 403 114 402 c 1
 123 413 136 407 149 410 c 0
 156 411 162 414 165 407 c 1
 165 408 163 405 166 406 c 0
 166 411 172 406 173 409 c 0
 174 410 172 412 173 412 c 0
 174 413 173 411 176 411 c 0
 180 411 187 415 192 411 c 0
 191 408 183 415 183 406 c 1
 194 408 204 409 215 409 c 0
 218 409 218 408 221 408 c 0
 224 408 226 411 229 411 c 0
 244 414 256 410 271 410 c 1
76 39 m 1
 75 36 74 32 74 27 c 1
 75 27 77 28 78 28 c 0
 79 33 79 36 76 39 c 1
170 412 m 1
 170 411 169 411 168 411 c 1
 168 412 169 412 170 412 c 1
202 412 m 1
 202 411 201 410 200 410 c 1
 200 413 201 411 202 412 c 1
263 402 m 1
 260 397 258 403 263 402 c 1
109 385 m 1
 109 386 110 387 111 387 c 1
 111 384 110 386 109 385 c 1
117 387 m 1
 117 386 117 386 116 387 c 1
 117 387 l 1
122 386 m 1
 123 386 123 383 122 386 c 1
64 27 m 1
 64 26 63 26 62 26 c 1
 62 27 63 27 64 27 c 1
96 27 m 1
 96 24 95 26 94 25 c 1
 94 26 94 27 95 27 c 2
 96 27 l 1
157 17 m 1
 154 12 152 18 157 17 c 1
3 0 m 1
 3 1 4 2 5 2 c 1
 5 -1 4 1 3 0 c 1
11 2 m 1
 11 1 11 1 10 2 c 1
 11 2 l 1
16 1 m 1
 17 1 17 -2 16 1 c 1
EndSplineSet
EndChar

StartChar: h
Encoding: 104 104 30
Width: 313
Flags: MW
HStem: -16 21G -12 21G<21 21> 217 25<41 62 41 62 41 62 51 62> 221 22<162 190> 236 9<263 263> 358 7<93 100> 371 8 389 20G 396 8<244.5 254>
VStem: 16 8 27 14<218 218> 57 27 90 41 91 11 127 15<243 244.5 240 246> 170 8 232 9 243 38 245 7 251 7
LayerCount: 2
Fore
SplineSet
80 148 m 1x008040
 78 149 78 152 79 155 c 1
 82 154 80 151 80 148 c 1x008040
16 11 m 1
 9 18 23 23 16 11 c 1
103 381 m 1
 102 382 101 383 101 386 c 1
 102 385 103 384 103 381 c 1
99 367 m 1
 98 365 l 1
 97 366 96 368 99 367 c 1
92 354 m 1
 92 351 88 354 92 354 c 1
273 430 m 1
 270 422 281 414 282 405 c 0
 282 397 276 388 276 376 c 1
 269 376 275 373 276 376 c 1x008080
 289 347 272 310 267 272 c 0
 266 261 267 253 264 245 c 1
 275 245 l 1
 275 243 l 1
 270 243 267 241 264 241 c 0
 263 238 262 239 261 236 c 1
 263 236 l 1
 262 234 261 233 260 234 c 1x010810
 258 231 255 229 251 228 c 1x008040
 254 229 246 233 247 226 c 1
 258 223 246 208 249 203 c 0
 250 200 256 207 256 202 c 0
 256 199 251 199 251 195 c 0x088040
 248 183 253 162 241 147 c 1
 236 152 255 171 236 176 c 1
 232 144 225 109 220 84 c 0
 219 77 214 74 213 67 c 0
 212 59 215 50 215 42 c 0
 211 2 193 -34 182 -77 c 1
 179 -76 l 1
 182 -63 177 -57 185 -48 c 1
 172 -40 189 -24 178 -16 c 1
 174 -27 182 -34 170 -37 c 1
 169 -25 175 -9 171 -2 c 1
 174 -5 166 -11 166 -6 c 0
 173 5 169 18 170 29 c 0
 171 40 174 51 177 62 c 0x080020
 182 87 180 122 192 147 c 1
 184 134 200 139 192 147 c 1
 193 168 203 190 206 215 c 0
 207 218 206 221 206 225 c 1
 193 224 177 218 162 221 c 1
 170 220 165 228 162 221 c 1
 151 220 139 223 127 220 c 0
 124 220 121 218 118 218 c 0
 113 218 107 217 102 217 c 1
 102 214 98 216 98 213 c 0
 95 202 98 184 86 172 c 1
 80 175 101 191 84 197 c 1
 79 170 71 141 66 120 c 0
 63 115 60 111 59 107 c 0
 58 100 60 92 59 85 c 0
 52 52 36 22 23 -13 c 1
 21 -12 l 1
 24 -1 21 4 28 12 c 1
 19 17 31 32 24 39 c 1
 20 30 27 23 16 22 c 1
 16 33 23 46 19 51 c 1
 20 48 14 43 15 48 c 0x900520
 22 57 19 66 20 77 c 2
 28 105 l 2
 35 125 34 155 46 175 c 1
 39 163 53 168 46 175 c 1
 47 188 53 199 57 214 c 0
 56 217 56 218 52 217 c 0
 50 217 49 217 49 216 c 1
 47 216 l 1
 47 218 46 219 44 219 c 1
 44 217 45 216 47 216 c 1
 46 209 43 216 42 217 c 0
 42 220 41 218 41 217 c 1
 38 220 30 215 27 218 c 0
 26 219 27 222 26 222 c 0
 23 223 21 221 18 221 c 0
 15 222 16 224 15 225 c 0x5050
 14 226 11 223 11 226 c 1
 15 226 18 233 22 234 c 0
 26 235 32 233 37 234 c 1
 38 231 40 235 37 234 c 1
 44 241 51 241 62 242 c 1
 62 246 l 1
 70 281 89 318 86 343 c 1
 90 343 93 342 94 349 c 0
 94 352 93 353 92 354 c 2
 93 358 l 1
 96 357 99 358 100 361 c 0
 97 363 94 362 93 358 c 1
 85 362 95 365 98 365 c 0
 102 365 100 367 99 367 c 1
 106 370 103 386 108 389 c 1
 113 387 l 1
 116 392 114 397 117 401 c 0
 120 404 121 401 124 404 c 0
 127 405 124 410 128 409 c 1
 125 402 134 395 134 388 c 0
 134 381 129 373 128 364 c 1
 123 364 127 361 128 364 c 1
 139 337 120 308 115 277 c 0
 112 262 113 252 108 245 c 1
 111 245 113 244 114 241 c 2
 114 240 l 2
 114 239 115 238 116 239 c 0
 116 246 124 240 127 243 c 0
 128 244 124 246 127 246 c 0
 128 247 128 245 131 245 c 0
 138 245 147 250 156 246 c 1
 155 242 142 249 142 240 c 1
 159 243 177 243 190 243 c 0
 193 244 196 242 199 242 c 0
 202 242 206 244 209 245 c 0x1528
 217 284 232 322 228 349 c 1
 232 350 236 348 237 357 c 0
 237 360 236 362 234 363 c 2
 235 367 l 1
 242 364 242 368 243 371 c 1
 239 372 236 371 235 367 c 1
 226 372 238 375 241 376 c 0
 245 376 244 378 241 379 c 1
 249 382 245 402 250 405 c 1
 250 404 250 404 251 404 c 2
 254 404 l 2
 255 403 256 403 257 403 c 0
 260 410 257 415 260 420 c 0
 263 423 265 420 268 423 c 0
 271 426 268 431 273 430 c 1
255 217 m 1
 259 216 257 215 258 212 c 1
 255 212 256 214 255 217 c 1
233 126 m 1
 236 125 234 121 234 118 c 1
 231 119 233 123 233 126 c 1
171 -50 m 1
 163 -42 178 -35 171 -50 c 1
245 396 m 1
 244 396 243 398 243 401 c 1
 244 400 245 399 245 396 c 1
241 379 m 1
 241 376 l 1
 238 377 237 379 241 379 c 1
234 363 m 1
 234 360 229 362 234 363 c 1
122 246 m 1
 122 243 120 245 119 244 c 1
 119 245 120 246 122 246 c 1
171 246 m 1x100040
 171 243 170 245 167 244 c 1
 168 245 169 246 171 246 c 1x100040
29 215 m 1
 29 218 31 216 32 217 c 1
 32 216 31 215 29 215 c 1
41 217 m 1
 42 217 l 1
 42 216 41 214 41 217 c 1
49 216 m 1
 52 216 50 213 49 216 c 1
EndSplineSet
EndChar

StartChar: e
Encoding: 101 101 31
Width: 316
Flags: MW
HStem: 19 21<41 41 36 59.5> 30 11 47 8 221 17<196 207> 240 172<210 374> 341 23 373 7 388 20G 390 20G<249 250.5> 394 19 403 8
VStem: 44 18<14 14.5> 51 7 86 7 86 54 103 7<363 366 363 366.5> 110 8 114 43<327.5 363> 123 10 130 8<49 57> 143 16 154 10<237 239.5 235 240> 189 7 202 18<407 410 402 412> 242 10<237 237> 258 7 333 7
LayerCount: 2
Fore
SplineSet
111 159 m 1x30482160
 115 158 113 156 113 153 c 1
 109 156 111 156 111 159 c 1x30482160
120 363 m 1
 121 363 122 362 122 359 c 1x00800140
 121 360 120 361 120 363 c 1
118 345 m 2
 115 346 115 348 119 347 c 1x002001
 118 345 l 2
112 336 m 1
 112 333 107 336 112 336 c 1
374 412 m 1x002002
 375 409 l 1
 366 408 364 404 357 408 c 1
 354 397 342 406 340 396 c 1x004040
 347 395 350 403 353 394 c 1
 346 391 336 392 333 387 c 1
 334 390 340 386 336 385 c 0x100004
 329 388 323 382 316 381 c 0
 309 378 302 380 295 380 c 0
 280 377 261 370 244 374 c 1x080001
 255 371 247 382 244 374 c 1x30482160
 232 371 218 375 203 372 c 0
 199 371 196 369 193 368 c 0
 181 367 168 367 156 367 c 1
 157 366 157 364 157 362 c 0
 158 355 153 350 152 342 c 1
 147 342 151 339 152 342 c 1
 165 318 149 292 144 265 c 0
 143 254 143 246 140 239 c 1
 143 239 145 238 146 235 c 1
 145 236 144 233 147 234 c 0
 147 239 153 234 154 237 c 0
 155 238 151 240 154 240 c 0
 155 241 154 239 157 239 c 0
 161 239 166 244 173 240 c 0
 172 237 164 244 164 235 c 1x00404020
 196 238 l 2x1002
 199 238 199 236 202 236 c 2
 210 240 l 2
 223 243 237 239 252 239 c 1
 252 237 l 1
 247 237 246 234 242 237 c 1
 241 230 235 237 232 230 c 1
 236 230 237 234 240 229 c 1
 236 226 231 228 228 225 c 1
 229 226 233 224 230 224 c 0
 226 227 222 223 218 222 c 0
 215 221 211 222 207 221 c 0x10000480
 198 221 187 215 178 218 c 1
 183 217 179 223 178 218 c 1
 171 217 162 220 154 217 c 0
 153 217 151 216 148 215 c 2
 133 215 l 1
 133 213 l 2
 133 210 129 212 129 209 c 0
 126 200 131 183 119 174 c 1
 114 177 134 190 115 196 c 1
 111 173 104 148 99 129 c 0
 98 124 93 121 93 118 c 0
 92 111 95 105 94 98 c 0
 91 82 86 67 78 51 c 1
 87 52 96 50 105 53 c 0
 117 56 126 60 130 49 c 1
 130 50 129 44 132 47 c 0
 131 55 140 49 143 52 c 0
 144 55 140 56 143 57 c 0x10002080
 144 58 144 55 147 55 c 0
 154 56 164 63 173 56 c 1
 170 52 158 61 159 48 c 1
 176 51 195 52 208 53 c 0
 211 53 214 51 217 51 c 0
 222 52 226 56 230 57 c 0
 251 61 272 55 295 55 c 1
 295 53 l 1
 288 52 287 48 280 52 c 1
 278 42 265 49 265 42 c 1
 272 41 273 47 276 40 c 1
 271 37 261 38 258 34 c 1
 259 37 264 33 261 32 c 0
 254 35 250 30 243 29 c 0
 236 26 232 28 225 28 c 0
 212 27 195 19 180 23 c 1
 188 20 181 30 180 23 c 1
 169 20 156 24 143 21 c 0x20080840
 140 21 137 19 134 18 c 0
 113 15 87 21 72 13 c 1
 71 16 71 20 67 17 c 0
 65 17 64 16 64 15 c 1
 62 15 l 1
 62 13 l 1
 61 13 l 1
 60 9 57 16 57 17 c 0
 56 20 55 18 55 17 c 1
 52 22 44 15 41 19 c 2
 41 23 l 1
 37 26 35 22 32 23 c 0
 31 23 30 25 29 28 c 0
 26 29 25 26 25 30 c 1
 29 30 31 37 36 40 c 0
 39 41 44 40 49 40 c 1
 49 43 50 43 52 41 c 2
 61 48 l 2x40100040
 62 52 63 57 58 60 c 1
 55 52 62 45 51 45 c 1
 50 54 56 66 51 71 c 1
 54 68 47 64 47 69 c 0
 54 76 50 86 51 94 c 0
 52 102 55 110 58 118 c 0x8010
 63 137 60 161 72 180 c 1
 65 170 80 172 72 180 c 1
 73 192 80 203 84 218 c 1
 82 218 l 2
 80 220 79 221 80 221 c 1
 79 222 78 220 78 223 c 1
 81 223 82 228 85 229 c 2
 86 229 l 1
 86 233 85 238 86 242 c 0
 93 271 110 303 106 326 c 1
 110 326 114 324 114 331 c 0
 114 334 113 335 112 336 c 2
 113 339 l 2
 116 338 119 338 120 341 c 1
 117 342 114 342 113 339 c 1
 104 343 115 344 118 345 c 0
 121 344 121 345 119 347 c 1
 124 348 122 358 125 362 c 1
 124 362 123 362 122 361 c 1
 121 364 121 369 116 366 c 0
 114 366 113 365 113 364 c 2
 110 363 l 1
 111 368 110 368 107 369 c 1
 107 364 109 364 110 363 c 0
 109 355 105 363 104 366 c 0
 104 369 103 367 103 366 c 1x840840
 99 371 89 363 86 367 c 2
 86 373 l 1
 82 374 79 371 76 372 c 0
 73 373 74 376 73 377 c 0
 70 380 68 376 68 380 c 1
 73 380 76 388 81 391 c 0
 85 394 91 391 98 392 c 1
 99 389 101 393 98 392 c 1
 113 409 136 403 159 407 c 0x0404
 172 410 181 415 188 403 c 1
 187 404 186 398 189 401 c 0
 189 409 199 404 202 407 c 0
 203 408 199 411 202 412 c 0
 203 413 203 409 206 410 c 0
 214 411 225 419 236 412 c 1x020040
 233 407 220 418 220 402 c 1
 239 406 261 407 276 408 c 0x010040
 280 409 283 406 286 406 c 0x004042
 291 407 296 412 301 413 c 0
 324 418 347 411 374 412 c 1x002002
60 19 m 1x840080
 59 19 59 19 59 20 c 1
 59 17 l 1
 59 18 59 19 60 19 c 1x840080
130 215 m 1
 127 215 l 1
 127 215 128 215 130 215 c 1
135 365 m 1
 132 365 131 365 130 364 c 1
 133 364 133 363 134 363 c 1
 134 364 134 365 135 365 c 1
196 412 m 1
 196 409 194 410 193 409 c 1x0044
 193 412 195 411 196 412 c 1
253 413 m 1
 253 409 252 410 249 410 c 1
 249 413 252 412 253 413 c 1
361 397 m 1
 358 389 350 400 361 397 c 1
90 362 m 1
 90 365 90 364 93 365 c 1x20010080
 93 362 91 363 90 362 c 1
104 366 m 1
 104 363 103 363 103 366 c 1
 104 366 l 1
113 364 m 1
 116 364 114 360 113 364 c 1
151 240 m 1x201010
 151 240 150 239 149 238 c 1
 149 239 150 240 151 240 c 1x201010
183 240 m 1
 183 237 182 239 181 238 c 1
 181 239 182 240 183 240 c 1
244 231 m 1
 241 226 239 232 244 231 c 1
135 54 m 1
 135 57 137 56 138 57 c 1
 138 54 136 55 135 54 c 1
188 57 m 1
 188 54 186 55 185 54 c 1
 185 57 187 56 188 57 c 1
283 42 m 1
 280 35 274 45 283 42 c 1
44 14 m 1
 44 15 45 16 46 16 c 1
 46 13 45 15 44 14 c 1
57 17 m 1
 57 16 56 14 55 17 c 1
 57 17 l 1
64 15 m 1
 67 15 65 12 64 15 c 1
EndSplineSet
EndChar

StartChar: d
Encoding: 100 100 32
Width: 320
Flags: MW
HStem: 11 29 22 10 34 9 345 11<148 151.5> 345 22 362 10 379 32 391 20G
VStem: 53 7 57 10 86 27 104 49 121 10 285 44<222 239.5>
LayerCount: 2
Fore
SplineSet
133 231 m 1x8194
 132 232 131 233 131 236 c 1
 132 235 133 234 133 231 c 1x8194
110 174 m 1
 114 173 112 172 112 169 c 1
 111 170 110 171 110 174 c 1
54 59 m 1
 45 65 60 67 54 59 c 1
117 366 m 1
 118 365 119 364 119 362 c 1
 116 363 118 363 117 366 c 1
116 349 m 1
 113 349 113 351 116 350 c 2
 116 349 l 1
110 340 m 1
 110 337 105 340 110 340 c 1
335 211 m 0
 335 206 330 206 329 199 c 0
 326 188 324 175 319 160 c 0x0108
 318 156 317 153 314 149 c 0x8020
 313 147 312 144 309 140 c 0
 304 133 299 127 294 124 c 1
 293 128 300 136 307 145 c 0x8080
 310 150 312 154 312 158 c 0
 313 162 311 165 307 167 c 1
 302 154 296 143 289 132 c 0
 282 121 275 111 266 100 c 0x8040
 249 80 230 64 211 53 c 0
 203 46 192 47 185 42 c 0
 173 35 163 27 150 22 c 0
 119 11 86 8 53 11 c 0
 37 14 21 15 5 19 c 2
 -19 25 l 2x8194
 -24 26 -29 28 -32 29 c 2
 -38 30 l 1
 -44 33 l 1
 -43 36 l 1
 -39 35 -37 34 -36 34 c 0
 -34 33 -32 33 -29 33 c 0
 -26 32 -23 32 -18 32 c 0
 -12 31 -5 28 2 25 c 1
 6 32 14 30 25 30 c 0
 36 29 45 27 48 34 c 1
 39 35 33 34 28 34 c 0
 23 33 19 36 16 41 c 1
 24 41 34 40 45 40 c 0
 50 40 56 41 61 42 c 0x8004
 62 43 62 43 62 44 c 0
 58 45 53 47 60 48 c 1x4080
 60 47 61 47 62 47 c 1
 62 51 62 55 67 58 c 1
 56 64 71 76 60 81 c 1
 57 74 64 68 53 68 c 1
 52 76 58 87 54 92 c 1
 55 89 49 86 50 90 c 0
 57 97 52 106 53 113 c 0
 54 121 57 128 60 136 c 0
 64 153 62 177 73 194 c 1
 65 184 82 188 73 194 c 1
 74 209 83 223 86 239 c 0x2080
 86 243 85 248 86 252 c 0
 91 280 108 310 104 331 c 1x8080
 108 331 112 329 112 336 c 0
 112 338 111 339 110 340 c 2
 111 343 l 2
 114 342 117 342 118 345 c 1
 115 346 112 346 111 343 c 1
 102 347 113 348 116 349 c 0
 119 348 119 350 116 350 c 1
 123 353 119 366 124 367 c 0
 125 368 130 365 130 366 c 0
 131 367 132 368 132 369 c 2
 118 373 l 2
 110 374 103 375 100 379 c 1
 102 385 l 1x2080
 94 389 84 388 77 391 c 0x8020
 73 394 74 396 71 399 c 0
 68 402 60 400 61 405 c 1
 72 402 82 412 97 411 c 0
 109 410 124 403 140 399 c 1
 141 394 145 398 140 399 c 1
 163 403 187 396 214 384 c 0
 241 371 267 354 291 332 c 0
 306 319 316 306 323 291 c 0
 330 277 330 265 324 256 c 1
 325 259 318 262 322 251 c 1
 327 252 329 244 329 235 c 0
 329 226 327 216 328 212 c 0
 329 211 331 211 332 214 c 0x0810
 335 215 335 216 335 211 c 0
66 44 m 1
 67 44 l 1x1014
 66 44 l 1
285 222 m 0
 285 229 284 236 281 243 c 0
 278 254 276 266 269 277 c 0
 262 289 253 299 243 308 c 0
 222 327 197 338 177 342 c 0
 177 346 179 350 167 353 c 0x0410
 162 354 160 354 159 353 c 2
 153 355 l 2
 154 358 154 360 153 361 c 1
 152 360 152 359 151 356 c 1
 152 356 152 356 153 355 c 1
 152 354 151 353 150 353 c 0x4810
 149 350 148 348 148 345 c 1
 143 345 148 342 148 345 c 1
 162 322 144 299 141 273 c 0
 138 258 142 245 126 244 c 1
 129 244 122 247 123 243 c 0
 132 240 122 230 125 227 c 0x0410
 126 224 131 228 131 225 c 0x8194
 131 222 127 224 127 221 c 0
 124 213 129 197 118 188 c 1
 112 191 131 204 113 209 c 1
 110 186 103 163 99 146 c 0
 98 142 93 139 93 135 c 0
 92 130 95 124 94 117 c 0
 91 93 78 71 67 46 c 1
 74 46 78 47 85 48 c 0
 93 51 101 52 108 55 c 0
 124 59 140 60 155 67 c 0
 171 74 188 85 203 98 c 0
 218 111 230 125 245 138 c 1
 238 131 238 129 241 129 c 0
 246 130 247 134 246 139 c 0
 261 163 284 191 285 222 c 0
333 239 m 1
 336 239 336 233 337 230 c 1
 333 230 334 236 333 239 c 1
263 86 m 1
 260 89 266 93 269 97 c 1
 272 94 266 89 263 86 c 1
9 40 m 0
 12 37 8 36 -3 40 c 1
 2 44 6 44 9 40 c 0
113 372 m 1
 112 368 108 370 105 370 c 1
 106 371 108 372 113 372 c 1
159 353 m 1
 163 352 159 346 159 353 c 1
EndSplineSet
EndChar

StartChar: t
Encoding: 116 116 33
Width: 281
Flags: MW
HStem: -12 21G<107 107> 335 19 360 7 369 43<179.5 183 187 201 168 208 168 208> 369 46<163 183 163 208 163 208> 376 9<9 29> 389 21<342 342> 402 8 405 10
VStem: 29 7<366 376> 36 13<366 367> 97 41 148 9 153 44 163 20<408 412.5> 166 11 311 8
LayerCount: 2
Fore
SplineSet
178 205 m 1x0102
 177 205 176 206 176 209 c 1
 177 208 178 207 178 205 c 1x0102
156 141 m 1
 160 138 158 137 158 134 c 1
 154 137 156 138 156 141 c 1
98 10 m 1x0102
 90 18 105 20 98 10 c 1x0102
158 352 m 1
 158 350 159 349 160 348 c 1x0084
 160 350 159 351 158 352 c 1
157 335 m 1x0844
 157 333 l 1x0140
 154 334 153 336 157 335 c 1x0844
151 323 m 1
 151 320 146 323 151 323 c 1
275 410 m 0
 302 414 328 406 359 405 c 1
 359 402 l 1
 350 401 346 396 339 401 c 1
 337 389 322 401 319 389 c 1
 327 388 330 397 334 386 c 1x0808
 326 383 314 385 311 380 c 1
 312 383 318 377 314 376 c 0
 305 380 298 374 291 373 c 0
 283 372 275 373 267 373 c 0
 250 372 227 362 208 369 c 1x0824
 219 366 211 377 208 369 c 1
 202 368 195 368 187 369 c 1
 190 364 196 358 196 353 c 0x2040
 197 346 192 339 191 331 c 1x0102
 186 331 191 328 191 331 c 1
 207 306 189 281 186 251 c 0
 183 234 187 221 171 218 c 1x010080
 174 218 166 222 167 217 c 1
 178 214 167 203 170 199 c 0
 171 196 176 201 177 197 c 0
 177 194 172 196 172 193 c 0
 171 182 175 167 163 156 c 1
 156 159 177 173 158 179 c 1x020080
 155 154 149 128 144 109 c 0
 143 104 138 101 138 97 c 0
 137 90 141 84 140 77 c 0
 137 46 121 19 110 -13 c 1x0804
 107 -12 l 1
 110 -1 105 3 112 10 c 1
 99 15 116 29 105 35 c 1
 101 27 109 21 97 20 c 1
 96 29 102 42 97 47 c 1x4004
 100 44 93 40 93 44 c 0
 100 52 95 62 96 70 c 0
 97 79 101 87 102 96 c 0
 106 115 103 141 115 160 c 1
 107 150 124 154 115 160 c 1x2001
 116 176 126 192 127 211 c 0
 128 216 126 221 127 225 c 0
 132 257 150 289 145 313 c 1
 149 313 153 312 153 319 c 0
 153 321 152 322 151 323 c 2
 152 327 l 1
 155 326 158 326 159 329 c 1
 156 330 153 330 152 327 c 0
 141 330 156 333 157 333 c 0
 161 333 160 335 157 335 c 1
 165 338 160 353 165 354 c 0
 166 355 172 352 172 353 c 0
 175 357 172 362 175 366 c 0
 176 369 179 365 182 368 c 0
 183 368 183 368 183 369 c 1
 176 369 169 371 161 368 c 0x8010
 158 368 154 365 150 365 c 0
 121 362 88 370 69 361 c 1
 68 364 69 368 62 367 c 0
 60 367 59 366 59 364 c 1
 56 364 l 1
 56 368 55 370 52 370 c 1
 52 366 53 364 56 364 c 1
 54 355 49 364 49 367 c 0
 49 370 47 370 47 367 c 1
 44 372 32 365 29 370 c 2x4004
 29 376 l 1
 25 379 21 373 17 376 c 0
 14 377 15 379 14 382 c 0
 11 383 9 381 9 385 c 1
 14 385 17 394 24 397 c 0
 29 400 36 395 44 398 c 1
 45 393 47 398 44 398 c 1
 61 415 87 408 114 411 c 0
 129 414 139 420 146 405 c 1
 145 408 144 399 148 402 c 1
 148 413 160 405 163 408 c 0
 164 411 159 414 163 415 c 0
 164 415 165 411 168 412 c 0x0844
 176 412 190 420 201 412 c 1
 198 406 183 422 183 403 c 1
 206 406 229 406 246 406 c 0
 251 407 255 403 258 404 c 0
 265 404 268 409 275 410 c 0
156 415 m 1
 156 414 155 412 152 411 c 1
 152 414 155 414 156 415 c 1
221 412 m 1
 221 409 219 410 216 409 c 1
 216 413 218 412 221 412 c 1
342 389 m 1
 339 381 331 392 342 389 c 1
32 364 m 1
 32 367 33 366 36 367 c 1
 36 365 35 364 32 364 c 1
47 367 m 1
 49 367 l 1
 49 364 48 363 47 367 c 1
59 364 m 1
 62 364 60 360 59 364 c 1
EndSplineSet
EndChar

StartChar: p
Encoding: 112 112 34
Width: 264
Flags: MW
HStem: -12 21G<25 25> 160 22<23 34> 183 22<89 91.5> 209 8 323 10<70 77 70 77> 329 25 369 37<112 112 112 113.5> 370 8 386 8
VStem: 16 43<20 80.5> 23 14 32 11 62 8 67 8 70 46 75 7 77 13 242 28<307.5 311> 269 11
LayerCount: 2
Fore
SplineSet
76 134 m 1x0210
 74 135 74 138 75 141 c 1
 78 138 76 137 76 134 c 1x0210
17 10 m 1
 9 18 24 20 17 10 c 1
77 352 m 1
 78 351 79 350 79 348 c 1
 78 349 77 350 77 352 c 1
75 333 m 1
 73 335 73 336 76 335 c 1
 75 333 l 1
70 323 m 1
 69 320 63 323 70 323 c 1
280 317 m 0x0090
 281 308 281 301 279 295 c 0
 276 288 273 283 269 278 c 1
 268 281 273 288 276 299 c 0
 278 303 278 307 277 312 c 0
 276 316 273 318 270 317 c 0
 271 311 271 305 270 300 c 0
 269 293 268 289 265 284 c 2
 258 270 l 1
 253 264 l 1
 248 258 l 2
 241 250 234 245 227 238 c 2
 206 225 l 2x200240
 199 222 193 221 186 218 c 0x0210
 178 214 171 207 162 203 c 0
 142 194 120 187 95 184 c 0
 94 184 93 183 90 183 c 1x080020
 91 174 91 163 82 156 c 1
 75 159 96 173 77 179 c 1
 74 154 67 128 63 109 c 0
 62 104 57 101 57 97 c 0
 56 90 59 84 59 77 c 0
 56 46 40 19 29 -13 c 1
 25 -12 l 1
 28 -1 24 3 31 10 c 1
 18 15 34 30 24 35 c 1
 20 27 28 21 16 20 c 1
 15 29 21 42 16 47 c 1
 19 44 12 40 12 44 c 0
 19 52 14 62 15 70 c 0
 16 79 18 87 21 96 c 0
 25 115 22 141 34 160 c 1x2000c0
 26 150 43 154 34 160 c 1
 34 167 35 172 38 179 c 1
 31 179 26 179 23 180 c 2xa040
 23 182 l 1
 28 182 34 183 39 184 c 1
 42 193 45 202 46 211 c 0
 46 216 45 221 46 225 c 0x8020
 51 257 69 289 64 313 c 1
 68 313 72 312 72 319 c 0
 72 321 71 322 70 323 c 2
 70 327 l 1
 77 324 77 326 78 329 c 0x8040
 71 332 71 330 70 327 c 1
 61 331 72 333 75 333 c 0
 79 333 79 335 76 335 c 1
 84 338 79 354 84 354 c 0
 85 355 90 352 91 353 c 0
 94 357 91 362 94 366 c 0
 95 369 98 365 101 368 c 0
 102 368 102 368 102 369 c 1x402080
 101 368 99 368 96 368 c 0
 95 371 95 374 86 374 c 0
 83 374 80 375 80 372 c 1
 75 373 l 1
 76 376 74 378 70 378 c 0
 68 375 70 373 75 373 c 1
 71 365 67 375 64 376 c 0
 64 379 62 379 62 376 c 1
 55 383 36 377 32 381 c 1
 32 383 l 1x0402
 32 386 l 1
 25 389 20 385 13 386 c 0
 10 387 11 389 8 392 c 0
 5 393 0 391 0 394 c 1
 8 394 14 403 25 404 c 0
 34 405 45 402 58 402 c 1
 59 398 61 402 58 402 c 1
 73 408 91 409 112 406 c 2
 176 395 l 2
 188 392 200 390 209 387 c 0
 220 384 225 379 226 372 c 1x0108
 226 373 221 371 228 368 c 1
 229 371 234 370 241 366 c 0
 246 362 251 357 254 356 c 0
 257 355 251 364 258 360 c 0
 261 357 259 354 263 350 c 0
 266 346 270 342 273 337 c 0
 276 332 279 325 280 317 c 0x0090
99 210 m 1
 99 209 98 209 96 209 c 1
 97 208 97 208 97 208 c 2
 98 208 99 209 99 210 c 1
240 323 m 0
 238 327 235 330 230 333 c 2
 216 340 l 2
 197 349 177 357 154 362 c 0
 137 366 121 369 106 369 c 1
 109 364 115 358 115 353 c 0
 116 346 111 339 110 331 c 1
 105 331 110 328 110 331 c 1
 125 308 108 280 105 251 c 0
 102 234 106 221 90 218 c 1x1004
 93 218 85 222 86 217 c 1
 93 214 92 209 89 205 c 1
 90 205 92 206 95 207 c 2x0801
 95 209 l 1x200240
 92 209 90 210 94 211 c 0
 107 211 118 219 129 223 c 0
 141 228 152 231 164 236 c 0
 176 241 190 250 202 259 c 0
 209 264 214 268 219 273 c 2x020240
 233 286 l 1
 230 284 229 282 229 281 c 0
 229 280 229 279 230 279 c 0
 233 279 236 282 233 286 c 1
 238 295 242 304 242 311 c 0x1402
 243 314 242 318 240 323 c 0
247 368 m 1
 246 367 243 368 240 370 c 0
 241 373 244 369 247 368 c 1
246 247 m 1
 243 250 248 252 251 255 c 1
 254 252 249 250 246 247 c 1
43 378 m 1
 42 375 40 376 37 375 c 1
 37 378 40 377 43 378 c 1
64 376 m 1
 64 375 62 373 62 376 c 1
 64 376 l 1
80 372 m 1
 83 372 81 368 80 372 c 1
EndSplineSet
EndChar

StartChar: b
Encoding: 98 98 35
Width: 357
Flags: MW
HStem: 15 24 21 9 34 10 231 37<196 196> 254 19<136.5 145> 335 22 375 7 379 32<195.5 218> 382 29 391 20G<218 218>
VStem: 104 7 155 46 158 8 161 7<383.5 389 383.5 392> 181 10<237 237> 314 30<327 337.5 331.5 335 330 337.5 335 336> 332 37<151 161>
LayerCount: 2
Fore
SplineSet
181 226 m 1x100080
 181 228 180 229 179 230 c 1
 179 228 180 227 181 226 c 1x100080
159 170 m 1
 163 169 161 168 161 165 c 1
 160 166 159 167 159 170 c 1
105 58 m 1
 97 63 111 67 105 58 c 1
167 356 m 1
 168 355 169 354 169 352 c 1x0051
 166 352 168 353 167 356 c 1
166 339 m 1
 163 339 163 341 166 341 c 1
 166 339 l 1
160 330 m 1
 160 327 156 330 160 330 c 1
372 135 m 0
 371 130 367 130 364 125 c 0
 361 120 360 116 357 109 c 0
 354 103 350 98 346 93 c 0
 338 82 328 74 316 70 c 1
 316 73 325 77 332 84 c 0
 340 91 345 97 338 102 c 1
 325 83 306 69 287 57 c 0x1028
 268 46 248 38 231 33 c 0
 223 30 215 32 208 29 c 0
 197 26 187 21 176 18 c 0
 149 11 122 12 95 15 c 0
 82 16 68 18 54 21 c 0
 47 22 40 22 33 25 c 0
 26 26 19 26 12 29 c 1
 13 32 l 1
 22 29 27 30 34 30 c 0x400080
 40 30 46 29 51 26 c 1
 54 31 63 30 71 30 c 0
 79 30 88 29 91 34 c 1
 75 37 69 28 62 39 c 1
 70 40 79 39 88 39 c 0
 97 39 104 40 107 42 c 1
 104 39 94 45 101 45 c 0
 104 44 107 44 112 44 c 1
 113 49 112 53 117 57 c 1
 106 62 122 75 111 80 c 1
 108 72 115 67 104 66 c 1
 104 74 109 86 105 90 c 1
 108 87 101 84 101 88 c 0x800080
 108 95 104 103 105 111 c 0
 106 118 108 125 111 133 c 0
 115 149 113 173 124 189 c 1
 118 180 132 184 124 189 c 1
 125 204 134 217 137 233 c 0x4020
 137 237 136 241 137 245 c 0
 137 247 138 250 139 254 c 1
 134 254 130 254 127 255 c 0
 123 256 124 259 121 262 c 0
 118 263 112 261 112 266 c 1
 123 263 131 273 142 273 c 2
 145 273 l 1
 152 292 158 307 155 322 c 1
 158 322 162 321 162 326 c 0
 162 329 161 330 160 330 c 1
 161 333 l 2
 164 332 167 333 168 335 c 1
 165 336 162 336 161 333 c 1
 153 337 163 338 166 339 c 0
 169 338 169 340 166 341 c 1
 173 342 169 356 174 357 c 0
 175 357 180 355 180 356 c 0
 183 359 180 364 183 367 c 0
 184 368 188 367 189 368 c 0
 192 371 189 373 194 372 c 1
 191 367 201 362 201 355 c 0
 202 348 197 343 196 336 c 1
 192 336 196 333 196 336 c 1x2830
 208 315 194 292 190 268 c 1
 199 271 209 269 220 268 c 0
 227 269 231 271 232 274 c 1
 231 271 224 273 228 276 c 0
 239 273 244 281 252 285 c 0
 259 289 267 291 274 294 c 0
 281 299 289 305 297 313 c 2
 307 323 l 1x0408
 311 327 l 1
 313 329 l 2
 314 330 314 330 314 330 c 1
 313 330 313 330 313 329 c 2
 313 328 l 2
 314 327 314 327 314 327 c 2
 315 327 316 327 316 328 c 2
 316 329 l 1x0410
 315 329 315 329 314 330 c 0
 314 333 315 332 314 335 c 0
 314 337 314 338 313 339 c 2
 313 341 l 2
 312 342 312 342 312 342 c 1
 308 345 l 2
 305 348 301 350 298 351 c 2
 287 354 l 2
 260 363 225 377 204 373 c 0
 203 376 204 379 197 379 c 0
 194 379 193 379 193 378 c 1
 189 378 l 1
 190 381 190 383 187 384 c 0
 184 379 186 379 189 378 c 1
 186 371 184 379 183 382 c 0
 183 385 181 383 181 382 c 1
 178 387 162 383 161 387 c 2
 161 389 l 1
 161 392 l 1
 157 395 152 392 149 393 c 0
 146 394 148 396 145 399 c 0
 144 400 140 398 140 402 c 1
 147 401 151 409 158 410 c 0
 165 411 172 407 180 407 c 1
 181 404 183 407 180 407 c 1
 191 414 203 414 218 411 c 2
 262 402 l 2
 270 399 278 400 285 397 c 0
 292 395 295 391 296 385 c 1
 296 388 292 383 297 382 c 0
 298 385 301 385 306 383 c 0
 310 380 313 378 316 379 c 0x1111
 319 379 314 386 318 383 c 0
 321 382 320 380 323 377 c 0
 326 376 329 375 332 372 c 0
 335 371 336 370 337 369 c 2
 343 363 l 2
 346 359 349 354 352 347 c 0
 353 340 353 334 350 330 c 1
 349 331 349 333 349 337 c 0
 350 340 349 345 348 349 c 0
 347 353 345 356 342 358 c 0
 340 360 337 360 334 358 c 1
 341 350 344 342 344 333 c 0
 344 330 343 325 342 320 c 0
 341 316 338 312 335 308 c 0
 332 303 327 298 321 293 c 2
 308 282 l 2
 303 279 298 280 294 277 c 0
 289 273 285 266 278 263 c 2
 264 256 l 1
 281 249 299 243 316 234 c 0
 331 227 344 221 353 210 c 0
 357 205 360 200 363 195 c 0
 365 189 365 184 363 180 c 1
 363 181 362 181 361 181 c 0
 358 181 359 179 362 175 c 0
 365 175 366 174 367 171 c 0
 370 168 369 163 369 159 c 0
 369 154 368 150 368 146 c 0
 367 141 366 138 366 137 c 0
 366 136 367 137 370 138 c 0
 372 140 373 139 372 135 c 0
331 158 m 0
 331 160 330 162 329 163 c 0x0084
 328 167 326 171 324 174 c 0
 321 177 318 181 313 185 c 0
 306 192 296 198 283 205 c 0x0048
 260 216 238 222 219 223 c 0
 218 226 219 230 208 231 c 0
 205 232 202 233 202 230 c 1x0050
 196 231 l 1
 197 234 196 237 191 238 c 0
 189 235 191 232 196 231 c 1x0048
 191 223 187 234 184 237 c 0
 184 240 181 240 181 237 c 1
 181 238 180 238 180 239 c 1
 179 238 177 238 175 238 c 1
 178 238 171 241 172 237 c 0x1002
 181 234 171 224 174 221 c 0x100080
 175 218 179 223 179 219 c 0
 179 216 176 218 175 215 c 0
 174 207 177 192 166 184 c 1
 161 187 179 198 162 204 c 1
 159 181 153 159 148 143 c 0
 147 139 143 136 142 132 c 0
 142 127 144 120 144 115 c 0
 140 90 128 69 117 44 c 1
 126 45 135 48 144 49 c 0
 159 52 172 51 187 54 c 0x100280
 202 57 219 64 235 71 c 0
 251 78 266 86 281 93 c 1
 275 90 273 88 276 87 c 0
 279 87 282 89 282 94 c 1
 293 102 301 110 312 119 c 0
 313 121 316 124 319 127 c 2
 325 134 l 2
 328 141 331 144 332 151 c 0x1010
 332 154 332 156 331 158 c 0
372 163 m 1
 375 163 375 157 375 154 c 1x0210
 372 154 373 160 372 163 c 1
281 47 m 1
 280 50 285 51 289 54 c 1
 290 51 284 50 281 47 c 1
46 38 m 1
 54 46 66 32 46 38 c 1
184 237 m 1
 181 237 l 1
 181 234 184 234 184 237 c 1
202 230 m 1
 205 229 203 225 202 230 c 1
311 387 m 1
 308 384 307 387 306 387 c 1
 307 388 308 388 311 387 c 1
335 299 m 1
 332 302 335 304 338 307 c 1
 341 304 338 302 335 299 c 1
164 382 m 1
 164 385 165 383 168 384 c 1
 168 383 167 382 164 382 c 1
183 382 m 1
 182 379 181 379 181 382 c 1
 183 382 l 1
193 378 m 1
 196 377 194 374 193 378 c 1
EndSplineSet
EndChar

StartChar: a
Encoding: 97 97 36
Width: 322
Flags: MW
HStem: -11 21G<250 253 250 250> 70 10<28 39> 134 41 135 34<267 291 267 291> 138 15 151 8 183 7 190 8 204 43 358 11<251.5 252 251.5 252.5> 363 7<249.5 256 250 256 252 256> 397 20G 410 7
VStem: -6 7 28 10 84 18 231 35<46 94.5 70.5 94.5> 238 15 241 51 242 28 268 9
LayerCount: 2
Fore
SplineSet
73 224 m 5x108010
 74 223 74 221 73 218 c 5
 70 221 73 221 73 224 c 5x108010
134 297 m 5x008008
 137 294 133 292 132 289 c 5
 129 292 131 294 134 297 c 5x008008
18 54 m 5
 21 51 19 51 19 48 c 5
 16 51 18 51 18 54 c 5
28 70 m 6x008120
 31 69 30 65 27 68 c 5
 28 70 l 6x008120
39 80 m 5
 40 83 43 79 39 80 c 5
285 236 m 5
 284 236 283 237 283 240 c 5
 284 240 285 239 285 236 c 5
240 11 m 5
 233 16 243 24 240 11 c 5
256 370 m 5
 256 373 l 5
 253 372 253 371 256 370 c 5
252 358 m 5x0505
 247 358 252 355 252 358 c 5x0505
291 169 m 4
 326 170 359 158 398 153 c 5
 397 150 l 5
 385 151 381 145 372 152 c 5
 367 142 350 152 345 143 c 5
 356 140 360 149 364 138 c 5
 353 135 338 140 333 135 c 5
 336 138 342 132 337 132 c 4
 326 136 316 132 307 132 c 4
 296 131 287 134 276 135 c 6x022020
 267 135 l 5
 267 126 l 6
 266 121 263 116 263 112 c 4
 263 105 266 98 266 91 c 4
 267 58 257 25 253 -11 c 5
 250 -11 l 5
 250 1 245 5 252 14 c 5
 242 17 252 34 242 39 c 5
 239 28 249 25 238 21 c 5
 235 32 239 46 235 50 c 5
 236 47 232 42 231 46 c 4
 236 57 231 66 231 75 c 4
 231 86 233 93 233 104 c 4x204020
 234 113 233 123 233 134 c 5x108010
 222 134 212 135 201 139 c 5
 213 134 207 148 201 139 c 5
 182 138 163 145 140 145 c 4
 135 145 130 143 125 143 c 4x080020
 112 144 98 145 83 148 c 5
 74 136 l 6
 62 120 52 105 49 90 c 5
 45 91 42 93 38 86 c 4
 38 83 36 83 39 80 c 5
 36 76 l 5
 32 80 31 79 28 76 c 5
 31 73 33 73 36 76 c 5
 43 69 31 70 28 70 c 4x100080
 25 71 24 69 27 68 c 5
 19 67 18 48 11 47 c 4
 10 47 9 48 8 49 c 6
 5 51 l 5
 0 47 0 40 -4 37 c 4x800040
 -7 34 -9 37 -12 36 c 4
 -15 35 -14 28 -18 31 c 5
 -14 38 -22 48 -19 57 c 4
 -16 64 -8 70 -3 81 c 5
 1 80 -2 84 -3 81 c 5
 -6 106 11 128 27 152 c 5
 24 152 24 151 21 151 c 5
 21 154 21 158 13 158 c 4
 12 157 9 158 9 155 c 5
 5 155 l 5
 6 158 4 161 1 162 c 5
 0 159 2 156 5 155 c 5
 2 146 -3 156 -4 159 c 4
 -4 163 -6 162 -6 159 c 5
 -10 166 -26 160 -29 165 c 4
 -30 165 -28 171 -29 171 c 4
 -34 174 -39 169 -44 172 c 4
 -47 173 -45 176 -48 179 c 4
 -51 180 -54 178 -54 182 c 5
 -47 181 -41 191 -33 192 c 4
 -26 193 -18 189 -7 190 c 5
 -6 185 -4 190 -7 190 c 5
 9 201 30 198 53 195 c 5
 58 203 62 208 73 207 c 5
 70 207 74 200 77 207 c 5
 69 213 84 224 84 228 c 4
 84 231 76 228 79 232 c 4
 80 235 83 233 86 236 c 4xe00280
 93 245 97 267 116 274 c 5
 119 269 91 258 107 247 c 5
 124 274 146 301 162 321 c 4
 166 325 173 327 176 331 c 4
 181 338 183 346 188 353 c 4
 200 369 215 383 231 395 c 4
 248 407 265 418 284 430 c 5
 286 427 l 5
 281 424 279 421 276 418 c 5
 277 418 l 5
 276 411 286 406 287 398 c 4
 288 391 284 383 284 374 c 5
 280 373 284 371 284 374 c 5
 299 351 288 318 287 287 c 4
 287 268 291 254 278 249 c 5
 279 249 274 252 275 247 c 5
 284 246 276 231 279 228 c 4
 280 225 284 231 285 227 c 4
 285 224 281 225 281 221 c 4
 281 210 286 194 277 181 c 5
 273 183 287 204 271 204 c 5
 271 191 270 178 270 165 c 5
 277 166 284 169 291 169 c 4
258 366 m 5
 253 367 253 366 252 363 c 6
 250 363 l 6
 249 363 249 363 249 364 c 5
 240 359 238 349 231 341 c 6x020808
 209 318 l 6
 201 309 193 297 185 285 c 4x004020
 177 273 170 262 159 254 c 5
 167 262 152 264 158 253 c 5
 147 236 129 221 117 201 c 4
 116 197 114 194 113 192 c 5
 118 191 122 188 125 183 c 5
 124 184 121 178 126 179 c 5
 129 189 143 180 146 183 c 4
 149 186 143 189 147 189 c 4
 150 190 150 186 153 186 c 4
 164 185 181 192 196 181 c 5
 194 176 172 191 172 175 c 5
 193 175 216 174 236 171 c 5
 236 172 236 173 237 174 c 5
 236 173 236 172 236 171 c 5
 240 171 l 5
 240 173 239 175 237 176 c 4x002320
 236 193 243 213 242 233 c 4x204020
 242 238 241 243 241 248 c 4
 242 283 253 323 248 346 c 4
 251 347 254 347 254 354 c 4
 254 357 253 358 252 358 c 5
 252 363 l 5
 257 360 257 363 258 366 c 5
259 383 m 5
 252 376 246 370 247 366 c 5
 247 369 251 369 252 369 c 4
 253 370 255 370 256 370 c 4
 257 371 257 372 256 373 c 5
 259 374 259 379 259 383 c 5
274 412 m 4
 275 413 274 416 275 417 c 5
 272 414 269 411 262 410 c 5
 265 403 260 399 256 395 c 4
 250 390 248 386 249 381 c 5
 252 382 254 385 255 388 c 6
 255 391 l 5
 256 391 257 391 257 390 c 5x0404
 259 393 l 5
 261 395 l 5
 266 394 l 5
 269 399 265 404 268 409 c 4
 269 412 271 409 274 412 c 4
134 188 m 5
 134 189 135 190 138 190 c 5
 138 189 137 188 134 188 c 5
215 177 m 5
 216 180 219 179 222 179 c 5
 221 175 218 177 215 177 c 5
375 140 m 5
 369 131 361 145 375 140 c 5
-26 158 m 5
 -25 161 -24 160 -21 161 c 5
 -21 158 -23 159 -26 158 c 5
-4 159 m 5
 -4 158 -6 156 -6 159 c 5
 -4 159 l 5
9 155 m 5
 12 155 10 151 9 155 c 5
EndSplineSet
EndChar

StartChar: j
Encoding: 106 106 37
Width: 289
Flags: MW
HStem: -28 37<83 88 88 88.5> 387 23 389 20 392 20G<239.5 240 242.5 243> 402 8
VStem: 1 20 26 13 160 36 171 17 177 12<388 389 388 391 388 391> 179 13<385 385> 203 9 243 11 331 10<408 408>
LayerCount: 2
Fore
SplineSet
198 124 m 1x421c
 195 125 198 129 198 132 c 1
 199 131 199 129 198 124 c 1x421c
143 4 m 1
 140 7 143 12 146 16 c 1
 149 13 146 9 143 4 c 1
18 152 m 1
 27 147 18 129 18 152 c 1
218 371 m 1
 219 370 219 368 219 363 c 1
 216 364 218 368 218 371 c 1
213 342 m 1
 212 338 l 1
 209 339 209 342 213 342 c 1
204 320 m 1
 203 316 199 320 204 320 c 1
299 411 m 0
 314 414 326 410 341 410 c 1
 341 408 l 1x4020
 337 408 335 405 331 408 c 1
 330 401 324 408 321 401 c 1
 326 401 326 405 329 400 c 1
 325 397 320 399 317 396 c 1
 318 399 322 396 319 395 c 0
 315 398 311 394 308 393 c 0
 304 392 300 393 296 393 c 0x0814
 287 392 276 387 267 390 c 1
 272 387 268 395 267 390 c 1
 262 389 257 390 252 390 c 1
 253 385 254 381 254 378 c 0
 253 367 246 355 243 340 c 1x4480
 239 339 243 336 243 340 c 1x421c
 247 321 245 300 238 277 c 2
 228 241 l 2
 224 229 221 217 218 205 c 0
 214 190 213 179 210 168 c 0
 209 165 208 160 205 155 c 0x4004
 204 154 204 152 201 151 c 2
 199 149 l 1
 196 147 l 1
 199 148 192 153 192 145 c 1x1004
 197 142 196 137 193 130 c 0
 190 123 187 116 188 113 c 0
 188 110 194 116 193 111 c 0
 192 107 189 107 186 102 c 0
 183 94 181 84 177 73 c 0
 172 61 167 51 161 44 c 1
 158 47 164 54 168 61 c 0
 171 68 174 76 166 79 c 1
 155 50 l 2
 152 45 152 39 149 34 c 0
 146 27 146 23 143 18 c 0
 138 7 131 -4 122 -12 c 2
 114 -19 l 2
 110 -22 107 -23 105 -24 c 0
 99 -27 92 -28 85 -28 c 0
 80 -28 74 -26 69 -22 c 2
 57 -11 l 1
 50 -3 l 2
 48 -2 46 0 43 3 c 0
 39 8 35 13 32 18 c 0
 25 31 20 44 16 57 c 0
 12 72 9 85 7 98 c 0
 4 113 5 125 2 140 c 0
 2 147 1 154 1 161 c 2
 0 172 l 1
 0 184 l 1
 3 184 l 1
 3 179 4 175 4 172 c 0
 5 167 6 163 6 162 c 0
 8 157 8 151 7 144 c 1
 14 141 15 134 16 126 c 0
 19 118 19 110 26 107 c 1
 23 123 15 128 23 137 c 1
 26 130 27 120 30 112 c 0
 32 102 35 96 38 94 c 1
 35 97 36 107 39 100 c 0
 39 84 49 72 54 59 c 2
 62 39 l 2
 65 32 67 26 71 21 c 2
 77 13 l 2
 80 12 79 11 80 10 c 0
 81 10 82 9 83 9 c 0
 85 8 87 8 88 9 c 0
 90 9 92 10 93 12 c 0
 94 12 94 12 95 13 c 0
 95 14 95 14 96 14 c 1xa48c
 96 15 l 1x42
 98 17 l 2
 100 19 102 22 104 26 c 2x44
 117 47 l 1
 112 39 112 36 115 37 c 0
 118 38 120 42 117 47 c 1
 120 56 l 2
 121 59 121 63 124 67 c 0
 127 74 130 81 134 88 c 0
 141 103 148 116 153 131 c 0
 156 138 154 144 157 151 c 2
 158 155 l 1
 159 160 l 1
 161 171 l 1
 167 192 l 2
 171 207 176 220 180 233 c 2
 191 270 l 2
 194 282 195 293 196 302 c 0
 199 303 202 302 205 313 c 0
 205 318 205 320 204 320 c 1
 206 327 l 1
 209 325 212 326 213 331 c 1
 208 334 207 330 206 327 c 1
 198 332 209 337 212 338 c 0
 215 338 214 341 213 342 c 1
 220 347 219 372 225 375 c 0
 226 376 231 373 231 374 c 0
 233 378 234 382 234 387 c 1
 221 386 206 389 198 384 c 1
 197 387 195 388 194 387 c 0
 193 387 192 387 192 386 c 1
 191 386 l 1x83
 191 388 190 389 189 389 c 1
 189 387 190 386 191 386 c 1
 190 381 188 386 187 387 c 0
 184 390 180 385 177 388 c 2
 177 391 l 2
 174 392 174 390 171 391 c 0
 170 392 170 393 170 394 c 0
 169 395 167 393 167 396 c 1x4010
 170 396 171 401 174 402 c 0
 177 403 181 402 184 402 c 1
 185 399 185 403 184 402 c 1
 193 413 206 407 219 410 c 0
 227 411 232 414 235 407 c 1
 235 408 233 405 236 406 c 0
 236 411 242 406 243 409 c 0
 244 410 242 412 243 412 c 0
 244 413 245 411 246 411 c 0
 250 411 256 415 263 411 c 0
 262 408 253 415 254 406 c 1
 265 409 277 409 285 409 c 0
 288 409 288 408 291 408 c 0
 294 408 296 411 299 411 c 0
240 412 m 1
 240 411 239 411 238 411 c 1
 238 412 239 412 240 412 c 1
273 412 m 1
 273 411 272 410 270 410 c 1
 270 413 272 411 273 412 c 1
333 402 m 1
 332 397 328 403 333 402 c 1
181 387 m 1
 181 384 180 386 179 385 c 1
 179 386 180 387 181 387 c 1
192 386 m 1
 193 383 193 386 192 386 c 1
EndSplineSet
EndChar

StartChar: n
Encoding: 110 110 38
Width: 321
Flags: MW
HStem: -12 21G<3 3> 39 7 60 7 361 10 389 20G 394 20G<323 323>
VStem: -1 8 74 8 100 17<386 401> 162 9 213 30<33 53> 237 8 246 8 313 9
LayerCount: 2
Fore
SplineSet
87 226 m 1xd754
 86 227 85 228 85 231 c 1
 86 230 87 229 87 226 c 1xd754
61 155 m 1
 64 154 62 151 62 148 c 1
 59 151 61 152 61 155 c 1
-2 11 m 1
 -9 18 5 23 -2 11 c 1
81 365 m 1
 78 366 78 368 81 367 c 2
 81 365 l 1
75 354 m 1
 74 351 70 354 75 354 c 1
179 257 m 1
 176 256 176 259 175 260 c 1
 176 261 178 260 179 257 c 1
203 184 m 1
 199 183 199 185 198 188 c 1
 202 189 202 187 203 184 c 1
77 371 m 1
 74 368 74 372 73 373 c 1
 76 374 76 372 77 371 c 1
318 374 m 1
 315 377 323 382 322 377 c 0
 315 369 318 358 315 349 c 2
 307 322 l 2
 300 302 301 273 289 252 c 1
 296 264 282 259 289 252 c 1
 286 235 278 217 275 197 c 2
 275 182 l 1
 268 147 253 109 257 85 c 1
 253 85 250 86 249 78 c 0
 249 75 250 74 251 74 c 1
 251 70 l 1x2008
 248 71 245 70 244 67 c 1
 247 66 250 67 251 70 c 1
 259 66 249 63 246 62 c 0
 243 62 243 60 246 60 c 1
 244 59 243 57 243 55 c 2
 243 53 l 2
 243 50 244 49 244 46 c 0
 245 45 245 44 245 42 c 2
 249 27 l 1
 245 26 l 1
 242 33 240 35 239 39 c 0xd754
 236 39 234 39 234 39 c 1
 231 35 234 30 231 25 c 0
 230 22 226 25 225 22 c 0
 222 19 225 16 221 17 c 1
 222 24 213 29 213 37 c 0
 212 42 213 46 216 53 c 1
 211 60 209 71 202 72 c 1x0414
 206 71 203 63 200 67 c 0
 201 78 192 84 188 92 c 0
 183 100 181 109 178 117 c 0
 170 136 151 158 150 181 c 1
 150 167 163 181 150 181 c 1
 142 196 140 215 131 232 c 2
 122 244 l 2
 114 261 110 279 103 298 c 1
 100 291 99 284 98 277 c 0
 95 258 97 243 82 240 c 1
 83 240 78 244 79 239 c 1
 87 236 76 222 79 219 c 0
 80 216 85 222 85 218 c 0
 84 215 81 216 80 213 c 0
 77 202 80 184 69 172 c 1
 63 175 84 191 67 197 c 1
 62 170 55 141 48 120 c 0
 47 115 42 111 41 107 c 0
 40 100 42 92 41 85 c 0
 34 52 18 22 6 -13 c 1
 3 -12 l 1
 6 -1 3 4 11 12 c 1
 1 17 14 32 7 39 c 1
 3 30 10 23 -1 22 c 1
 -1 33 5 46 1 51 c 1
 4 48 -3 43 -3 48 c 0
 4 57 0 66 3 77 c 0
 4 88 8 94 11 105 c 0
 16 125 16 155 28 175 c 1
 21 163 35 168 28 175 c 1
 31 194 40 211 44 231 c 0
 44 238 44 243 45 246 c 0
 53 279 72 320 69 343 c 1
 72 343 76 342 76 349 c 0
 77 352 77 353 75 354 c 2
 76 358 l 1
 79 357 81 358 82 361 c 1
 79 362 77 361 76 358 c 1
 68 362 78 365 81 365 c 2
 82 365 l 1
 82 367 l 1
 81 367 l 1
 82 368 l 1
 79 372 75 376 78 379 c 0
 78 380 84 381 85 382 c 1
 84 382 84 383 84 386 c 0
 81 389 80 391 80 395 c 0
 80 398 84 398 85 401 c 0
 86 404 81 405 86 408 c 1
 89 404 94 404 99 401 c 2
 100 401 l 2
 101 404 103 401 106 404 c 0
 109 405 107 410 111 409 c 1
 108 402 117 395 117 388 c 0xc320
 117 384 115 381 114 377 c 0
 114 376 114 375 115 374 c 1
 110 371 116 371 115 374 c 1
 142 363 145 329 158 302 c 0
 166 287 178 276 165 265 c 1
 166 266 158 265 162 261 c 1
 173 265 171 250 175 247 c 0
 178 247 179 253 182 250 c 0
 185 247 180 246 181 243 c 0
 185 234 199 222 195 206 c 1
 189 206 196 231 177 223 c 1
 189 200 199 173 207 154 c 0
 210 149 206 143 209 139 c 2
 219 127 l 1
 222 135 222 142 223 149 c 0
 226 168 223 183 238 186 c 1
 235 186 242 183 241 188 c 1
 232 191 242 202 240 207 c 0
 239 210 234 205 234 209 c 0
 234 212 238 211 238 214 c 0
 241 225 238 243 249 254 c 1
 251 252 236 233 251 230 c 1
 256 257 264 286 269 307 c 0
 272 312 275 316 276 320 c 0
 279 327 276 335 277 342 c 0x0880
 284 375 302 405 318 438 c 1
 320 437 l 1
 316 426 319 421 311 414 c 1
 320 405 305 395 313 387 c 1
 318 396 311 402 322 403 c 1
 321 392 314 379 318 374 c 1
218 62 m 2
 218 61 l 1
 221 62 218 63 218 62 c 2
234 196 m 1
 233 197 232 198 232 201 c 1
 233 200 234 199 234 196 c 1
256 272 m 1
 253 273 255 276 255 279 c 1
 257 278 257 275 256 272 c 1
323 414 m 1
 331 406 315 403 323 414 c 1
246 62 m 1
 249 62 249 60 246 60 c 1
 246 62 l 1
251 74 m 1
 252 77 256 74 251 74 c 1
EndSplineSet
EndChar

StartChar: m
Encoding: 109 109 39
Width: 363
Flags: MW
HStem: -18 21G -12 21G<24 24> 184 26 199 27 205 7<174 179> 298 9 303 8 361 15<103 103> 389 20G 391 8
VStem: 19 8 93 10 104 33<374 388 374 388 381 388 381 388 381 388 382 388 383 388 385 388 386 402.5> 106 12<394.5 401> 126 21 165 13<200 206> 174 13 215 10 234 10 264 13 333 9 346 11
LayerCount: 2
Fore
SplineSet
107 226 m 1x024024
 106 226 106 228 106 231 c 1
 107 230 107 229 107 226 c 1x024024
82 155 m 1
 85 154 83 151 83 148 c 1
 81 149 81 152 82 155 c 1
19 11 m 1
 12 18 26 23 19 11 c 1
102 367 m 1
 101 365 l 1
 100 366 99 368 102 367 c 1
95 354 m 1
 95 351 91 354 95 354 c 1
151 325 m 1
 148 324 149 326 148 326 c 1
 151 327 150 325 151 325 c 1
161 285 m 1
 160 285 159 286 158 288 c 1
 161 288 160 286 161 285 c 1
101 389 m 0x048240
 100 388 100 390 99 390 c 1
 100 391 101 390 101 389 c 0x048240
104 381 m 1
 104 382 l 1
 103 381 103 381 104 381 c 1
104 374 m 1
 101 373 104 373 104 374 c 1
207 302 m 1
 208 301 208 299 207 298 c 1
 206 301 207 301 207 302 c 1
245 339 m 1
 246 338 245 337 244 334 c 1
 241 337 244 336 245 339 c 1
174 205 m 1
 174 205 174 204 174 201 c 1
 173 202 173 204 174 205 c 1
179 212 m 1
 180 213 l 1x40a8
 181 212 181 211 179 212 c 1
187 218 m 1
 188 219 190 215 187 218 c 1
346 374 m 1
 368 344 350 312 350 276 c 0
 349 255 355 238 335 233 c 1
 338 234 328 237 331 232 c 1
 346 229 330 213 336 210 c 0
 339 207 344 213 344 209 c 0
 345 206 340 206 339 203 c 0
 339 191 348 172 333 157 c 1
 326 159 348 181 324 184 c 1
 323 153 319 120 316 97 c 0
 315 90 310 86 310 81 c 0
 309 73 315 65 315 57 c 0
 315 18 298 -16 290 -56 c 1
 286 -55 l 1
 289 -42 282 -37 290 -28 c 1
 274 -23 291 -4 277 2 c 1
 274 -9 285 -15 270 -18 c 1
 267 -7 273 10 266 15 c 1
 269 12 262 6 261 11 c 0
 268 22 262 33 261 44 c 0
 261 55 265 65 266 76 c 0
 267 99 261 130 272 154 c 1
 267 143 286 150 273 156 c 1
 272 175 282 197 282 220 c 0
 282 225 280 231 280 236 c 0
 283 274 297 313 292 342 c 1
 283 331 277 315 262 308 c 1
 270 312 259 315 262 308 c 1x0804a0
 255 297 245 291 237 280 c 0
 236 277 236 275 233 272 c 0
 220 253 198 238 194 222 c 1
 191 223 190 226 187 221 c 0
 186 220 186 219 187 218 c 2x040840
 185 216 l 1
 183 218 181 218 180 217 c 1
 182 215 184 215 185 216 c 1
 190 209 183 213 180 213 c 0
 177 216 178 213 179 212 c 1x0082
 178 212 l 1x024024
 178 208 179 205 180 201 c 1x010004
 178 200 l 1
 177 204 175 206 174 209 c 1
 171 206 171 202 168 202 c 2
 166 204 l 2
 165 205 165 205 165 206 c 1
 161 203 162 201 159 198 c 0
 156 197 156 200 153 199 c 0
 150 199 152 195 149 198 c 1x200008
 152 201 146 208 149 213 c 0
 150 217 155 220 158 225 c 1
 158 225 157 225 156 226 c 1
 159 225 156 220 155 223 c 0
 156 230 152 232 149 237 c 0
 148 240 146 244 145 251 c 0
 141 262 132 273 132 285 c 1
 132 278 139 285 132 285 c 1
 129 292 129 299 126 307 c 1
 123 296 120 288 119 277 c 0
 115 258 117 243 102 240 c 1
 105 240 99 244 99 239 c 1
 108 236 97 223 100 219 c 0
 101 216 105 222 105 218 c 0
 105 215 101 216 101 213 c 0
 98 202 101 184 90 172 c 1
 83 175 103 192 87 197 c 1
 83 170 74 141 69 120 c 0
 66 115 63 111 62 107 c 0
 61 100 63 92 62 85 c 0
 55 52 39 22 26 -13 c 1
 24 -12 l 1
 27 -1 24 4 31 12 c 1
 22 17 34 32 27 39 c 1
 23 30 30 23 19 22 c 1
 19 33 26 46 22 51 c 1
 25 48 18 43 18 48 c 0
 25 57 22 66 23 77 c 0
 26 88 29 94 32 105 c 0
 37 125 37 155 49 175 c 1
 42 163 56 168 49 175 c 1
 52 194 61 211 64 231 c 0
 65 236 64 241 65 246 c 0
 73 281 92 318 89 343 c 1
 93 343 96 342 97 349 c 0
 97 352 96 353 95 354 c 2
 96 358 l 1
 99 357 102 358 103 361 c 0
 100 363 97 362 96 358 c 1
 89 362 100 365 101 365 c 0
 105 365 105 367 102 367 c 1
 106 373 l 2
 106 375 105 375 104 374 c 1
 103 376 l 1x900118
 105 377 106 378 106 379 c 1
 104 379 103 378 103 376 c 1
 96 376 103 380 104 381 c 0
 105 382 105 382 104 382 c 1x1002
 104 383 l 1
 104 385 l 2
 103 388 99 392 102 393 c 0
 102 394 106 394 106 395 c 0
 106 398 103 399 104 402 c 0
 104 403 106 402 107 405 c 0
 107 406 105 407 108 408 c 1
 109 405 115 405 118 401 c 2
 118 401 118 400 119 399 c 1
 119 399 119 400 120 401 c 0x5030
 123 404 124 401 127 404 c 0
 130 405 127 410 131 409 c 1
 128 402 138 395 137 388 c 0
 137 384 135 379 134 374 c 0
 137 367 138 358 142 349 c 0
 145 341 151 336 144 329 c 1
 144 330 139 331 142 328 c 0
 149 329 145 321 148 320 c 0
 151 319 151 324 152 321 c 0
 153 320 151 320 151 317 c 0
 154 312 160 305 157 297 c 0
 153 297 159 310 148 307 c 1
 155 294 158 280 162 269 c 0
 162 266 161 264 162 261 c 0
 163 258 167 256 168 252 c 1
 175 260 182 267 187 275 c 0
 194 286 196 295 208 291 c 1
 205 291 209 287 210 290 c 0
 203 297 215 299 215 303 c 0
 214 304 210 303 211 306 c 0
 212 307 213 306 216 307 c 0
 220 314 223 324 234 327 c 1
 236 322 218 322 229 311 c 1
 240 326 253 339 262 350 c 0
 265 353 268 352 271 355 c 0
 274 358 274 364 277 368 c 0
 284 377 293 384 305 391 c 1
 302 392 303 393 302 396 c 1
 306 396 305 395 306 392 c 1
 306 392 307 393 308 394 c 0
 308 397 309 399 311 400 c 0
 312 400 313 399 316 399 c 0
 319 400 320 401 321 401 c 0
 322 406 319 410 322 414 c 0
 323 417 328 415 331 418 c 0
 334 421 329 425 336 424 c 1
 335 417 347 410 350 401 c 0
 351 393 346 385 346 374 c 1
 339 373 346 371 346 374 c 1
342 223 m 1
 346 222 345 221 346 218 c 1
 342 219 343 220 342 223 c 1
326 137 m 1
 331 136 329 133 329 130 c 1
 324 131 326 134 326 137 c 1
273 -30 m 1
 261 -23 279 -16 273 -30 c 1
EndSplineSet
EndChar

StartChar: w
Encoding: 119 119 40
Width: 486
Flags: MW
HStem: 18 19 69 8<149 156> 72 9<379 387 379 387> 336 8<5.5 13 11 13> 344 15 359 9 389 20G<515 515>
VStem: 7 10 79 7 92 12 118 14 151 12 237 8 302 7 315 12 346 9 379 10 386 9 388 15
LayerCount: 2
Fore
SplineSet
314 241 m 1xd39d20
 313 240 311 241 310 244 c 1
 313 244 313 242 314 241 c 1xd39d20
328 169 m 1
 324 169 325 171 324 174 c 1
 328 175 327 172 328 169 c 1
334 32 m 1
 323 34 334 46 334 32 c 1
232 359 m 1
 229 358 229 361 228 362 c 1
 231 363 231 360 232 359 c 1
516 372 m 1
 513 363 505 353 508 346 c 1
 507 349 516 351 513 347 c 0
 504 340 505 330 502 322 c 0
 499 313 493 307 488 299 c 0
 479 280 475 253 459 238 c 1
 468 247 451 246 459 238 c 1
 454 222 441 208 434 189 c 0
 433 185 434 180 431 176 c 0x280080
 418 144 395 114 395 90 c 1
 391 91 388 93 385 86 c 0
 385 83 386 82 387 81 c 2xd39d20
 386 77 l 1
 379 80 379 80 378 77 c 0
 383 74 383 74 386 77 c 1
 395 70 382 72 379 72 c 0
 375 73 376 71 379 70 c 1
 370 69 372 52 367 52 c 0
 366 52 361 55 360 54 c 0
 357 51 358 45 355 42 c 0
 354 41 353 41 351 41 c 1
 352 34 352 26 355 18 c 1
 351 18 l 1
 348 29 342 30 346 39 c 1
 345 38 345 36 341 37 c 1
 342 38 342 39 342 40 c 0
 334 43 338 57 327 58 c 1
 328 49 337 46 328 41 c 1
 323 48 322 61 315 64 c 1
 318 63 316 56 313 60 c 0
 316 71 306 77 303 84 c 0
 300 93 300 101 297 110 c 0xa20140
 292 129 275 151 278 172 c 1
 278 159 289 172 278 172 c 1
 271 187 273 206 266 223 c 0
 263 227 262 231 259 235 c 0
 252 254 251 276 246 295 c 1xc001
 246 294 245 294 245 291 c 0
 242 284 238 278 234 270 c 0
 227 255 226 231 211 216 c 1
 219 224 203 224 211 216 c 1
 208 203 196 190 192 173 c 2
 190 161 l 2
 182 134 159 108 162 86 c 1
 159 86 155 87 154 82 c 0
 154 79 155 78 156 77 c 2
 155 74 l 1
 150 77 149 76 148 73 c 0
 151 71 154 71 155 74 c 1
 163 69 152 69 149 69 c 0
 146 70 146 68 149 67 c 1
 142 66 145 52 140 51 c 0
 139 51 138 51 137 52 c 0
 136 52 135 52 134 53 c 1
 131 50 133 45 130 42 c 0
 129 42 129 41 128 41 c 1
 129 34 129 26 132 18 c 1
 128 18 l 1
 125 29 119 30 123 39 c 1
 122 39 l 2
 121 38 121 36 118 37 c 1
 119 38 119 39 118 40 c 0
 111 44 115 57 104 58 c 1
 105 49 114 46 105 41 c 1
 100 48 99 61 92 64 c 1
 95 63 93 56 90 60 c 0
 93 71 83 77 80 84 c 0
 77 93 77 101 74 110 c 0
 69 129 52 151 55 172 c 1
 55 159 66 172 55 172 c 1
 48 187 50 206 43 223 c 0
 40 227 39 231 36 235 c 0
 25 266 26 302 11 321 c 1xc022
 15 324 19 323 16 330 c 0
 16 332 15 333 12 333 c 2
 11 336 l 1
 18 337 17 339 17 342 c 1
 10 341 11 339 11 336 c 1
 0 336 12 344 13 344 c 0
 17 347 15 347 12 346 c 1
 19 353 6 363 11 367 c 0
 12 368 13 368 14 368 c 0
 16 368 17 368 17 369 c 0x8140
 18 374 14 377 14 381 c 0
 15 384 19 384 20 387 c 0
 21 390 17 392 22 393 c 1
 23 386 36 387 39 380 c 0
 43 373 41 366 45 358 c 1
 40 355 46 355 45 358 c 1
 69 345 66 312 77 285 c 0
 84 270 92 260 79 249 c 1
 80 250 72 250 76 247 c 1
 86 250 82 234 86 232 c 0
 89 231 90 237 93 234 c 0
 94 231 90 230 91 227 c 0
 94 218 107 206 100 191 c 1
 92 191 105 215 85 209 c 1
 94 186 100 160 105 141 c 0
 106 136 104 131 105 127 c 0
 108 120 113 116 116 111 c 0
 117 108 118 107 118 107 c 1
 122 120 129 132 133 147 c 0
 137 162 136 175 151 174 c 1x1180
 150 174 155 170 155 175 c 1
 145 178 157 189 155 191 c 0
 154 194 149 190 149 194 c 0
 150 197 154 194 154 197 c 0
 157 205 156 222 169 229 c 1
 172 223 154 215 169 208 c 1
 176 229 187 252 194 268 c 0
 197 272 200 273 203 277 c 0
 204 284 202 290 205 295 c 0
 210 311 219 323 230 338 c 0
 230 339 231 340 233 342 c 2
 233 342 234 343 235 344 c 1
 232 344 232 345 235 346 c 2
 236 346 l 1
 235 346 l 1
 242 353 229 363 234 367 c 0
 235 368 236 368 237 368 c 0
 239 368 240 368 240 369 c 0
 241 374 237 377 237 381 c 0
 238 384 242 384 243 387 c 0
 244 390 240 392 245 393 c 1
 246 386 259 387 262 380 c 0
 266 373 264 366 268 358 c 1
 263 355 269 355 268 358 c 1
 292 345 289 312 300 285 c 0
 307 270 315 260 302 249 c 1x0898
 303 250 295 250 299 247 c 1
 309 250 305 234 309 232 c 0
 312 231 313 237 316 234 c 0
 317 231 313 230 314 227 c 0
 317 218 330 206 323 191 c 1
 315 191 328 215 308 209 c 1
 317 186 323 160 328 141 c 0
 329 136 327 131 328 127 c 0
 331 120 336 116 339 111 c 0
 340 108 341 106 341 104 c 1x040c
 345 123 358 142 365 162 c 0
 370 179 370 194 387 193 c 1
 386 193 392 188 392 193 c 1
 381 198 394 208 393 212 c 0
 392 215 386 211 387 215 c 0
 387 218 391 216 392 219 c 0
 396 228 396 247 411 254 c 1
 413 250 393 237 410 230 c 1
 419 254 433 279 442 298 c 0
 445 302 451 304 452 308 c 0
 455 315 453 322 456 329 c 0
 468 360 494 381 515 409 c 1
 518 407 l 1
 511 398 514 391 505 387 c 1
 515 377 495 369 504 360 c 1
 509 367 504 376 516 372 c 1
384 203 m 1
 381 206 383 205 383 208 c 1
 386 207 384 206 384 203 c 1
422 268 m 1
 419 271 421 272 422 275 c 1
 425 272 423 271 422 268 c 1
519 383 m 1
 527 373 508 375 519 383 c 1
373 57 m 1
 374 56 375 55 375 52 c 1
 372 55 373 56 373 57 c 1
379 70 m 2
 379 72 l 1
 382 71 382 69 379 70 c 2
387 81 m 1
 388 84 392 80 387 81 c 1
EndSplineSet
EndChar

StartChar: S
Encoding: 83 83 41
Width: 340
Flags: MW
HStem: -37 9 -31 62<89.5 111> -14 21G 100 10<265 270> 128 9 380 9 492 72
VStem: 44 10<208.5 222> 64 8 70 7<197.5 199.5 197.5 200.5> 92 49 137 13 193 66<95 106> 194 28 255 9 267 29 271 38 288 62<477 479.5> 316 12
LayerCount: 2
Fore
SplineSet
343 516 m 1x2f2620
 346 506 l 2
 350 494 350 485 350 474 c 2
 347 449 l 2
 344 434 340 422 339 411 c 1x020440
 334 411 329 413 325 401 c 0
 325 400 324 398 324 397 c 0
 324 396 325 395 326 394 c 0
 326 392 325 390 324 389 c 0
 319 391 316 390 314 387 c 1
 321 383 321 386 324 389 c 1
 329 386 329 383 325 382 c 0
 321 381 318 380 316 380 c 0
 311 381 312 378 315 377 c 1
 310 376 309 370 309 363 c 0x040080
 308 356 309 352 306 349 c 0
 305 348 298 349 297 349 c 0
 296 345 297 342 297 338 c 0
 298 334 299 331 298 328 c 0
 298 324 292 324 291 321 c 0
 288 317 296 313 289 310 c 1
 288 315 283 319 279 323 c 0
 274 327 270 332 267 339 c 0
 266 346 266 352 268 359 c 2
 272 383 l 1
 279 384 273 387 272 383 c 1
 268 394 268 406 271 418 c 2
 273 423 l 1
 274 427 l 2
 274 428 275 431 276 435 c 2x0401
 281 449 l 2
 284 460 287 469 288 477 c 0
 288 482 288 485 287 486 c 2
 287 487 l 1
 286 487 l 1
 286 488 286 488 287 487 c 1
 286 487 l 1
 286 488 l 1
 285 488 l 1
 276 491 l 1
 265 493 l 2
 258 496 252 497 248 508 c 1
 249 505 252 516 245 513 c 1
 245 508 242 505 235 505 c 0x060440
 230 504 225 505 222 502 c 0
 222 501 223 499 224 498 c 0
 226 496 226 495 224 494 c 0
 221 491 220 497 216 496 c 0
 211 493 206 489 199 482 c 0
 192 475 188 471 177 468 c 1
 174 472 182 476 187 479 c 0
 194 483 197 486 190 497 c 1
 175 486 164 470 155 453 c 0
 148 436 143 421 141 406 c 0
 144 403 146 400 147 397 c 0
 150 390 150 384 151 377 c 0
 152 370 153 362 157 354 c 1
 150 350 160 350 157 354 c 1
 166 349 174 341 183 330 c 0
 190 321 197 310 204 297 c 0
 211 285 217 271 224 256 c 2
 229 245 l 1
 231 240 l 1
 234 234 l 1
 244 212 l 2
 252 195 260 180 264 165 c 0
 267 148 264 136 255 129 c 1
 258 132 246 135 250 124 c 1x1226
 258 124 260 115 259 106 c 0
 259 95 254 85 257 81 c 0
 258 80 260 80 263 82 c 0
 266 83 267 82 267 79 c 0
 267 72 261 72 258 65 c 2
 257 60 l 1
 256 57 l 2
 256 56 256 55 255 54 c 0
 255 52 254 50 253 47 c 2
 250 40 l 2
 247 31 242 23 236 15 c 0
 225 0 210 -11 191 -14 c 1
 191 -9 204 -5 215 3 c 0
 220 7 224 11 227 16 c 0
 229 21 227 26 222 30 c 1
 212 18 201 8 188 -1 c 0x3008
 177 -10 163 -17 148 -22 c 0
 133 -27 119 -31 103 -31 c 0
 88 -32 74 -29 59 -23 c 0
 52 -20 47 -15 42 -10 c 2
 31 5 l 1
 22 15 l 1
 17 21 l 1
 13 26 l 2
 8 33 4 41 1 50 c 0
 -1 61 -2 72 -1 82 c 0
 0 93 2 103 5 112 c 0
 12 131 19 144 26 159 c 0
 33 172 39 185 42 197 c 0
 42 200 43 200 43 201 c 2
 43 206 l 2
 44 209 44 213 44 218 c 0
 44 226 43 235 43 243 c 1
 48 244 l 1
 49 233 52 226 53 219 c 0
 54 215 55 212 54 210 c 0
 54 207 54 205 53 204 c 0
 53 202 52 200 51 199 c 1
 55 198 58 196 59 191 c 0
 60 188 59 184 58 177 c 0x41
 55 168 53 159 60 152 c 1
 65 161 64 167 64 174 c 0
 65 179 66 183 75 186 c 1
 76 175 73 164 70 153 c 0
 67 142 64 133 67 128 c 1
 64 131 78 143 75 133 c 1
 60 117 63 99 62 84 c 0
 62 77 61 72 61 65 c 0
 61 58 62 51 65 46 c 2
 68 42 l 2
 68 41 69 39 70 38 c 0
 73 35 75 34 77 33 c 0
 80 32 85 31 94 31 c 0
 101 32 109 32 117 35 c 0
 125 38 134 39 143 40 c 1
 138 39 135 38 134 37 c 0
 133 36 134 34 135 33 c 0
 138 30 143 32 143 40 c 1x4880
 154 48 166 55 177 64 c 0
 182 68 186 73 189 78 c 2
 189 79 l 2
 190 80 190 80 190 81 c 2
 192 86 l 2
 192 90 193 93 193 97 c 0
 193 104 190 110 189 117 c 0
 188 130 186 143 182 158 c 0
 178 173 173 188 167 203 c 2
 163 214 l 2
 160 218 161 221 158 225 c 0
 155 232 152 237 148 244 c 0
 141 257 133 267 125 275 c 1
 128 279 133 282 129 290 c 0
 128 291 127 292 127 292 c 2
 125 295 122 298 119 300 c 2
 118 300 l 1
 117 303 l 1
 113 308 l 1
 108 307 106 310 107 315 c 2
 108 316 l 1
 105 319 105 320 104 323 c 0
 103 326 102 328 102 330 c 2
 101 333 l 1
 99 336 l 2x4028
 96 347 95 354 94 363 c 0
 91 383 88 406 92 430 c 0
 93 442 97 454 101 465 c 0
 106 476 112 485 121 494 c 1
 116 489 114 486 114 484 c 0
 114 481 115 481 117 482 c 0
 120 482 124 487 121 494 c 1
 128 508 141 521 158 533 c 0
 175 544 193 552 214 557 c 0
 223 560 232 564 243 564 c 0
 252 565 260 564 269 563 c 0
 278 560 288 559 297 555 c 0
 306 551 316 546 325 538 c 2
 331 532 l 2
 333 531 334 530 335 528 c 2
 336 526 l 1
 337 525 l 1
 338 524 l 1
 338 523 l 1
 339 522 l 2
 340 521 340 521 340 520 c 2
 343 516 l 1x2f2620
233 495 m 1
 233 499 236 499 237 500 c 1
 238 496 236 496 233 495 c 1
160 442 m 1x040020
 156 445 159 448 160 451 c 1
 164 448 161 445 160 442 c 1x040020
311 359 m 1
 315 358 314 356 315 353 c 1
 311 354 312 356 311 359 c 1
316 380 m 1x905080
 319 379 320 376 315 377 c 1
 316 378 316 379 316 380 c 1x905080
326 394 m 1
 329 397 333 393 326 394 c 1
265 110 m 1
 270 110 269 104 270 100 c 1
 265 100 266 106 265 110 c 1
137 -37 m 1
 137 -30 145 -31 150 -28 c 1
 151 -35 144 -34 137 -37 c 1
74 193 m 0
 72 191 71 191 71 194 c 0
 70 195 70 196 70 199 c 0
 70 202 71 203 71 207 c 1
 74 204 75 203 75 203 c 2
 76 202 77 200 77 199 c 0
 77 196 76 194 74 193 c 0
118 300 m 1
 121 296 113 295 118 300 c 1
EndSplineSet
EndChar

StartChar: F
Encoding: 70 70 42
Width: 392
Flags: MW
HStem: 1 21G<52 52> 75 7 287 34<150 182 150 182 158.5 182> 298 10<80 91> 316 9 464 9<130 137> 494 8 512 11<66 77 66 92> 530 16 560 12
VStem: 41 11 92 9<499.5 512> 125 12 144 15 185 7 239 9<552 568> 444 10
LayerCount: 2
Fore
SplineSet
130 199 m 1xcd7380
 125 202 127 205 128 208 c 1
 133 205 130 202 130 199 c 1xcd7380
42 31 m 1
 29 42 53 44 42 31 c 1
139 499 m 1
 144 498 142 496 143 493 c 1
 138 494 140 496 139 499 c 1
137 473 m 2
 134 474 133 476 138 475 c 1
 137 473 l 2
129 459 m 1
 128 456 121 460 129 459 c 1
503 568 m 1
 503 564 l 1x2210
 492 563 489 556 478 563 c 1
 475 547 457 559 454 546 c 1
 465 543 467 555 473 543 c 1
 464 539 448 540 444 533 c 1
 447 536 453 531 448 530 c 0
 437 534 430 527 419 524 c 0
 408 521 401 523 390 522 c 0
 368 519 342 509 318 514 c 1
 329 511 320 526 317 514 c 1
 300 510 279 515 258 511 c 0
 253 510 248 507 244 506 c 0
 227 503 208 504 191 504 c 1x2449
 192 501 193 499 193 498 c 0xcd7380
 194 489 186 480 185 468 c 1x004080
 178 468 185 465 185 468 c 1
 204 432 181 400 175 358 c 0
 172 343 173 330 168 322 c 1
 173 322 176 320 177 316 c 1
 176 317 175 311 178 314 c 0
 178 321 186 316 189 319 c 0
 189 320 185 322 188 323 c 0
 191 324 189 321 192 321 c 0
 199 322 207 329 216 322 c 0
 216 318 203 328 203 315 c 1
 218 318 236 319 248 320 c 0
 251 320 254 317 257 318 c 0
 261 319 264 322 268 323 c 0
 288 327 307 321 328 321 c 1
 328 319 l 1
 321 319 319 315 314 318 c 1
 313 310 303 317 300 309 c 1
 307 308 308 314 311 307 c 1
 306 304 297 306 294 302 c 1
 295 305 300 301 297 300 c 0
 290 303 287 298 280 297 c 0
 275 296 269 297 264 296 c 0
 252 295 237 288 222 292 c 1
 230 289 223 299 222 292 c 1
 211 289 200 293 189 290 c 0
 186 290 183 288 180 288 c 0
 173 287 166 287 158 287 c 1
 159 287 159 286 159 285 c 0
 159 282 153 283 152 279 c 0x088280
 149 266 157 242 138 229 c 1
 130 234 160 252 132 260 c 1
 127 227 117 191 110 164 c 0
 109 157 102 155 101 148 c 0
 98 140 104 130 103 121 c 0
 100 100 93 80 84 60 c 0
 75 41 65 22 57 -1 c 1
 52 1 l 1
 56 16 50 22 61 30 c 1
 45 38 67 56 52 66 c 1
 47 54 56 45 41 45 c 1
 40 57 49 75 42 82 c 1
 45 79 36 71 36 78 c 1
 47 89 39 103 42 114 c 0
 43 127 49 137 52 149 c 0
 59 174 55 210 71 235 c 1
 63 222 83 229 72 237 c 1
 73 254 83 272 88 292 c 1
 86 292 l 2
 83 293 86 295 83 296 c 0
 82 297 80 295 80 298 c 1
 83 298 86 305 90 308 c 2x9004
 91 308 l 1
 92 315 90 320 91 325 c 0
 99 369 125 413 120 446 c 1
 125 446 131 444 132 453 c 0
 132 456 131 458 129 459 c 2
 130 464 l 1
 137 461 139 464 140 467 c 0
 133 470 131 467 130 464 c 1
 117 472 134 473 137 473 c 0
 144 472 141 475 138 475 c 1
 146 478 143 491 146 498 c 1
 143 496 l 1
 142 500 141 506 134 503 c 0
 131 503 130 502 130 499 c 1
 126 499 l 1
 126 506 124 506 121 506 c 1
 121 501 123 499 126 499 c 1
 125 487 120 499 117 502 c 0
 117 507 115 505 115 502 c 1
 110 509 95 499 92 505 c 2
 92 512 l 1
 85 515 82 509 77 512 c 0
 74 512 75 516 72 519 c 0xc422
 69 522 66 516 66 523 c 1
 73 523 76 536 84 539 c 0
 91 542 98 538 109 541 c 1
 110 534 112 541 109 541 c 1
 128 565 164 556 196 561 c 0
 215 564 228 573 236 556 c 1
 236 559 234 549 239 552 c 1
 239 566 254 555 257 561 c 0
 260 564 253 566 257 569 c 0x0210
 260 570 260 565 263 565 c 0
 274 568 290 577 305 568 c 1
 303 561 280 576 283 555 c 1
 310 560 339 562 362 563 c 0
 369 564 373 560 377 560 c 0
 384 563 391 568 398 569 c 0
 431 577 466 568 503 568 c 1
155 287 m 1
 150 287 l 1
 150 287 152 287 155 287 c 1
159 499 m 1
 161 502 l 1
 154 500 l 1
 155 500 156 499 157 499 c 2
 159 499 l 1
248 568 m 1
 248 564 247 565 244 564 c 1
 244 568 247 567 248 568 c 1
330 569 m 1
 330 565 327 566 324 565 c 1
 324 570 327 568 330 569 c 1
483 547 m 1
 478 535 469 550 483 547 c 1
97 497 m 1
 97 501 98 500 101 501 c 1
 101 498 98 498 97 497 c 1
117 502 m 2
 118 499 116 498 115 502 c 1
 117 502 l 2
130 499 m 1
 133 500 133 494 130 499 c 1
184 323 m 1
 184 322 183 321 181 321 c 1
 181 322 182 323 184 323 c 1
230 323 m 1
 230 322 229 321 227 321 c 1
 227 322 228 323 230 323 c 1
317 310 m 1
 314 303 309 311 317 310 c 1
EndSplineSet
EndChar

StartChar: M
Encoding: 77 77 43
Width: 487
Flags: MW
HStem: -62 21G<372 372> -17 21G -4 21G<10 10> -3 21G 283 8 291 8 391 20G 398 20G 495 7 517 7<130 131> 527 11<124 132> 535 8<126.5 132> 539 11
VStem: 11 11 118 12 127 8 153 26<530.5 549.5> 186 7 218 19<266 274> 231 9<267 273 267 273> 289 16 356 7 361 71 385 70 462 8 477 16
LayerCount: 2
Fore
SplineSet
134 309 m 1x01084840
 138 308 136 306 136 303 c 1
 135 304 134 306 134 309 c 1x01084840
100 202 m 1
 104 199 102 196 101 192 c 1
 97 195 99 198 100 202 c 1
10 -4 m 1
 -1 7 21 12 10 -4 c 1
129 505 m 1
 128 502 l 2
 125 503 124 506 129 505 c 1
119 486 m 1
 119 482 112 486 119 486 c 1
198 444 m 1
 197 444 196 445 195 446 c 1
 197 447 198 446 198 444 c 1
213 387 m 1
 209 387 210 388 209 391 c 1
 210 391 212 390 213 387 c 1
128 535 m 1
 125 535 125 537 124 538 c 1
 127 538 127 536 128 535 c 1
131 524 m 1
 131 525 l 1
 129 524 129 524 131 524 c 1
131 515 m 1
 132 512 128 512 131 515 c 1
279 411 m 1
 282 408 280 409 279 406 c 1
 276 409 279 410 279 411 c 1
332 464 m 1
 335 461 332 460 331 457 c 1
 328 460 331 461 332 464 c 1
231 273 m 1
 234 270 231 271 231 268 c 1
 230 269 230 271 231 273 c 1
239 283 m 1
 240 285 l 2x001040
 243 284 242 280 239 283 c 1
250 291 m 1x001080
 251 294 255 288 250 291 c 1x001080
477 514 m 1
 509 474 482 424 482 374 c 0
 482 345 489 319 461 314 c 1
 464 314 452 319 455 311 c 1
 474 308 457 286 463 280 c 0
 466 277 474 285 475 278 c 0
 475 275 468 275 467 270 c 0
 467 254 477 223 458 204 c 1
 446 210 481 237 445 243 c 1
 445 200 438 153 434 118 c 0
 433 110 425 103 425 96 c 0
 425 85 432 73 432 62 c 0
 432 7 408 -41 397 -99 c 1
 391 -98 l 1
 394 -79 385 -72 397 -59 c 1
 373 -51 399 -25 378 -17 c 1
 373 -32 390 -42 368 -45 c 1
 365 -30 372 -6 363 2 c 1
 367 -1 357 -11 356 -4 c 1
 367 12 357 28 356 43 c 0
 356 59 360 73 363 88 c 0
 366 122 355 169 373 203 c 1
 363 184 389 192 373 203 c 1
 370 231 386 261 385 294 c 0xa64004
 385 302 382 310 383 318 c 0
 386 369 408 428 400 468 c 1
 387 453 378 431 359 420 c 1
 368 426 352 429 357 419 c 1
 349 406 333 396 322 381 c 0
 319 377 319 372 316 368 c 0
 297 343 265 322 260 298 c 1
 256 299 253 303 250 296 c 0
 248 294 248 292 250 291 c 1
 248 288 l 1
 244 293 243 291 240 290 c 1
 243 287 245 287 248 288 c 0
 255 280 243 284 240 285 c 0
 238 286 238 286 239 283 c 1x082210
 237 283 l 1x01084840
 237 277 238 272 240 267 c 1x00800040
 237 266 l 1
 234 273 232 274 231 278 c 1
 228 274 227 269 223 269 c 2x040001
 220 272 l 1
 218 274 l 1
 213 271 214 266 210 263 c 0
 207 262 205 265 202 265 c 0
 199 264 200 259 196 263 c 1x04000080
 199 267 192 278 195 285 c 0
 198 290 204 294 209 301 c 0
 208 302 207 302 206 302 c 1
 209 302 207 296 204 299 c 0
 207 307 199 311 196 318 c 0
 193 325 193 331 190 338 c 0
 185 353 172 369 172 388 c 1x400002
 172 377 181 388 172 388 c 1
 168 396 167 407 164 418 c 1
 159 403 155 389 152 375 c 0
 147 348 150 328 129 323 c 1x200004
 132 324 124 329 125 321 c 1
 137 318 122 299 125 293 c 0
 128 290 133 298 133 291 c 0
 133 288 128 288 127 284 c 0
 124 269 127 243 111 227 c 1
 106 232 131 256 108 261 c 1
 101 222 89 181 81 152 c 0
 78 144 73 140 72 133 c 0
 69 122 74 113 71 102 c 0
 67 78 59 56 50 33 c 0
 39 10 30 -13 21 -38 c 1
 17 -37 l 1
 22 -21 17 -14 28 -3 c 1
 14 5 34 27 22 36 c 1
 17 24 24 12 11 12 c 1
 11 25 20 46 15 54 c 1
 18 50 8 42 9 49 c 0
 18 62 14 77 17 90 c 0
 20 105 25 115 28 130 c 0
 36 158 36 198 51 229 c 1x080011
 46 213 62 221 52 231 c 1
 56 255 70 280 75 311 c 0
 76 318 74 325 77 332 c 0
 88 380 114 436 111 470 c 1
 115 470 119 468 122 479 c 0
 122 482 123 485 119 486 c 1
 121 492 l 1
 126 490 129 491 130 495 c 1
 125 497 122 496 121 492 c 1
 108 497 126 502 128 502 c 0
 133 501 132 504 129 505 c 1
 131 506 133 508 134 513 c 0
 134 514 133 515 131 515 c 2
 130 517 l 1
 133 518 135 519 135 522 c 1
 132 521 130 520 130 517 c 0
 122 516 130 523 131 524 c 0
 134 525 132 526 131 525 c 1
 131 526 132 526 132 527 c 2
 132 527 132 528 132 530 c 0
 131 535 126 539 129 542 c 0
 130 543 130 543 131 543 c 0
 133 543 134 543 134 544 c 0
 135 547 131 550 131 554 c 0
 131 557 135 555 136 558 c 0
 136 561 133 562 137 563 c 1
 138 559 148 558 151 553 c 0
 152 552 153 550 153 549 c 1x180620
 153 550 154 552 155 553 c 0
 158 556 161 554 164 557 c 0
 167 560 165 567 170 564 c 1
 167 555 179 545 179 534 c 0
 179 527 177 522 174 515 c 1
 178 504 180 491 185 479 c 0
 190 467 199 458 188 450 c 1
 189 451 183 451 186 448 c 0
 194 451 191 438 195 437 c 0
 198 436 199 441 200 438 c 0
 201 437 198 436 199 433 c 0
 202 426 212 416 207 404 c 1
 201 404 210 423 195 418 c 1
 203 399 209 379 214 364 c 0
 215 361 213 356 214 353 c 2
 224 341 l 1
 232 352 242 361 250 373 c 0
 261 388 263 401 279 396 c 1
 278 396 282 390 283 395 c 1
 275 402 290 408 289 412 c 0
 289 415 283 413 284 417 c 0
 285 420 288 416 291 419 c 0
 296 427 301 444 317 447 c 1
 320 441 295 438 310 425 c 1
 325 445 343 465 358 480 c 0
 361 483 367 483 370 487 c 0
 374 492 374 500 378 505 c 0
 389 518 399 527 414 536 c 2
 418 539 l 1
 414 540 415 543 414 546 c 1x1045
 417 545 419 543 419 540 c 1
 422 541 423 542 423 542 c 1
 423 547 424 550 427 551 c 0
 428 551 432 550 435 550 c 2
 441 553 l 1
 442 560 439 565 442 572 c 0x0011
 445 576 452 574 455 577 c 0
 459 580 454 587 463 586 c 1
 460 576 480 564 483 553 c 0
 486 542 477 529 477 514 c 1
 468 513 477 510 477 514 c 1
472 299 m 1
 477 298 476 294 477 291 c 1
 470 292 473 296 472 299 c 1
448 176 m 1
 455 173 452 169 453 165 c 1
 446 168 449 172 448 176 c 1
372 -62 m 1
 354 -53 383 -42 372 -62 c 1
EndSplineSet
EndChar

StartChar: A
Encoding: 65 65 44
Width: 627
Flags: MW
HStem: -4 21G<438 438> 0 21G 33 48 48 9 77 8 132 8 168 54<504.5 538.5> 172 58 177 7<609 614> 194 8 196 62 206 10 225 30 226 14 239 9 474 40<355.5 357 333 372.5> 503 9 534 9 574 20G<501 501>
VStem: 54 11<208 224> 69 37 78 8 135 15 201 40 276 64 425 50<92 110> 434 7 441 41 450 10 465 36 476 15 521 9 598 21<206 219> 615 20<265 292.5>
LayerCount: 2
Fore
SplineSet
322 343 m 1x6080002080
 321 343 321 342 320 342 c 1
 321 342 321 343 322 343 c 1x6080002080
199 292 m 1
 196 295 199 298 200 301 c 1
 203 298 200 295 199 292 c 1
286 404 m 1
 290 401 286 397 283 393 c 1
 279 397 283 401 286 404 c 1
121 57 m 1
 125 54 122 52 122 49 c 1
 118 52 121 54 121 57 c 1
135 80 m 2
 138 79 139 74 134 77 c 1
 135 80 l 2
433 42 m 1x0040000080
 409 37 384 34 358 33 c 0
 327 33 297 36 268 43 c 0
 234 50 205 60 181 74 c 0
 170 81 161 88 154 95 c 1
 153 95 l 2
 151 95 150 95 150 95 c 1
 151 96 152 96 153 96 c 1
 149 100 l 1
 148 97 148 96 150 95 c 1
 147 89 l 1
 142 93 138 93 135 88 c 1
 142 83 144 86 147 89 c 1x00020090
 157 79 138 80 135 80 c 0
 131 83 131 80 134 77 c 1x01000080
 121 77 119 48 110 48 c 0x6080002080
 109 48 103 54 102 53 c 0
 95 46 97 38 90 33 c 0
 87 30 82 35 78 32 c 0x20000220
 75 29 76 22 69 25 c 1
 76 34 65 50 69 61 c 0
 72 72 83 81 90 96 c 1
 97 95 93 100 90 96 c 1
 89 112 93 128 101 145 c 1
 100 145 100 145 100 146 c 1
 101 146 l 2
 102 149 104 151 105 152 c 2
 97 163 l 1
 88 177 l 2
 85 180 86 175 86 172 c 0x082002
 86 169 86 167 82 174 c 0
 79 177 78 181 78 185 c 0
 77 188 77 191 74 198 c 2
 68 213 l 1
 59 212 54 213 53 216 c 0
 54 217 54 219 54 220 c 2
 54 224 l 1
 47 227 40 223 33 226 c 0
 29 229 30 232 27 235 c 0
 24 238 18 233 19 240 c 1
 28 239 37 252 48 255 c 0
 52 255 55 255 57 254 c 1
 56 261 55 267 55 274 c 0
 54 288 56 303 60 319 c 0
 63 334 68 347 77 360 c 1
 78 357 75 351 72 342 c 0
 68 334 65 323 62 312 c 0
 60 301 59 291 60 283 c 0x100006
 61 275 64 271 69 271 c 1
 68 298 71 324 82 349 c 0
 91 374 106 397 123 416 c 0
 140 436 160 451 180 464 c 0x000810
 201 476 221 485 240 492 c 0
 259 499 277 499 293 503 c 0
 318 508 342 514 369 514 c 0x000410
 376 514 382 514 389 513 c 1
 400 524 412 533 425 544 c 0
 449 561 474 577 501 594 c 1
 503 590 l 1
 496 584 491 580 489 577 c 1
 491 577 l 1
 490 568 503 560 504 549 c 0
 507 538 501 529 501 514 c 1x000810
 494 513 501 510 501 514 c 1
 508 503 511 490 512 475 c 1
 525 467 537 459 547 451 c 0
 574 429 596 404 611 375 c 0
 626 344 635 310 635 275 c 1
 632 275 l 1
 629 303 l 1
 623 324 l 2
 619 337 616 349 609 365 c 0
 606 366 602 370 596 377 c 0
 591 384 586 391 579 398 c 0
 566 413 551 426 543 426 c 1
 556 414 566 406 573 399 c 0
 580 391 584 385 583 376 c 1
 578 383 573 389 566 396 c 2
 544 417 l 2
 530 428 518 435 509 438 c 1
 513 436 517 433 520 430 c 0
 523 425 523 425 518 428 c 0
 515 431 512 432 509 435 c 1
 506 420 505 405 505 390 c 0
 505 363 511 343 492 335 c 1
 495 336 485 340 488 333 c 1
 502 330 488 311 493 306 c 0
 496 303 501 312 501 305 c 0
 502 301 497 301 496 297 c 0
 496 282 504 257 491 238 c 1
 484 242 506 271 482 271 c 1
 482 254 481 235 480 216 c 1
 491 217 499 222 510 222 c 0
 539 222 567 218 596 211 c 0x0001280240
 597 214 598 216 598 219 c 0
 601 226 602 234 605 241 c 0
 608 249 610 247 613 254 c 0
 616 257 615 263 615 267 c 0
 615 272 616 275 618 275 c 1
 618 264 620 254 621 243 c 0
 622 232 623 220 619 207 c 1
 619 206 l 1
 663 198 l 1
 662 194 l 1
 645 195 638 189 625 198 c 1
 624 193 619 190 612 190 c 1
 609 184 l 1
 612 183 613 180 614 177 c 1
 610 177 607 177 605 176 c 0
 602 173 603 172 600 169 c 0
 591 156 580 143 568 130 c 1x0200001080
 561 130 561 123 568 130 c 1x0200000040
 557 111 541 95 520 80 c 0
 505 69 490 61 471 54 c 1
 466 25 459 -4 456 -35 c 1x0200000080
 452 -35 l 1
 453 -18 447 -12 454 0 c 1
 439 5 454 29 441 37 c 1
 438 22 448 16 435 11 c 1
 432 20 434 33 433 42 c 1x0040000080
432 225 m 1
 432 227 432 229 433 230 c 1x20020040
 432 229 432 227 432 225 c 1
 435 225 436 225 437 224 c 1
 438 226 437 229 434 232 c 0x21000040
 431 256 442 283 441 314 c 0
 441 321 439 327 439 334 c 0
 440 377 452 425 451 460 c 1
 429 464 l 1
 423 466 l 1
 414 454 404 445 393 434 c 0
 381 421 371 404 359 387 c 0
 348 371 337 355 322 343 c 1
 336 354 314 356 320 342 c 1
 305 318 279 296 263 267 c 0x20020040
 260 263 260 259 257 254 c 1x01000080
 265 253 270 248 273 241 c 1
 272 244 268 233 276 236 c 1
 276 250 300 238 304 242 c 0
 307 245 298 250 305 251 c 0
 309 251 309 246 314 245 c 0
 329 245 355 254 375 239 c 1
 370 232 343 255 340 230 c 1
 371 230 403 228 432 225 c 1
477 173 m 0
 476 170 476 165 476 160 c 0
 475 153 470 147 470 140 c 0
 470 129 475 121 475 110 c 2
 475 106 l 1
 478 107 481 108 485 111 c 0
 489 114 496 117 495 120 c 0
 499 123 503 124 506 127 c 1
 507 120 514 125 521 129 c 1x02000041
 520 136 513 131 506 127 c 1
 506 132 509 136 516 137 c 0
 521 139 525 140 530 140 c 0
 533 137 536 142 535 145 c 0
 542 148 554 158 563 171 c 1x04000001
 552 172 544 168 533 168 c 0
 518 168 505 171 490 172 c 0
 487 173 482 173 477 173 c 0
455 500 m 2
 461 498 l 2
 462 499 463 501 463 503 c 0
 458 504 456 503 455 500 c 2
450 524 m 1
 454 526 457 529 460 534 c 0x00008004
 459 535 459 536 459 539 c 1
 460 539 461 538 462 537 c 1x00004004
 465 541 l 1
 467 544 l 1
 467 543 467 543 468 543 c 2
 471 543 l 1
 475 543 l 1
 478 550 474 556 477 563 c 0
 480 567 483 566 486 569 c 0
 489 570 487 572 488 575 c 1
 483 571 479 568 470 565 c 1
 473 556 467 551 460 544 c 0
 453 537 447 532 450 524 c 1
447 502 m 1
 448 505 452 507 455 507 c 0
 458 508 459 509 460 509 c 0
 465 509 463 512 460 512 c 1x002109
 463 515 465 520 465 527 c 1x00004004
 456 518 447 509 447 502 c 1
106 282 m 2
 106 260 l 1
 126 264 148 262 171 259 c 1
 178 270 186 277 199 276 c 1
 196 276 202 267 205 276 c 1x10008008
 192 284 215 300 215 306 c 0
 215 310 205 305 208 312 c 0
 211 315 215 313 218 317 c 0
 225 332 236 361 260 372 c 1
 263 364 227 349 248 333 c 1
 272 372 304 411 327 438 c 0
 334 445 342 446 347 453 c 0
 351 460 354 467 357 474 c 1
 333 474 l 2
 314 471 296 470 277 463 c 0
 258 458 239 450 222 440 c 0
 204 430 187 418 172 405 c 0
 158 393 145 379 133 364 c 1
 140 373 143 379 144 380 c 0
 147 383 146 383 143 382 c 0
 140 381 132 373 133 364 c 1
 118 340 109 313 106 282 c 2
125 200 m 1
 123 203 l 1
 123 202 124 201 125 200 c 1
130 191 m 1x08208201
 131 194 133 194 134 197 c 1
 131 197 130 196 127 196 c 1
 127 196 128 195 129 192 c 0
 130 192 130 192 130 191 c 1x08208201
395 85 m 0
 406 88 416 89 425 92 c 1
 425 105 428 117 428 129 c 0x000208
 429 142 428 157 428 172 c 1
 411 172 397 174 384 178 c 1
 398 173 391 191 382 179 c 1
 355 178 327 188 296 187 c 0
 288 187 281 185 274 185 c 0
 254 186 234 189 214 192 c 1
 209 185 205 181 201 174 c 0
 193 164 186 153 179 141 c 1
 195 128 212 118 230 109 c 0
 257 96 285 88 314 84 c 0
 342 80 370 81 395 85 c 0
502 317 m 1x801010
 499 317 500 320 499 323 c 1
 503 322 502 320 502 317 c 1x801010
438 -4 m 1
 426 3 443 13 438 -4 c 1
460 509 m 1
 457 509 456 512 460 512 c 1
 460 509 l 1
135 439 m 1
 138 435 127 427 120 419 c 1
 117 423 128 432 135 439 c 1
591 365 m 0
 591 368 592 368 594 365 c 0
 597 362 601 355 604 346 c 1
 596 351 591 361 591 365 c 0
530 140 m 1
 527 143 531 148 535 145 c 1
 532 142 531 143 530 140 c 1
495 120 m 1
 488 123 488 116 495 120 c 1
286 248 m 1
 287 252 290 251 293 252 c 1
 292 248 289 249 286 248 c 1
402 232 m 1
 403 237 408 235 412 236 c 1
 411 231 406 233 402 232 c 1
630 180 m 1
 622 167 611 188 630 180 c 1
59 206 m 1
 59 211 62 209 65 210 c 1
 65 206 62 207 59 206 c 1
EndSplineSet
EndChar

StartChar: Y
Encoding: 89 89 45
Width: 328
Flags: MW
HStem: -78 638 118 21
VStem: 16 9 126 63 131 16 148 76 206 9
LayerCount: 2
Fore
SplineSet
4 491 m 1xa4
 0 488 -1 493 -4 494 c 1
 0 497 1 494 4 491 c 1xa4
29 443 m 1
 32 440 24 436 29 443 c 1
141 271 m 0
 138 274 136 278 133 282 c 0
 99 332 71 397 37 421 c 1x84
 41 426 47 429 38 440 c 0
 35 443 33 446 29 443 c 1
 25 450 l 1
 8 444 21 462 21 465 c 1
 18 464 14 465 19 469 c 0
 22 481 -2 497 0 507 c 0
 1 508 10 512 10 513 c 0
 7 522 -2 526 -5 535 c 0
 -6 540 0 543 0 547 c 0
 0 552 -9 555 -2 560 c 1
 5 549 24 552 35 543 c 0
 46 534 49 518 60 505 c 1
 109 489 129 427 166 382 c 0
 177 367 188 357 195 345 c 1
 196 348 197 349 200 352 c 1
 202 349 201 346 197 342 c 1
 200 335 l 1
 215 354 230 369 242 384 c 0
 249 391 257 392 262 399 c 0
 269 408 270 422 277 431 c 0
 309 478 356 510 397 557 c 1
 400 554 l 1
 389 539 390 529 374 522 c 1
 385 506 353 493 363 477 c 1
 375 489 368 503 387 498 c 1
 380 483 360 465 363 454 c 1
 362 459 375 463 371 456 c 1
 355 447 352 429 343 416 c 0
 332 401 322 392 311 379 c 0
 287 352 267 308 235 286 c 2
 232 284 l 1
 232 284 232 284 231 283 c 0
 227 277 222 271 217 266 c 1
 233 245 219 219 219 193 c 0
 220 176 228 162 204 159 c 1
 207 159 196 162 199 157 c 1
 216 154 201 142 207 139 c 0
 210 136 216 142 217 138 c 0
 218 135 211 136 211 133 c 0
 211 122 222 107 206 96 c 1x62
 197 99 224 115 193 118 c 1
 196 93 192 66 189 47 c 0
 189 42 182 38 182 34 c 0x50
 183 27 189 21 190 14 c 0
 193 -17 174 -45 167 -78 c 1
 162 -77 l 1
 163 -66 154 -62 165 -55 c 1x90
 144 -50 165 -35 147 -30 c 1
 144 -38 158 -43 140 -46 c 1x88
 136 -37 142 -23 133 -18 c 1
 137 -21 128 -26 128 -21 c 0
 135 -13 127 -3 126 6 c 0
 125 15 129 23 129 32 c 0
 130 51 120 77 132 96 c 1
 126 88 148 92 133 98 c 1
 130 114 143 131 140 150 c 0x90
 140 155 136 159 137 164 c 0
 137 197 156 230 143 254 c 1
 150 254 154 255 155 257 c 2
 148 264 l 1
 147 264 l 2
 144 267 142 269 141 271 c 0
394 515 m 1
 402 500 375 501 394 515 c 1
213 150 m 1
 218 149 217 148 218 145 c 1
 213 146 214 147 213 150 c 1
203 73 m 1
 196 74 199 76 199 79 c 1
 206 78 203 76 203 73 c 1
144 -56 m 1
 128 -51 152 -45 144 -56 c 1
EndSplineSet
EndChar

StartChar: N
Encoding: 78 78 46
Width: 434
Flags: MW
HStem: -4 21G -3 21G 66 10 495 7<109 109> 514 8
VStem: -10 11 97 13 106 9 227 8 330 10 343 11 439 13
LayerCount: 2
Fore
SplineSet
116 303 m 1x76b0
 112 304 114 306 113 309 c 1
 117 308 115 306 116 303 c 1x76b0
79 202 m 1
 83 199 81 196 80 192 c 1
 76 195 79 198 79 202 c 1
-11 -4 m 1
 -22 7 0 12 -11 -4 c 1
107 502 m 2
 104 503 103 506 108 505 c 1
 107 502 l 2
98 486 m 1
 98 482 91 486 98 486 c 1
206 238 m 1
 194 259 193 287 178 312 c 0
 175 319 169 322 166 329 c 0
 155 352 148 381 139 405 c 1
 136 394 133 386 132 375 c 0
 127 348 129 328 109 323 c 1
 112 324 103 329 104 321 c 1
 118 318 102 299 105 293 c 0
 106 290 113 298 112 291 c 0
 112 288 107 288 106 284 c 0
 103 269 106 243 90 227 c 1
 85 232 110 256 87 261 c 1
 80 222 68 181 60 152 c 0
 57 144 52 140 51 133 c 0x76b0
 48 122 53 113 50 102 c 0
 46 78 38 56 29 33 c 0
 20 10 9 -13 0 -38 c 1
 -4 -37 l 1
 1 -21 -4 -14 7 -3 c 1
 -7 5 14 28 1 36 c 1
 -4 24 3 12 -10 12 c 1
 -10 25 -1 46 -6 54 c 1
 -3 50 -13 42 -12 49 c 0
 -3 62 -7 77 -4 90 c 0
 -1 105 4 115 7 130 c 0
 15 158 15 198 31 229 c 1
 24 215 41 219 32 231 c 1
 35 255 49 280 54 311 c 0
 55 318 53 325 56 332 c 0
 67 380 93 435 90 470 c 1
 95 470 100 468 101 479 c 0
 101 482 102 485 98 486 c 1
 100 492 l 1
 105 490 108 491 109 495 c 1
 104 497 101 496 100 492 c 1
 89 498 104 502 107 502 c 2
 109 502 l 1
 109 503 109 504 108 505 c 0
 105 512 100 518 103 522 c 0
 104 522 111 524 112 525 c 1
 109 528 111 529 111 532 c 0
 108 536 105 539 106 544 c 0
 106 548 112 549 113 553 c 0
 116 556 108 560 115 563 c 1
 118 556 126 555 133 552 c 1
 134 553 l 2
 137 556 140 554 143 557 c 0
 146 560 143 567 150 564 c 1
 147 555 159 545 158 534 c 0
 158 529 157 525 154 518 c 1
 156 515 l 1x56
 149 511 157 512 156 515 c 1
 196 499 197 449 218 412 c 0
 228 389 246 374 227 358 c 1
 230 361 218 358 223 354 c 1
 239 359 234 336 242 333 c 0
 245 332 248 342 252 337 c 0
 255 334 247 331 250 327 c 0
 255 314 276 300 270 275 c 1
 259 275 274 309 244 298 c 1
 263 266 276 227 287 200 c 0
 290 193 286 186 289 179 c 0
 293 172 300 169 305 162 c 1
 308 173 309 182 310 193 c 0
 314 220 311 241 331 246 c 1
 328 246 337 241 336 248 c 1
 323 251 336 272 334 276 c 0
 331 279 326 271 326 278 c 0
 326 282 331 281 332 286 c 0
 335 301 331 327 347 344 c 1
 352 339 327 314 350 309 c 1
 357 348 368 388 376 419 c 0
 379 426 385 430 386 437 c 0
 389 448 384 457 387 468 c 0
 392 492 400 514 411 537 c 0
 422 560 434 582 445 606 c 1
 449 604 l 1
 442 589 447 582 436 571 c 1
 450 563 427 542 439 532 c 1
 444 545 437 555 452 556 c 1
 449 541 440 522 445 514 c 1
 442 518 452 526 451 519 c 0
 440 506 445 492 442 479 c 0
 439 464 433 453 429 440 c 0
 421 411 421 371 406 342 c 1
 414 356 394 348 405 340 c 1
 402 316 388 290 385 261 c 0
 384 254 385 247 384 240 c 0x11d0
 376 191 353 137 358 102 c 1
 353 101 348 103 348 92 c 0
 348 89 347 86 351 86 c 1
 349 80 l 1
 342 83 343 79 340 76 c 1
 347 73 348 77 349 80 c 1
 361 74 346 72 343 69 c 0
 339 70 340 67 343 66 c 1
 341 65 339 63 338 59 c 0
 338 58 338 57 339 56 c 0
 339 52 340 49 341 45 c 0
 342 44 342 43 342 40 c 0
 343 33 344 26 347 19 c 1
 342 17 l 1
 339 25 336 29 333 34 c 0
 333 35 333 35 332 35 c 0
 331 35 329 36 328 36 c 0
 327 36 326 36 325 37 c 1
 321 30 325 24 321 17 c 0
 320 13 315 15 312 12 c 0
 309 9 314 3 307 4 c 1
 310 13 296 22 295 33 c 0
 295 40 297 47 300 56 c 1
 293 67 289 80 281 83 c 1
 284 83 281 70 278 76 c 0
 279 92 266 100 259 111 c 0
 252 123 251 136 246 148 c 0x2830
 235 175 209 204 206 236 c 1
 208 221 221 238 206 238 c 1
302 69 m 1
 303 69 303 69 303 68 c 1
 306 69 303 72 302 69 c 1
248 348 m 1
 243 345 244 350 241 351 c 1
 246 354 245 349 248 348 c 1
282 243 m 1
 275 240 277 246 274 249 c 1
 281 252 279 246 282 243 c 1
102 509 m 1
 97 508 98 510 95 513 c 1
 100 514 99 512 102 509 c 1
326 260 m 1
 322 261 323 264 323 267 c 1
 327 266 325 263 326 260 c 1
358 368 m 1
 353 371 356 374 356 378 c 1
 361 375 358 372 358 368 c 1
453 571 m 1
 461 560 442 554 453 571 c 1
343 69 m 1
 346 69 347 66 343 66 c 1
 343 69 l 1
351 86 m 1
 351 89 358 86 351 86 c 1
EndSplineSet
EndChar

StartChar: Z
Encoding: 90 90 47
Width: 575
Flags: MW
HStem: -30 9 -21 20 -18 21G -17 58 -12 53<363 397> -10 33<12 39 32 39> -9 14 -1 21G 43 13 494 8 510 13 519 21 547 7
VStem: 34 10 40 34 61 7<-20 -19.5 -21 -16> 129 8<501 512> 211 12<39 57> 263 10<540 553> 273 47 317 7<48.5 50.5> 448 8
LayerCount: 2
Fore
SplineSet
269 550 m 1x0811d4
 269 552 270 553 273 553 c 1
 273 550 270 551 269 550 c 1x0811d4
346 550 m 1
 346 546 344 547 341 547 c 1
 341 551 343 549 346 550 c 1
133 499 m 1
 133 502 134 501 137 502 c 1
 137 500 136 499 133 499 c 1
152 502 m 1x080040
 152 499 150 498 150 502 c 1
 152 502 l 1x080040
163 499 m 1x081014
 166 499 164 494 163 499 c 1x081014
191 246 m 1
 194 248 l 1
 191 246 l 1
320 285 m 1
 324 282 320 280 319 277 c 1
 316 280 319 282 320 285 c 1
226 193 m 1
 229 189 225 186 222 182 c 1
 219 186 223 190 226 193 c 1
22 28 m 1
 17 44 42 39 22 28 c 1
422 486 m 2
 419 487 420 491 424 488 c 1
 422 486 l 2
404 474 m 1
 401 470 397 477 404 474 c 1
534 22 m 1
 534 17 l 1
 519 20 514 12 503 21 c 1
 498 3 476 21 471 5 c 1
 483 2 490 14 493 -1 c 1
 481 -4 464 0 457 -7 c 1
 460 -4 467 -11 462 -12 c 0x800110
 449 -5 437 -13 426 -14 c 0
 414 -15 403 -12 391 -12 c 0
 364 -11 332 -22 304 -13 c 1
 317 -18 308 2 302 -12 c 1
 281 -16 257 -8 232 -12 c 0
 225 -13 221 -16 214 -17 c 0
 193 -20 170 -17 149 -17 c 0
 126 -18 109 -19 94 -27 c 1
 93 -22 92 -16 84 -19 c 0
 81 -19 79 -21 79 -24 c 1
 74 -24 l 1x001244
 74 -16 71 -16 68 -16 c 1
 68 -24 71 -24 74 -24 c 1
 73 -39 67 -24 64 -21 c 0
 63 -16 61 -18 61 -21 c 1
 56 -13 36 -25 34 -19 c 0
 33 -19 33 -10 32 -10 c 0
 25 -7 21 -14 16 -13 c 2
 15 -13 l 1
 14 -12 l 1
 13 -11 l 1
 12 -10 l 1
 9 -4 l 2x0048a0
 6 -1 3 -8 0 -1 c 1x0811d4
 8 0 12 17 21 21 c 0x080004
 24 22 30 23 39 23 c 1x020004
 34 38 64 48 56 63 c 1x010004
 42 52 48 38 31 44 c 1
 39 59 59 74 58 85 c 1
 58 81 45 77 49 84 c 1
 66 92 69 109 80 122 c 0x080004
 91 135 102 145 113 157 c 0
 137 184 159 225 191 246 c 1
 177 235 199 233 194 248 c 1x020004
 211 271 240 290 261 318 c 0
 266 325 269 332 274 339 c 0x100040
 311 382 370 425 386 462 c 1
 391 459 395 455 402 466 c 0
 405 469 406 472 404 474 c 2
 409 479 l 1
 413 472 417 474 420 477 c 1
 415 484 412 482 409 479 c 1
 400 491 418 486 422 486 c 0
 426 482 427 485 424 488 c 1x4001
 433 487 441 503 448 510 c 1
 443 510 l 1x0804
 443 509 441 507 441 506 c 1
 439 507 439 509 440 510 c 1
 433 509 429 506 424 506 c 0
 415 503 406 506 397 506 c 0
 378 505 352 495 331 502 c 1
 343 496 334 514 331 502 c 1
 316 499 297 505 278 502 c 0x4004
 274 501 269 499 265 499 c 0
 233 496 195 504 174 495 c 1
 173 499 174 505 167 502 c 0
 164 502 163 501 163 499 c 1
 159 499 l 1
 160 506 159 505 156 506 c 1
 155 501 156 499 159 499 c 1
 156 488 153 499 152 502 c 0
 151 506 150 505 150 502 c 1
 145 509 132 500 129 506 c 2
 129 512 l 1
 124 515 120 511 116 512 c 0
 113 513 115 518 112 519 c 0
 109 522 106 518 106 523 c 1
 113 522 116 533 123 536 c 0
 130 539 137 535 146 536 c 1
 147 531 149 537 146 536 c 1
 164 557 198 548 225 550 c 0
 242 553 254 558 261 543 c 1
 261 546 259 537 263 540 c 1
 263 552 277 542 280 547 c 0
 283 548 277 552 280 553 c 0
 283 554 283 550 286 550 c 0
 295 551 311 559 324 550 c 1
 321 545 303 560 303 540 c 1
 327 543 355 543 375 543 c 0
 379 543 384 539 388 540 c 0
 395 541 400 546 407 547 c 0
 438 551 468 541 501 540 c 1
 501 536 l 1x041404
 490 536 487 531 479 536 c 1
 476 523 459 535 456 523 c 1
 465 520 469 531 473 520 c 1
 477 523 l 2
 481 526 485 521 489 522 c 0
 493 523 495 531 499 526 c 1
 492 519 498 502 491 491 c 0
 486 480 472 473 463 461 c 1x004080
 456 464 460 457 463 461 c 1
 458 414 408 385 376 342 c 0x001080
 356 318 346 294 323 301 c 1
 326 301 321 310 317 302 c 1
 328 291 303 280 303 273 c 0
 303 269 313 272 309 267 c 0
 306 263 302 266 299 262 c 0
 288 249 276 220 251 212 c 1x002080
 248 222 287 230 267 250 c 1x0008a0
 239 214 204 178 179 151 c 0
 172 144 164 144 159 137 c 0x001020
 152 128 149 116 142 105 c 0
 123 82 103 62 80 43 c 1
 85 44 91 46 99 47 c 0
 118 50 139 48 159 51 c 0x000820
 182 54 199 64 208 43 c 1
 207 46 204 35 211 39 c 1
 211 53 229 43 234 48 c 0x001020
 237 51 229 56 234 57 c 0
 237 58 238 52 242 53 c 0
 255 54 276 65 293 52 c 1
 290 44 265 66 265 39 c 1
 298 43 336 42 363 41 c 0
 370 41 374 35 381 35 c 0
 389 36 398 42 407 43 c 0
 450 46 490 30 534 22 c 1
451 512 m 2
 454 512 l 2
 455 512 460 506 461 506 c 0
 466 509 469 515 472 519 c 1
 464 516 450 519 446 512 c 1
 447 514 449 514 451 512 c 2
218 53 m 1
 218 57 220 56 223 57 c 1
 223 53 221 54 218 53 c 1
317 47 m 1
 317 54 321 51 324 52 c 1
 324 45 320 48 317 47 c 1
506 2 m 1
 497 -12 492 9 506 2 c 1
44 -23 m 1
 44 -27 41 -27 40 -28 c 1x200008
 39 -24 41 -24 44 -23 c 1
64 -21 m 1
 64 -24 62 -26 61 -21 c 1
 64 -21 l 1
79 -24 m 1
 82 -23 82 -31 79 -24 c 1
EndSplineSet
EndChar

